<?xml version="1.0" encoding="UTF-8"?>
<svg version="1.1" xmlns="http://www.w3.org/2000/svg" width="512" height="512">
<path d="M0 0 C3.42902142 0.02299634 6.85681552 0.00909265 10.28579712 -0.01375103 C37.706588 -0.16922788 37.706588 -0.16922788 49.52416992 4.52148438 C50.34054932 4.84004395 51.15692871 5.15860352 51.99804688 5.48681641 C54.02460792 6.35277479 55.9551361 7.29782554 57.89916992 8.33398438 C58.56489014 8.67800293 59.23061035 9.02202148 59.91650391 9.37646484 C65.26456935 12.21581089 69.95584769 15.54446898 74.52416992 19.52148438 C75.11069336 19.96621094 75.6972168 20.4109375 76.30151367 20.86914062 C91.00768198 32.30727153 99.41769918 51.59796568 102.52416992 69.52148438 C102.57698354 71.18731405 102.60057136 72.85656978 102.52416992 74.52148438 C103.08362305 74.53566406 103.64307617 74.54984375 104.21948242 74.56445312 C121.34650371 75.58326307 135.37431839 84.38594105 146.98510742 96.54882812 C157.89396787 109.32058629 163.7434552 124.74872423 163.62182617 141.54492188 C163.61970375 142.66418564 163.61970375 142.66418564 163.61753845 143.80606079 C163.61197866 146.16957756 163.59943382 148.53299664 163.58666992 150.89648438 C163.58164972 152.50716008 163.57708772 154.11783729 163.57299805 155.72851562 C163.56202243 159.65954236 163.54478588 163.59049685 163.52416992 167.52148438 C164.73109497 167.79738403 164.73109497 167.79738403 165.96240234 168.07885742 C167.56112183 168.45844604 167.56112183 168.45844604 169.19213867 168.84570312 C170.24425537 169.09151123 171.29637207 169.33731934 172.38037109 169.59057617 C184.30623388 173.12193556 193.33438751 182.06182725 199.52416992 192.52148438 C205.34185182 204.63140228 206.60821092 218.39983824 202.96166992 231.39648438 C198.23238397 244.61211969 189.85988245 254.62019486 177.27416992 260.95898438 C170.4795098 263.88255089 163.87192218 264.8825494 156.52416992 265.52148438 C156.40041992 266.10671875 156.27666992 266.69195312 156.14916992 267.29492188 C149.60907078 294.51808456 132.68174633 318.66621171 113.52416992 338.52148438 C112.78811523 339.30910156 112.05206055 340.09671875 111.29370117 340.90820312 C102.72374491 349.85280229 92.76845039 356.9679018 82.28125 363.47851562 C78.83357811 365.62413853 75.64564724 367.92413571 72.52416992 370.52148438 C72.85030273 370.97136719 73.17643555 371.42125 73.51245117 371.88476562 C76.21922245 375.86906907 77.71534768 379.00842004 78.52416992 383.77148438 C80.34099945 391.34335772 86.22395801 395.37630331 91.9440918 400.17724609 C98.31606233 405.59814686 105.49017763 412.18225462 108.52416992 420.14648438 C108.52416992 422.52148437 108.52416992 422.52148437 107.27416992 425.27148438 C106.3736089 429.17391545 106.96577171 429.90153888 108.89916992 433.27148438 C109.3812793 434.02945312 109.86338867 434.78742188 110.36010742 435.56835938 C111.52416992 437.52148438 111.52416992 437.52148438 111.52416992 439.52148438 C112.57604492 439.41835938 113.62791992 439.31523437 114.71166992 439.20898438 C118.52416992 439.52148438 118.52416992 439.52148438 121.07495117 441.63085938 C134.16837112 457.08401849 137.35832712 487.01692625 136.52416992 506.52148438 C135.36777187 508.83428049 134.35007164 510.69558265 132.52416992 512.52148438 C131.17276435 512.62141473 129.81619212 512.65254141 128.46110058 512.65570545 C127.58027724 512.6601633 126.69945391 512.66462114 125.79193896 512.66921407 C124.81317036 512.66902971 123.83440176 512.66884534 122.82597351 512.6686554 C121.7948026 512.67233208 120.76363169 512.67600877 119.70121318 512.67979687 C116.21730778 512.69088279 112.73343216 512.69468582 109.24951172 512.69848633 C106.76327417 512.70474723 104.27703757 512.71139369 101.790802 512.71839905 C94.30874826 512.73766364 86.82670243 512.74823268 79.34463117 512.75712684 C75.82408622 512.76150633 72.30354279 512.76687403 68.78299904 512.77211571 C57.08466116 512.78913057 45.38632424 512.80362553 33.68797588 512.81086445 C30.65038235 512.81277445 27.61278882 512.81469477 24.57519531 512.81665039 C23.82018452 512.81713413 23.06517372 512.81761787 22.28728382 512.81811627 C10.05210155 512.82641946 -2.18298303 512.85176007 -14.41812263 512.88423107 C-26.97035333 512.91727287 -39.52253434 512.93531062 -52.07480878 512.93850869 C-59.1262363 512.94067652 -66.17752141 512.94946479 -73.22890663 512.97496986 C-79.86003373 512.99889891 -86.49095007 513.00252065 -93.12212753 512.99220848 C-95.56025608 512.99171079 -97.99839689 512.99809921 -100.4364872 513.01176453 C-103.7568649 513.02933831 -107.07630605 513.02244852 -110.39668274 513.00923157 C-111.85479739 513.02568544 -111.85479739 513.02568544 -113.3423689 513.04247171 C-119.84436634 512.97968753 -119.84436634 512.97968753 -123.07571316 510.63495541 C-124.75929621 508.09359335 -124.96186493 506.69479566 -124.92993164 503.66113281 C-124.92962952 502.70043884 -124.92932739 501.73974487 -124.92901611 500.74993896 C-124.90837097 499.7206427 -124.88772583 498.69134644 -124.86645508 497.63085938 C-124.86079529 496.57110901 -124.8551355 495.51135864 -124.8493042 494.41949463 C-124.82692248 491.0363641 -124.77672106 487.65429453 -124.72583008 484.27148438 C-124.70576748 481.97722884 -124.68751629 479.6829567 -124.67114258 477.38867188 C-124.62705188 471.76591435 -124.56012143 466.14377516 -124.47583008 460.52148438 C-125.65068466 460.53147713 -125.65068466 460.53147713 -126.84927368 460.54167175 C-134.29126288 460.60220229 -141.7331299 460.64766929 -149.17530251 460.67692089 C-152.99987051 460.6924658 -156.82423228 460.71349489 -160.64868164 460.74780273 C-164.35104728 460.78080121 -168.05321669 460.79842098 -171.75571823 460.8061161 C-173.15646828 460.81158805 -174.55720964 460.82226914 -175.9578743 460.83867455 C-193.77659433 461.03875775 -208.01320133 458.04717351 -221.24926758 445.80273438 C-223.47583008 443.52148438 -223.47583008 443.52148438 -225.45629883 440.93164062 C-227.60528881 438.36698527 -229.50113618 437.06988978 -232.41333008 435.45898438 C-238.29216803 432.17882904 -242.54149669 428.96322304 -246.16333008 423.20898438 C-247.03538086 421.85353516 -247.03538086 421.85353516 -247.92504883 420.47070312 C-251.16021892 414.31817563 -251.777374 408.6911011 -251.66333008 401.89648438 C-251.66268555 401.15914063 -251.66204102 400.42179687 -251.66137695 399.66210938 C-251.63672369 396.60510444 -251.53871632 393.78201307 -250.81958008 390.80273438 C-250.35556613 387.7233691 -251.26872351 386.32612864 -252.78833008 383.64648438 C-258.47721184 373.50756043 -258.89060417 362.09374114 -256.78833008 350.84179688 C-254.81728934 343.86102758 -251.87773734 338.25363833 -247.47583008 332.52148438 C-246.89833008 331.65523438 -246.32083008 330.78898437 -245.72583008 329.89648438 C-236.20920851 319.85116161 -223.33146015 314.71766883 -209.66333008 314.20898438 C-202.3955257 314.35824418 -195.08232562 316.13505655 -188.31567383 318.73632812 C-185.60413511 319.76513479 -185.60413511 319.76513479 -183.46411133 318.87695312 C-182.63459961 318.29880859 -182.63459961 318.29880859 -181.78833008 317.70898438 C-177.59644211 314.94075647 -174.9503666 314.38315456 -170.03833008 314.39648438 C-168.61713867 314.39261719 -168.61713867 314.39261719 -167.16723633 314.38867188 C-164.47583008 314.52148438 -164.47583008 314.52148438 -162.26879883 315.15039062 C-161.67711914 315.27285156 -161.08543945 315.3953125 -160.47583008 315.52148438 C-158.20438934 313.6671635 -158.20438934 313.6671635 -156.47583008 311.52148438 C-157.77360245 307.91504325 -159.47764544 304.74027426 -161.4465332 301.45776367 C-168.01123733 290.44577797 -172.43109345 278.65569426 -176.47583008 266.52148438 C-179.12026744 265.7835719 -181.66144922 265.21443842 -184.35083008 264.70898438 C-197.74256874 261.86280284 -208.53839066 255.7727174 -216.22583008 244.20898438 C-223.99002717 231.32183533 -226.65639465 218.22846946 -223.35083008 203.33398438 C-219.36748541 189.51159481 -210.71752568 178.7705983 -198.14770508 171.70507812 C-193.43523694 169.61753742 -188.51868617 168.50926031 -183.47583008 167.52148438 C-183.46165039 166.65652344 -183.4474707 165.7915625 -183.43286133 164.90039062 C-182.43820556 138.63610192 -175.06722592 113.50205108 -162.47583008 90.52148438 C-161.88801758 89.44253906 -161.30020508 88.36359375 -160.69458008 87.25195312 C-153.7188772 74.90178825 -144.47043038 60.78659699 -133.47583008 51.52148438 C-127.41488127 50.19909554 -127.41488127 50.19909554 -124.51879883 51.19335938 C-122.37456637 51.75347454 -122.37456637 51.75347454 -120.33520508 50.33398438 C-115.64823141 46.52195405 -115.64823141 46.52195405 -114.16333008 40.89648438 C-114.31801758 39.22585937 -114.31801758 39.22585937 -114.47583008 37.52148438 C-112.43330121 32.98253134 -109.29376507 30.5476389 -105.22583008 27.89648438 C-104.57815674 27.47262451 -103.9304834 27.04876465 -103.26318359 26.61206055 C-71.47909418 6.49205944 -37.13061779 -0.25134634 0 0 Z M-125.47583008 346.52148438 C-126.13583008 347.18148438 -126.79583008 347.84148437 -127.47583008 348.52148438 C-127.45829156 351.2867234 -127.33739867 353.90131432 -127.10083008 356.64648438 C-126.89458008 359.24523437 -126.68833008 361.84398437 -126.47583008 364.52148438 C-117.89583008 364.52148438 -109.31583008 364.52148438 -100.47583008 364.52148438 C-104.78401033 361.07494017 -109.13313399 357.71552304 -113.53833008 354.39648438 C-114.59890625 353.59017578 -114.59890625 353.59017578 -115.6809082 352.76757812 C-116.36733398 352.25066406 -117.05375977 351.73375 -117.76098633 351.20117188 C-118.37852783 350.73437012 -118.99606934 350.26756836 -119.63232422 349.78662109 C-121.51208669 348.49660267 -123.41547923 347.49176422 -125.47583008 346.52148438 Z " fill="#020202" transform="translate(282.475830078125,-0.521484375)"/>
<path d="M0 0 C1.70141899 -0.00287018 1.70141899 -0.00287018 3.43721008 -0.00579834 C5.81271591 -0.00714795 8.18822942 -0.00353804 10.5637207 0.00488281 C14.17741558 0.01562986 17.79061684 0.00492985 21.40429688 -0.0078125 C23.72786567 -0.00649127 26.05143416 -0.00392964 28.375 0 C29.44191574 -0.00404846 30.50883148 -0.00809692 31.608078 -0.01226807 C49.82414343 0.1004987 67.1896673 6.55806056 80.48828125 19.265625 C85.59366707 24.68270806 89.42263765 30.5471873 92.80078125 37.140625 C93.1261084 37.76364502 93.45143555 38.38666504 93.78662109 39.02856445 C99.611358 50.906489 99.93306712 63.02047568 99.99951172 75.95117188 C100.01519309 78.06673197 100.04813046 80.18154115 100.08203125 82.296875 C100.08912109 83.54017578 100.09621094 84.78347656 100.10351562 86.06445312 C100.51368593 89.47698676 101.0305142 90.90049463 103.48828125 93.265625 C106.44548753 93.93242868 106.44548753 93.93242868 109.48828125 93.265625 C112.7676851 90.90015337 113.42682841 89.63591773 114.09765625 85.59375 C114.16360689 84.23516685 114.21000379 82.87551398 114.23828125 81.515625 C114.28275391 80.46955078 114.28275391 80.46955078 114.328125 79.40234375 C114.39846583 77.69071687 114.44568071 75.97816685 114.48828125 74.265625 C130.53444542 77.65682464 142.06641353 84.46949684 151.95703125 97.8125 C157.6173881 106.88062272 160.7528741 117.12125626 160.71533203 127.78320312 C160.71562408 128.48662842 160.71591614 129.19005371 160.71621704 129.91479492 C160.71483857 132.20895305 160.69934852 134.50277456 160.68359375 136.796875 C160.67985833 138.39969709 160.67701386 140.00252148 160.67501831 141.60534668 C160.6674235 145.80076528 160.64781122 149.99604291 160.62561035 154.19140625 C160.60506194 158.48175144 160.59599745 162.77211966 160.5859375 167.0625 C160.56456095 175.46360598 160.53047583 183.8645979 160.48828125 192.265625 C158.73688022 192.11545104 156.98570126 191.96268586 155.23461914 191.80883789 C154.25940811 191.72404678 153.28419708 191.63925568 152.2794342 191.55189514 C136.24147423 189.90698741 120.92465613 183.00030157 107.42578125 174.453125 C106.83587402 174.08034424 106.2459668 173.70756348 105.63818359 173.32348633 C102.7667365 171.41682126 101.60848285 170.6262298 100.48828125 167.265625 C101.81640625 165.03125 101.81640625 165.03125 103.73828125 162.515625 C108.26290142 156.29314336 111.41469887 151.29457771 110.48828125 143.265625 C109.50779187 141.20159815 109.50779187 141.20159815 107.48828125 140.265625 C104.12102503 139.76411875 102.28896026 139.73183899 99.42578125 141.640625 C97.62638652 144.07851463 96.50483494 146.28054228 95.23828125 149.015625 C85.87921279 168.15407936 57.15027966 178.86047691 37.95117188 185.47949219 C23.53089048 190.08231793 8.57792905 192.43487724 -6.51171875 193.265625 C-7.23617187 193.31525391 -7.960625 193.36488281 -8.70703125 193.41601562 C-11.8676469 193.54770794 -14.05583985 193.52416035 -16.83984375 191.9453125 C-17.4740625 191.34976563 -18.10828125 190.75421875 -18.76171875 190.140625 C-27.45090427 182.77564755 -37.63758786 179.21070212 -48.51171875 176.265625 C-49.14231201 176.0898291 -49.77290527 175.9140332 -50.42260742 175.73291016 C-68.17209169 171.76276724 -86.18660078 177.55158488 -101.60942078 186.03509521 C-103.56890451 187.30261646 -104.95878448 188.69885138 -106.58227539 190.36621094 C-111.09427941 194.27329763 -115.28624641 194.03944821 -121.0390625 193.8515625 C-122.02797989 193.84307281 -123.01689728 193.83458313 -124.03578186 193.82583618 C-127.17473218 193.7924185 -130.31105335 193.71715975 -133.44921875 193.640625 C-135.58524919 193.61051042 -137.72132016 193.58313724 -139.85742188 193.55859375 C-145.07640826 193.49266645 -150.29387565 193.39243709 -155.51171875 193.265625 C-155.56303871 186.43785873 -155.5977082 179.6101434 -155.62158203 172.78222656 C-155.63154996 170.46645245 -155.64512916 168.15069062 -155.66259766 165.83496094 C-155.7854669 149.11028833 -155.71316544 132.97902262 -150.82421875 116.828125 C-150.56294189 115.94616455 -150.30166504 115.0642041 -150.0324707 114.15551758 C-143.16306067 91.60085304 -132.15753373 71.87948437 -116.74609375 54.02734375 C-115.92625 53.07472656 -115.10640625 52.12210938 -114.26171875 51.140625 C-113.5346875 50.33367187 -112.80765625 49.52671875 -112.05859375 48.6953125 C-110.11779748 45.64689007 -110.22864355 43.82293673 -110.51171875 40.265625 C-110.51171875 36.265625 -110.51171875 36.265625 -108.54296875 34.125 C-107.70765625 33.42890625 -106.87234375 32.7328125 -106.01171875 32.015625 C-105.17640625 31.30921875 -104.34109375 30.6028125 -103.48046875 29.875 C-102.83078125 29.34390625 -102.18109375 28.8128125 -101.51171875 28.265625 C-100.97546875 28.595625 -100.43921875 28.925625 -99.88671875 29.265625 C-96.73584069 30.5923105 -94.92618378 30.71952394 -91.51171875 30.265625 C-88.61421971 28.87351774 -85.99604073 27.10816741 -83.32421875 25.328125 C-65.42244011 13.92348131 -46.48105989 5.9901589 -25.51171875 2.265625 C-24.59582474 2.10255356 -23.67993073 1.93948212 -22.73628235 1.77146912 C-15.09788078 0.49500008 -7.73666329 -0.02952518 0 0 Z " fill="#E7B4B0" transform="translate(270.51171875,14.734375)"/>
<path d="M0 0 C4.24174153 0.393876 7.38168971 3.18744307 10.75 5.5625 C27.71203871 17.1420736 47.06602135 25.37427211 67.5 28.125 C68.7271875 28.29257813 69.954375 28.46015625 71.21875 28.6328125 C72.1365625 28.75398438 73.054375 28.87515625 74 29 C77.01677777 60.22923652 59.96175339 95.98320178 41.125 120.125 C14.39985128 152.41788803 -21.7780701 174.96680516 -64 180 C-69.66538413 180.42309817 -75.33290922 180.43464671 -81.01123047 180.39111328 C-83.49892963 180.37500693 -85.98500515 180.39108442 -88.47265625 180.41015625 C-121.03616648 180.4533197 -151.66603111 168.99313405 -177.75 149.75 C-178.4423877 149.24243164 -179.13477539 148.73486328 -179.84814453 148.21191406 C-180.49122559 147.72432617 -181.13430664 147.23673828 -181.796875 146.734375 C-182.36760742 146.30350586 -182.93833984 145.87263672 -183.52636719 145.42871094 C-185.22642635 143.78047598 -186.05679849 142.15704082 -187 140 C-186.12432227 138.96182537 -185.22347209 137.94484697 -184.3125 136.9375 C-183.56419922 136.08478516 -183.56419922 136.08478516 -182.80078125 135.21484375 C-181 134 -181 134 -178.66796875 134.19140625 C-174.72191955 135.38735381 -170.83260104 136.71113841 -166.9375 138.0625 C-148.99905684 143.78753505 -129.45382204 140.01688975 -113.0625 131.6875 C-98.5906542 123.31476128 -89.98026983 112.51411575 -82 98 C-69.22520302 98.7299884 -69.22520302 98.7299884 -65.125 100.125 C-61.34649514 101.18298136 -58.78547219 100.96492428 -55 100 C-52.68638198 96.52957297 -52.48979272 95.08165827 -53 91 C-57.45614732 86.37881019 -63.70217978 85.58835796 -69.8125 84.875 C-70.85180664 84.74544922 -70.85180664 84.74544922 -71.91210938 84.61328125 C-73.60733706 84.40283919 -75.30357755 84.20058328 -77 84 C-76.98952637 83.30028076 -76.97905273 82.60056152 -76.96826172 81.87963867 C-76.92618385 78.64896368 -76.90051148 75.41834666 -76.875 72.1875 C-76.84986328 70.53717773 -76.84986328 70.53717773 -76.82421875 68.85351562 C-76.76807129 59.33652064 -77.56922249 50.42201739 -81.4375 41.625 C-82.05431641 40.19027344 -82.05431641 40.19027344 -82.68359375 38.7265625 C-83.96888745 35.95189236 -83.96888745 35.95189236 -85.66015625 33.2734375 C-87 31 -87 31 -87 29 C-85.88625 28.90203125 -84.7725 28.8040625 -83.625 28.703125 C-73.08838827 27.70074565 -63.17560039 25.88897172 -53 23 C-51.94941406 22.71382812 -50.89882813 22.42765625 -49.81640625 22.1328125 C-23.034691 14.57037924 -23.034691 14.57037924 0 0 Z " fill="#FDDBCD" transform="translate(356,193)"/>
<path d="M0 0 C1.73699409 0.00424484 1.73699409 0.00424484 3.50907898 0.00857544 C7.15590382 0.01964282 10.80246994 0.04472128 14.44921875 0.0703125 C16.94335579 0.0803597 19.43749674 0.08948248 21.93164062 0.09765625 C28.00008614 0.11953788 34.06838395 0.15287827 40.13671875 0.1953125 C40.13671875 0.5253125 40.13671875 0.8553125 40.13671875 1.1953125 C39.45939697 1.29328125 38.7820752 1.39125 38.08422852 1.4921875 C31.28245052 2.58565653 25.35520397 4.39659711 19.07421875 7.1953125 C18.17155273 7.59194092 17.26888672 7.98856934 16.33886719 8.3972168 C-18.18346232 23.86324464 -48.04897959 48.27258313 -69.86328125 79.1953125 C-70.27094727 79.76894531 -70.67861328 80.34257813 -71.09863281 80.93359375 C-92.99830422 112.17091228 -106.25478948 149.62569878 -107.45703125 187.796875 C-107.94706272 190.68994544 -108.57911366 191.40948707 -110.86328125 193.1953125 C-112.93241882 193.55607605 -112.93241882 193.55607605 -115.3347168 193.53588867 C-116.23542404 193.53566208 -117.13613129 193.53543549 -118.06413269 193.53520203 C-119.51738701 193.51197624 -119.51738701 193.51197624 -121 193.48828125 C-121.99457718 193.48403641 -122.98915436 193.47979156 -124.01387024 193.47541809 C-127.193115 193.45861403 -130.37172781 193.42095826 -133.55078125 193.3828125 C-135.70506898 193.36776791 -137.85936663 193.35407912 -140.01367188 193.34179688 C-145.29709092 193.30870494 -150.58014094 193.25848842 -155.86328125 193.1953125 C-155.91460121 186.36754623 -155.9492707 179.5398309 -155.97314453 172.71191406 C-155.98311246 170.39613995 -155.99669166 168.08037812 -156.01416016 165.76464844 C-156.1370294 149.03997583 -156.06472794 132.90871012 -151.17578125 116.7578125 C-150.91450439 115.87585205 -150.65322754 114.9938916 -150.3840332 114.08520508 C-143.51462317 91.53054054 -132.50909623 71.80917187 -117.09765625 53.95703125 C-116.2778125 53.00441406 -115.45796875 52.05179688 -114.61328125 51.0703125 C-113.88625 50.26335937 -113.15921875 49.45640625 -112.41015625 48.625 C-110.46935998 45.57657757 -110.58020605 43.75262423 -110.86328125 40.1953125 C-110.86328125 36.1953125 -110.86328125 36.1953125 -108.89453125 34.0546875 C-108.05921875 33.35859375 -107.22390625 32.6625 -106.36328125 31.9453125 C-105.52796875 31.23890625 -104.69265625 30.5325 -103.83203125 29.8046875 C-103.18234375 29.27359375 -102.53265625 28.7425 -101.86328125 28.1953125 C-101.32703125 28.5253125 -100.79078125 28.8553125 -100.23828125 29.1953125 C-97.08740319 30.521998 -95.27774628 30.64921144 -91.86328125 30.1953125 C-88.96578221 28.80320524 -86.34760323 27.03785491 -83.67578125 25.2578125 C-65.77400261 13.85316881 -46.83262239 5.9198464 -25.86328125 2.1953125 C-24.49555824 1.94948174 -24.49555824 1.94948174 -23.10020447 1.69868469 C-15.33164173 0.39181773 -7.86823804 -0.07436315 0 0 Z " fill="#D5938B" transform="translate(270.86328125,14.8046875)"/>
<path d="M0 0 C13.17481401 8.93509942 23.09534444 22.06617323 26.59765625 37.76171875 C26.86909079 41.24595762 26.87744935 44.7059772 26.84765625 48.19921875 C26.85925781 49.55370117 26.85925781 49.55370117 26.87109375 50.93554688 C26.83084227 64.8323706 21.86781595 77.41270426 12.59765625 87.76171875 C12.04078125 88.38820313 11.48390625 89.0146875 10.91015625 89.66015625 C2.50075401 98.57567993 -6.89217274 102.3984441 -18.40234375 105.76171875 C-19.05589844 105.96667969 -19.70945312 106.17164063 -20.3828125 106.3828125 C-34.9649217 109.1187208 -49.96149737 105.50568267 -62.40234375 97.76171875 C-65.99088931 94.9894518 -69.22010875 91.98815146 -72.40234375 88.76171875 C-73.06234375 88.11203125 -73.72234375 87.46234375 -74.40234375 86.79296875 C-79.1915278 81.75606829 -81.94790901 76.22562393 -84.40234375 69.76171875 C-84.66345947 69.11678467 -84.9245752 68.47185059 -85.19360352 67.80737305 C-87.50948788 61.64795979 -87.9085832 55.99462155 -87.83984375 49.44921875 C-87.83154541 48.43174561 -87.82324707 47.41427246 -87.81469727 46.3659668 C-87.64634738 38.8824849 -86.79710148 32.52101381 -83.40234375 25.76171875 C-82.91636719 24.76269531 -82.43039063 23.76367188 -81.9296875 22.734375 C-74.43317274 8.6806251 -62.51855613 -1.34053939 -47.40234375 -6.23828125 C-31.14094989 -10.88439378 -14.65406389 -8.56798728 0 0 Z " fill="#020203" transform="translate(238.40234375,212.23828125)"/>
<path d="M0 0 C1.3856163 0.01273453 1.3856163 0.01273453 2.79922485 0.02572632 C5.73455014 0.0591744 8.66707511 0.13443586 11.6015625 0.2109375 C13.59761643 0.24104829 15.59371364 0.26842214 17.58984375 0.29296875 C22.46982039 0.35893745 27.34771756 0.46239838 32.2265625 0.5859375 C31.90349121 1.66335205 31.58041992 2.7407666 31.24755859 3.85083008 C28.43311226 14.14691197 29.3321483 26.05884248 34.2265625 35.5859375 C37.38574345 41.00231523 41.20197257 44.43150372 46.28125 48.078125 C55.7195738 55.15486087 64.58849481 62.36944455 66.38427734 74.64208984 C67.73494517 89.26113048 66.50041527 104.0074002 65.2265625 118.5859375 C50.3765625 118.5859375 35.5265625 118.5859375 20.2265625 118.5859375 C20.18456862 111.00370912 20.14450399 103.42190441 20.12306213 95.83966064 C20.1125215 92.30842082 20.09844624 88.77727774 20.07568359 85.24609375 C20.0497029 81.19009489 20.04007212 77.13419775 20.03125 73.078125 C20.02092743 71.81853973 20.01060486 70.55895447 19.99996948 69.26119995 C19.99981842 68.08042877 19.99966736 66.89965759 19.99951172 65.68310547 C19.9950705 64.64830048 19.99062927 63.61349548 19.98605347 62.54733276 C20.25025782 59.29417626 21.14408902 56.6539479 22.2265625 53.5859375 C22.67591601 48.93148878 22.67591601 48.93148878 21.1640625 44.6484375 C18.10680074 42.9718746 15.6359337 43.22064773 12.2265625 43.5859375 C8.81947052 45.96431813 8.42524695 48.974622 7.6015625 52.8984375 C7.36179687 54.00832031 7.12203125 55.11820312 6.875 56.26171875 C6.27005593 59.36296817 5.73956147 62.4684193 5.2265625 65.5859375 C-3.61444382 65.65568373 -12.45535431 65.70887307 -21.2965765 65.74137402 C-25.40265106 65.75697888 -29.50853631 65.77812148 -33.61450195 65.81225586 C-37.58268131 65.84503544 -41.55067946 65.86282939 -45.51898384 65.87056923 C-47.02713431 65.87607957 -48.53527573 65.88683935 -50.04334831 65.90312767 C-68.98346705 66.09941705 -68.98346705 66.09941705 -74.50401306 60.98161316 C-74.92292313 60.52104019 -75.34183319 60.06046722 -75.7734375 59.5859375 C-74.96519531 59.19921875 -74.15695313 58.8125 -73.32421875 58.4140625 C-71.72126953 57.63289063 -71.72126953 57.63289063 -70.0859375 56.8359375 C-69.03019531 56.32546875 -67.97445312 55.815 -66.88671875 55.2890625 C-63.71943988 53.68202053 -63.71943988 53.68202053 -61.07421875 51.3671875 C-58.7734375 49.5859375 -58.7734375 49.5859375 -55.6484375 49.8359375 C-54.3696875 50.0834375 -53.0909375 50.3309375 -51.7734375 50.5859375 C-41.03021682 51.37806437 -32.22710495 49.69316038 -23.8203125 42.6875 C-16.95620538 35.6400007 -14.62939079 28.75750028 -14.6484375 19.1484375 C-14.64585937 17.85035156 -14.64328125 16.55226563 -14.640625 15.21484375 C-14.59541581 11.70201633 -14.59541581 11.70201633 -15.65625 8.98828125 C-15.7734375 6.5859375 -15.7734375 6.5859375 -13.39160156 3.47241211 C-9.29917538 -0.42656979 -5.41642633 -0.18894725 0 0 Z " fill="#D1D1FC" transform="translate(153.7734375,378.4140625)"/>
<path d="M0 0 C4.16078591 3.56638792 8.1242948 7.04904875 12.0625 10.8125 C18.70538897 16.89414766 29.70345298 26.86882194 39 27.0625 C52.77839291 24.50113209 64.76102556 11.55048298 74.1015625 1.87109375 C76 0 76 0 77 0 C77 30.69 77 61.38 77 93 C51.59 93 26.18 93 0 93 C0 62.31 0 31.62 0 0 Z " fill="#B8EFFE" transform="translate(234,404)"/>
<path d="M0 0 C16.04616417 3.39119964 27.57813228 10.20387184 37.46875 23.546875 C43.12910685 32.61499772 46.26459285 42.85563126 46.22705078 53.51757812 C46.22734283 54.22100342 46.22763489 54.92442871 46.22793579 55.64916992 C46.22655732 57.94332805 46.21106727 60.23714956 46.1953125 62.53125 C46.19157708 64.13407209 46.18873261 65.73689648 46.18673706 67.33972168 C46.17914225 71.53514028 46.15952997 75.73041791 46.1373291 79.92578125 C46.11678069 84.21612644 46.1077162 88.50649466 46.09765625 92.796875 C46.0762797 101.19798098 46.04219458 109.5989729 46 118 C44.24859897 117.84982604 42.49742001 117.69706086 40.74633789 117.54321289 C39.77112686 117.45842178 38.79591583 117.37363068 37.79115295 117.28627014 C21.75319298 115.64136241 6.43637488 108.73467657 -7.0625 100.1875 C-7.65240723 99.81471924 -8.24231445 99.44193848 -8.85009766 99.05786133 C-11.72154475 97.15119626 -12.8797984 96.3606048 -14 93 C-12.671875 90.765625 -12.671875 90.765625 -10.75 88.25 C-6.22537983 82.02751836 -3.07358238 77.02895271 -4 69 C-5.80774366 66.37877169 -8.12768348 65.28759017 -11 64 C-10.01 64 -9.02 64 -8 64 C-8 49.48 -8 34.96 -8 20 C-6.02 19.01 -4.04 18.02 -2 17 C-0.47893366 13.95786733 -0.62570662 10.71952428 -0.4375 7.375 C-0.39431641 6.66859375 -0.35113281 5.9621875 -0.30664062 5.234375 C-0.20055249 3.48981463 -0.09977111 1.74493303 0 0 Z " fill="#D3928A" transform="translate(385,89)"/>
<path d="M0 0 C13.17481401 8.93509942 23.09534444 22.06617323 26.59765625 37.76171875 C26.86909079 41.24595762 26.87744935 44.7059772 26.84765625 48.19921875 C26.85925781 49.55370117 26.85925781 49.55370117 26.87109375 50.93554688 C26.83084227 64.8323706 21.86781595 77.41270426 12.59765625 87.76171875 C12.04078125 88.38820313 11.48390625 89.0146875 10.91015625 89.66015625 C2.50075401 98.57567993 -6.89217274 102.3984441 -18.40234375 105.76171875 C-19.05589844 105.96667969 -19.70945312 106.17164063 -20.3828125 106.3828125 C-34.9649217 109.1187208 -49.96149737 105.50568267 -62.40234375 97.76171875 C-65.99088931 94.9894518 -69.22010875 91.98815146 -72.40234375 88.76171875 C-73.06234375 88.11203125 -73.72234375 87.46234375 -74.40234375 86.79296875 C-79.1915278 81.75606829 -81.94790901 76.22562393 -84.40234375 69.76171875 C-84.66345947 69.11678467 -84.9245752 68.47185059 -85.19360352 67.80737305 C-87.50948788 61.64795979 -87.9085832 55.99462155 -87.83984375 49.44921875 C-87.83154541 48.43174561 -87.82324707 47.41427246 -87.81469727 46.3659668 C-87.64634738 38.8824849 -86.79710148 32.52101381 -83.40234375 25.76171875 C-82.91636719 24.76269531 -82.43039063 23.76367188 -81.9296875 22.734375 C-74.43317274 8.6806251 -62.51855613 -1.34053939 -47.40234375 -6.23828125 C-31.14094989 -10.88439378 -14.65406389 -8.56798728 0 0 Z M-63.65234375 22.07421875 C-72.28570118 32.72763753 -73.49536243 44.52642275 -72.40234375 57.76171875 C-70.20077729 69.52551063 -63.14231827 78.95220613 -53.40234375 85.76171875 C-42.3675505 91.75247852 -30.52951209 93.97129659 -18.15234375 90.63671875 C-5.37030264 86.14516407 2.48611123 78.70065817 8.37768555 66.73632812 C12.69088895 57.62941864 13.08741938 46.49544811 10.9140625 36.671875 C9.97935706 34.2168188 8.91708252 32.03178755 7.59765625 29.76171875 C7.16195312 28.98570312 6.72625 28.2096875 6.27734375 27.41015625 C-0.57547869 16.21346823 -10.77093471 9.85512505 -23.40234375 6.76171875 C-39.66088151 5.04171754 -52.6093441 10.19251027 -63.65234375 22.07421875 Z " fill="#656DAF" transform="translate(238.40234375,212.23828125)"/>
<path d="M0 0 C5.1798908 4.18799682 9.58817064 8.7270963 13.984375 13.73046875 C14.64953125 14.47941406 15.3146875 15.22835938 16 16 C16.495 16.60585938 16.99 17.21171875 17.5 17.8359375 C18.95013439 19.22657599 18.95013439 19.22657599 21.015625 18.87109375 C21.75296875 18.72800781 22.4903125 18.58492188 23.25 18.4375 C25.63671875 18.30859375 25.63671875 18.30859375 28 19 C30.97682847 22.69256865 33.01337035 26.70734687 35 31 C34.505 31.495 34.01 31.99 33.5 32.5 C31.41638239 35.97269602 31.48174036 39.09651249 32 43 C33.12218086 46.54598816 33.12218086 46.54598816 34.75 50 C40.21691418 62.81383849 42.46610793 75.11880623 43 89 C33.1 89 23.2 89 13 89 C12.443125 85.968125 11.88625 82.93625 11.3125 79.8125 C9.72151981 71.60670858 7.96859827 63.43956666 4 56 C0.53076119 53.68717413 -0.92205575 53.57521414 -5 54 C-6.76544466 55.21333248 -6.76544466 55.21333248 -8 57 C-7.89369554 63.59087623 -6.09067137 69.29780998 -3.9375 75.49609375 C-3 79 -3 79 -2 89 C-12.56 89 -23.12 89 -34 89 C-34.18401803 82.00475908 -34.34312629 75.01795311 -34.43945312 68.0222168 C-34.47961093 65.64464833 -34.53415065 63.26727652 -34.60351562 60.89038086 C-34.70090282 57.46679146 -34.7460045 54.04581853 -34.78125 50.62109375 C-34.82254028 49.56353378 -34.86383057 48.50597382 -34.90637207 47.41636658 C-34.910759 40.15252552 -34.910759 40.15252552 -32.30763245 36.85838318 C-30.28402174 35.08390675 -28.21123508 33.53105819 -26 32 C-15.7969711 22.52253937 -5.76653455 12.88990075 0 0 Z " fill="#EBE9FB" transform="translate(360,408)"/>
<path d="M0 0 C8.51941224 5.15263421 14.32809788 11.75576348 17.2734375 21.375 C18.8143422 31.85734488 17.4079333 40.47930099 11.2734375 49.375 C6.5572965 55.59433923 0.11192524 60.55802925 -7.77490234 61.66162109 C-17.32927655 62.48674325 -25.70237174 62.12699417 -33.7265625 56.375 C-34.30535156 55.99085938 -34.88414063 55.60671875 -35.48046875 55.2109375 C-42.16124543 50.28825995 -46.00311898 42.32935469 -47.7265625 34.375 C-48.88418087 25.67874494 -46.86392665 17.77985926 -41.7734375 10.6328125 C-31.27792031 -1.73428294 -15.38163695 -7.35865688 0 0 Z " fill="#FDC9BC" transform="translate(87.7265625,332.625)"/>
<path d="M0 0 C7.17422108 3.96791782 12.18079257 9.70582904 14.6875 17.5625 C15.7844176 28.12352061 14.41687417 35.98367936 7.9375 44.375 C3.19320053 49.56483014 -3.06466859 52.12650557 -9.9765625 52.8359375 C-18.57582752 53.1308991 -24.94336632 51.5771568 -31.3828125 45.66015625 C-38.19027165 38.24031061 -39.82896651 32.21161559 -39.59375 22.1953125 C-39.07243199 15.46162158 -36.93177757 10.22070553 -32.29296875 5.23828125 C-22.53855338 -3.01545483 -11.69579761 -5.19975062 0 0 Z " fill="#B6ECFA" transform="translate(220.3125,236.4375)"/>
<path d="M0 0 C4.54177982 3.78895293 8.22426924 7.36050854 9.078125 13.4375 C9.08785015 21.6260786 8.49909445 26.27527664 2.87890625 32.21875 C-4.72287695 39.43146556 -12.27091043 40.9455104 -22.47753906 40.90454102 C-30.68097307 40.64091937 -37.1397494 38.04651652 -43.34765625 32.60546875 C-48.23659209 27.35395633 -49.88282647 21.75578351 -49.65625 14.6484375 C-48.84739142 8.47169922 -45.92443566 4.50193368 -41.23046875 0.5390625 C-29.17880183 -8.05805494 -12.26320913 -8.58221269 0 0 Z " fill="#FF8E9E" transform="translate(382.35546875,285.6484375)"/>
<path d="M0 0 C2.12590054 1.58100953 4.04631666 3.20472342 6 5 C2.98968256 5.93423645 2.13349732 6.04449911 -1 5 C-2.40824893 4.91978001 -3.81997231 4.89234023 -5.23046875 4.90234375 C-6.43413086 4.90717773 -6.43413086 4.90717773 -7.66210938 4.91210938 C-8.49548828 4.92048828 -9.32886719 4.92886719 -10.1875 4.9375 C-11.03248047 4.94201172 -11.87746094 4.94652344 -12.74804688 4.95117188 C-14.83206155 4.96294597 -16.91603977 4.9808811 -19 5 C-19.33 5.66 -19.66 6.32 -20 7 C-20.84433594 6.84273437 -21.68867188 6.68546875 -22.55859375 6.5234375 C-36.00037204 4.47894455 -47.73052582 6.17402124 -58.875 14.25 C-66.74179091 20.90206584 -72.28267237 28.75087326 -74 39 C-74.07649781 40.61961498 -74.10811681 42.24189445 -74.09765625 43.86328125 C-74.09443359 44.74951172 -74.09121094 45.63574219 -74.08789062 46.54882812 C-74.07951172 47.46083984 -74.07113281 48.37285156 -74.0625 49.3125 C-74.05798828 50.24384766 -74.05347656 51.17519531 -74.04882812 52.13476562 C-74.03709234 54.42324373 -74.02067363 56.71158808 -74 59 C-74.66 59 -75.32 59 -76 59 C-76.20894534 72.53705542 -76.20894534 72.53705542 -75 86 C-84.30440937 77.49311143 -89.69994507 65.99271956 -90.453125 53.40234375 C-90.77008188 43.13730106 -90.69540571 33.34901256 -86 24 C-85.51402344 23.00097656 -85.02804688 22.00195312 -84.52734375 20.97265625 C-77.03082899 6.91890635 -65.11621238 -3.10225814 -50 -8 C-32.5813037 -12.97677037 -15.218205 -9.86785764 0 0 Z " fill="#4A5496" transform="translate(241,214)"/>
<path d="M0 0 C3.9460492 1.19594756 7.83536771 2.51973216 11.73046875 3.87109375 C15.65910519 5.12491389 18.94515887 5.80859375 23.0859375 5.80859375 C29.7536575 5.80859375 34.63954533 5.93424088 39.73046875 10.74609375 C40.51421875 11.56078125 41.29796875 12.37546875 42.10546875 13.21484375 C55.7404798 27.01613542 75.03890711 36.08692512 92.85302734 43.00585938 C94.66796875 43.80859375 94.66796875 43.80859375 97.66796875 45.80859375 C84.32884284 46.17152518 71.67172884 45.97082933 58.66796875 42.80859375 C57.97928711 42.64230469 57.29060547 42.47601563 56.58105469 42.3046875 C36.35551319 37.24596012 17.6555938 27.90657515 0.91796875 15.55859375 C0.22558105 15.05102539 -0.46680664 14.54345703 -1.18017578 14.02050781 C-1.82325684 13.53291992 -2.46633789 13.04533203 -3.12890625 12.54296875 C-3.69963867 12.11209961 -4.27037109 11.68123047 -4.85839844 11.23730469 C-6.5584576 9.58906973 -7.38882974 7.96563457 -8.33203125 5.80859375 C-7.45635352 4.77041912 -6.55550334 3.75344072 -5.64453125 2.74609375 C-4.89623047 1.89337891 -4.89623047 1.89337891 -4.1328125 1.0234375 C-2.33203125 -0.19140625 -2.33203125 -0.19140625 0 0 Z " fill="#FBC8BB" transform="translate(177.33203125,327.19140625)"/>
<path d="M0 0 C0.01213028 0.88631104 0.01213028 0.88631104 0.02450562 1.79052734 C0.11153913 8.0216786 0.21106619 14.25254705 0.31738281 20.48339844 C0.35532413 22.79910477 0.39023297 25.11486309 0.421875 27.43066406 C0.601454 40.41647016 0.93657646 53.15876493 3 66 C-5.83106611 64.84761741 -12.05919163 61.78949528 -18 55 C-18.680625 54.278125 -19.36125 53.55625 -20.0625 52.8125 C-26.07416392 44.08589108 -27.69756317 34.39659657 -26 24 C-22.78732356 13.97599543 -17.00670366 6.90612401 -7.75 2.0625 C-4.81025203 0.6428391 -3.29651606 0 0 0 Z " fill="#F9C6BA" transform="translate(100,183)"/>
<path d="M0 0 C9.42575345 1.72102986 16.61116338 8.26343094 22 16 C26.45388307 24.58156625 27.274508 32.75183421 24.875 42.0625 C21.94361343 50.74758488 16.97017424 57.39967136 9 62 C0.50155763 66 0.50155763 66 -3 66 C-2.85739034 63.49977963 -2.71098536 60.9998729 -2.5625 58.5 C-2.52318359 57.80390625 -2.48386719 57.1078125 -2.44335938 56.390625 C-2.40146484 55.69453125 -2.35957031 54.9984375 -2.31640625 54.28125 C-2.27974854 53.65283203 -2.24309082 53.02441406 -2.20532227 52.37695312 C-2.03140504 50.36356657 -1.77467597 48.35759905 -1.5 46.35546875 C-0.89241691 41.58433022 -0.77511445 36.83610029 -0.68359375 32.03125 C-0.66281265 31.11033569 -0.64203156 30.18942139 -0.62062073 29.24060059 C-0.55574882 26.32713575 -0.49653318 23.41358839 -0.4375 20.5 C-0.39425533 18.51301263 -0.35063924 16.52603331 -0.30664062 14.5390625 C-0.20013228 9.6927908 -0.09869316 4.8464369 0 0 Z " fill="#FBC8BB" transform="translate(446,183)"/>
<path d="M0 0 C10.23 0 20.46 0 31 0 C29.95173148 2.62067131 28.8969898 5.23936665 27.78125 7.83203125 C27.3584375 8.81558594 26.935625 9.79914063 26.5 10.8125 C26.0771875 11.78832031 25.654375 12.76414063 25.21875 13.76953125 C22.24090879 21.66271934 21.61358752 28.67559866 21.625 37.0625 C21.62516113 38.16561523 21.62532227 39.26873047 21.62548828 40.40527344 C21.76245314 50.24655882 23.36683322 58.6425254 27.140625 67.75390625 C28 70 28 70 27.875 72.1875 C26.72249569 74.57483036 25.35648308 74.92586012 23 76 C8.97541247 53.01424745 0 27.08943079 0 0 Z " fill="#F9C6BA" transform="translate(115,223)"/>
<path d="M0 0 C0.86371216 0.10610596 0.86371216 0.10610596 1.74487305 0.21435547 C10.26427384 1.13201549 18.73901423 1.15205371 27.29614258 1.13037109 C29.79710006 1.12503287 32.29787623 1.13033313 34.79882812 1.13671875 C44.2487013 1.14022325 53.58182961 0.84543028 63 0 C61.38342724 4.36277669 59.22549157 7.38373979 56.0625 10.75 C55.57740967 11.27078125 55.09231934 11.7915625 54.5925293 12.328125 C47.64849583 19.63598418 40.30264395 25.96300357 31 30 C19.61138496 23.02319079 6.70078815 13.9329104 0 2 C0 1.34 0 0.68 0 0 Z " fill="#F8C5B9" transform="translate(241,386)"/>
<path d="M0 0 C1.66796875 1.70703125 1.66796875 1.70703125 3.1875 3.8125 C3.69667969 4.49957031 4.20585937 5.18664062 4.73046875 5.89453125 C7.02658688 9.70255486 7.20333008 13.2919742 7.3125 17.6875 C7.34988281 18.66074219 7.38726562 19.63398438 7.42578125 20.63671875 C6.34037854 29.21040435 1.99020147 34.71506414 -4.1875 40.4375 C-5.45367254 41.64259085 -6.71808658 42.8495329 -7.98046875 44.05859375 C-8.81421021 44.83674438 -8.81421021 44.83674438 -9.66479492 45.63061523 C-11.11761626 46.98172058 -11.11761626 46.98172058 -12 49 C-12.66 49 -13.32 49 -14 49 C-14 33.82 -14 18.64 -14 3 C-4 -1 -4 -1 0 0 Z " fill="#CCCCF5" transform="translate(340,377)"/>
<path d="M0 0 C3.65579485 1.1373584 7.2276405 2.53067769 10.8125 3.875 C10.8125 19.055 10.8125 34.235 10.8125 49.875 C-8.96624232 32.92179229 -8.96624232 32.92179229 -10.58984375 20.89453125 C-11.00784538 12.85054874 -8.9354711 7.1679567 -3.65625 1.12109375 C-2.1875 -0.125 -2.1875 -0.125 0 0 Z " fill="#999DDD" transform="translate(208.1875,376.125)"/>
<path d="M0 0 C3.50093289 0.75540963 4.66507119 1.55113116 6.625 4.56640625 C6.95138734 7.32490567 6.81134339 9.77125537 6.625 12.56640625 C7.7696875 12.72109375 7.7696875 12.72109375 8.9375 12.87890625 C11.92240522 13.64248666 12.98174426 13.97179192 14.625 16.56640625 C15.11423189 20.41037113 15.35219996 22.60509593 12.96875 25.75585938 C10.01623276 28.03667894 8.38977166 28.08163901 4.6875 28.09765625 C2.97433594 28.10539062 2.97433594 28.10539062 1.2265625 28.11328125 C0.03804688 28.0978125 -1.15046875 28.08234375 -2.375 28.06640625 C-3.56351562 28.081875 -4.75203125 28.09734375 -5.9765625 28.11328125 C-7.11867188 28.108125 -8.26078125 28.10296875 -9.4375 28.09765625 C-10.48035156 28.09314453 -11.52320313 28.08863281 -12.59765625 28.08398438 C-16.06642344 27.43755448 -17.24109335 26.32978114 -19.375 23.56640625 C-20.1015625 20.34375 -20.1015625 20.34375 -19.375 16.56640625 C-17.18279459 13.38069275 -14.53673184 10.79606729 -11.75 8.12890625 C-11.03714844 7.39736328 -10.32429688 6.66582031 -9.58984375 5.91210938 C-4.30879982 0.72312034 -4.30879982 0.72312034 0 0 Z " fill="#030202" transform="translate(343.375,251.43359375)"/>
<path d="M0 0 C5.9053795 0.36581997 8.50600669 1.73981515 12.6796875 5.8828125 C13.17792023 6.37530487 13.67615295 6.86779724 14.18948364 7.37521362 C15.23364132 8.41530787 16.2703387 9.46294024 17.29980469 10.51757812 C18.87103222 12.12095105 20.47173259 13.68976116 22.078125 15.2578125 C23.09307505 16.27672775 24.1061621 17.29750287 25.1171875 18.3203125 C26.03097168 19.24086426 26.94475586 20.16141602 27.88623047 21.10986328 C30.38940003 24.53242291 30.87742132 26.79105477 31 31 C29.4375 34.0625 29.4375 34.0625 27 37 C26.52820313 37.57492187 26.05640625 38.14984375 25.5703125 38.7421875 C24.0625 40.4375 24.0625 40.4375 21 43 C16.57642457 43.22117877 13.29214421 40.78905515 10 38 C9.06575048 35.15601251 8.98828601 32.35188767 8.875 29.375 C8.20662331 20.4158891 6.63937933 13.39224888 1.1875 6.0625 C0.465625 5.051875 -0.25625 4.04125 -1 3 C-0.67 2.01 -0.34 1.02 0 0 Z " fill="#E8E7F8" transform="translate(110,329)"/>
<path d="M0 0 C4.49407656 2.24703828 6.83790609 4.43557953 9 9 C9.74234343 14.3988613 9.95206093 19.94580453 7.5 24.9375 C3.84641387 29.41314301 0.3117161 32.35342686 -5.4609375 33.48046875 C-11.00435393 33.79601707 -14.77496891 32.57148523 -19.40625 29.58203125 C-21.40390184 27.59906803 -22.11126781 25.64397826 -23 23 C-22.154375 22.47792969 -21.30875 21.95585937 -20.4375 21.41796875 C-12.46880525 16.3139604 -7.08368268 11.13922949 -2 3 C-1.34 2.01 -0.68 1.02 0 0 Z " fill="#F9D7CA" transform="translate(116,382)"/>
<path d="M0 0 C0.66 0.33 1.32 0.66 2 1 C4.07564676 1.19758231 4.07564676 1.19758231 6.375 1.1875 C7.14585937 1.20167969 7.91671875 1.21585938 8.7109375 1.23046875 C11.23803423 0.9760341 12.77985682 0.19017985 15 -1 C19.0794407 -1.60757627 20.52298079 -1.33492838 23.9375 1.0625 C26 4 26 4 26.3125 7.5 C24.494149 12.348936 21.5613775 13.85242538 17 16 C10.69533453 18.10155516 3.16093888 18.09997496 -3.109375 15.91796875 C-9.07192029 12.92807971 -9.07192029 12.92807971 -11 11 C-11.57803468 3.94797688 -11.57803468 3.94797688 -9.4375 0.4375 C-5.98386566 -1.59925871 -3.80968111 -0.91714545 0 0 Z " fill="#060505" transform="translate(328,232)"/>
<path d="M0 0 C2.77545391 1.09336063 5.48670831 2.22903921 8.1875 3.5 C14.31884286 6.12771837 20.69512189 6.96101236 27.3125 7.1875 C30.26557711 7.42002576 31.550593 7.5819 33.73828125 9.6171875 C35.125 11.5625 35.125 11.5625 37 15 C36.5 16.8125 36.5 16.8125 35 19 C28.02049212 22.42853019 21.37234999 23.26775743 13.875 20.9375 C8.62673418 18.69572578 4.55874456 14.96272016 1.8984375 9.90625 C0.51422907 6.43926065 0 3.7492928 0 0 Z " fill="#EBE9FB" transform="translate(46,402)"/>
<path d="M0 0 C3.7352474 1.24508247 4.60058531 2.94619949 7 6 C9.12603185 7.76323505 9.12603185 7.76323505 11 9 C10.10649818 14.30896936 6.365918 17.14784595 2.6875 20.8125 C2.01009766 21.51826172 1.33269531 22.22402344 0.63476562 22.95117188 C-0.35426758 23.94407227 -0.35426758 23.94407227 -1.36328125 24.95703125 C-1.96438721 25.56522705 -2.56549316 26.17342285 -3.18481445 26.80004883 C-5 28 -5 28 -7.09350586 27.80566406 C-9.74053353 26.68705844 -11.27654024 25.00963274 -13.25 22.9375 C-13.95640625 22.20402344 -14.6628125 21.47054688 -15.390625 20.71484375 C-15.92171875 20.14894531 -16.4528125 19.58304687 -17 19 C-15.60652624 15.84795019 -13.97514921 13.73828227 -11.5234375 11.328125 C-10.51796875 10.33232422 -10.51796875 10.33232422 -9.4921875 9.31640625 C-8.79351562 8.63449219 -8.09484375 7.95257813 -7.375 7.25 C-6.66859375 6.55261719 -5.9621875 5.85523438 -5.234375 5.13671875 C-3.49401297 3.41987512 -1.74915019 1.70788168 0 0 Z " fill="#979BD9" transform="translate(151,308)"/>
<path d="M0 0 C2.64708201 1.99993089 4.65120717 3.6057135 5.48120117 6.92358398 C5.67318739 9.13642385 5.68251388 11.27996406 5.625 13.5 C5.64433594 14.24636719 5.66367188 14.99273437 5.68359375 15.76171875 C5.6464855 19.95495063 5.32407568 21.58641257 2.65234375 24.99609375 C0 27 0 27 -3.0625 27.5625 C-6.81853027 26.84326016 -7.75944613 26.10266973 -10 23 C-10.59506415 19.82366967 -10.5583324 16.72286527 -10.5 13.5 C-10.51546875 12.64535156 -10.5309375 11.79070312 -10.546875 10.91015625 C-10.50814496 4.70366797 -10.50814496 4.70366797 -8.15234375 1.44140625 C-5.1557063 -0.56541629 -3.53738038 -0.64972293 0 0 Z " fill="#050708" transform="translate(210,249)"/>
<path d="M0 0 C0.33 0 0.66 0 1 0 C1 12.21 1 24.42 1 37 C-2.96 37 -6.92 37 -11 37 C-10.41860289 31.36297582 -9.38798665 26.16959659 -7.75 20.75 C-7.53255127 20.0185376 -7.31510254 19.2870752 -7.09106445 18.53344727 C-5.14786367 12.16178318 -2.74892922 6.07103944 0 0 Z " fill="#EEECFF" transform="translate(217,460)"/>
<path d="M0 0 C3.80470451 0.7133821 5.41196019 1.67868421 8 4.5625 C9.0625 8 9.0625 8 9 11.5625 C7.23358828 14.36439446 5.96950178 16.07774911 3 17.5625 C-1.0130324 18.09757099 -2.53928033 17.89301628 -5.875 15.5 C-8 12.5625 -8 12.5625 -8.625 9.0625 C-7.67703424 3.75389177 -5.38444917 1.00958422 0 0 Z " fill="#060608" transform="translate(196,459.4375)"/>
<path d="M0 0 C4.61586002 3.95645145 8.80181 7.69941512 13 12 C11.37983645 15.70700465 9.06115893 18.57336358 6.5 21.6875 C5.7059375 22.66074219 4.911875 23.63398438 4.09375 24.63671875 C2 27 2 27 0 28 C0 18.76 0 9.52 0 0 Z " fill="#7BE1FD" transform="translate(234,404)"/>
<path d="M0 0 C5.76255052 0.16883906 8.25522844 1.59138984 12.23632812 5.70898438 C12.79771484 6.32064453 13.35910156 6.93230469 13.9375 7.5625 C14.52595703 8.17802734 15.11441406 8.79355469 15.72070312 9.42773438 C17.16121864 10.93851894 18.58260249 12.46750555 20 14 C19.01 14.66 18.02 15.32 17 16 C13.41129065 18.78308072 10.84608034 20.84852747 9 25 C8.67128906 23.74896484 8.67128906 23.74896484 8.3359375 22.47265625 C6.43648281 15.73190849 4.39537137 10.34999231 0.07421875 4.8046875 C-0.28027344 4.20914062 -0.63476562 3.61359375 -1 3 C-0.67 2.01 -0.34 1.02 0 0 Z " fill="#CBCBF3" transform="translate(110,329)"/>
<path d="M0 0 C2.86555352 1.12885442 5.68665048 2.30654039 8.5 3.5625 C11.40727333 4.75655869 13.9127345 5.5322325 17 6 C16.09276387 10.68738665 15.0452733 15.34193744 14 20 C8.39293162 18.6407107 5.25088011 14.49090654 2 10 C0.33248544 6.22996708 0 4.15121378 0 0 Z " fill="#CECEF8" transform="translate(46,402)"/>
</svg>
