<?xml version="1.0" encoding="UTF-8"?>
<svg version="1.1" xmlns="http://www.w3.org/2000/svg" width="512" height="512">
<path d="M0 0 C1.69998196 -0.0032207 3.39996366 -0.00658536 5.09994507 -0.01008606 C8.65534099 -0.01605218 12.21071271 -0.01792865 15.76611328 -0.01733398 C20.28096245 -0.01723272 24.7956531 -0.03085907 29.31046486 -0.04810619 C32.82132656 -0.05932835 36.33215124 -0.06125006 39.84302902 -0.06072426 C41.50528889 -0.06189005 43.16755017 -0.06623115 44.82979202 -0.07405663 C69.99921231 -0.18142604 92.0607556 4.05894649 111.5859375 21.16796875 C112.27429688 21.7609375 112.96265625 22.35390625 113.671875 22.96484375 C128.44522905 36.62873643 136.26101385 56.51178567 137.83203125 76.26171875 C137.93675814 80.45079436 137.96040762 83.57988057 135.5859375 87.16796875 C131.5859375 89.16796875 131.5859375 89.16796875 112.5859375 89.16796875 C112.9159375 104.01796875 113.2459375 118.86796875 113.5859375 134.16796875 C117.5459375 135.15796875 121.5059375 136.14796875 125.5859375 137.16796875 C133.14769657 142.04961068 137.08051155 146.91850486 140.8984375 154.91796875 C142.98077907 164.76176527 141.84846106 173.51105645 136.5859375 182.16796875 C130.03197252 189.77546829 123.23141067 193.20983998 113.30859375 194.0546875 C112.45587891 194.11076172 112.45587891 194.11076172 111.5859375 194.16796875 C111.61945313 195.32296875 111.65296875 196.47796875 111.6875 197.66796875 C111.68182573 201.97284911 110.98865799 205.99695157 109.9609375 210.16796875 C109.78199951 210.89999512 109.60306152 211.63202148 109.41870117 212.38623047 C104.79245876 230.5594999 96.80882931 245.90792831 84.5859375 260.16796875 C84.0703125 260.82796875 83.5546875 261.48796875 83.0234375 262.16796875 C75.31687709 271.72410365 63.01612842 281.67914354 51.453125 285.95703125 C49.1995625 286.74589732 49.1995625 286.74589732 46.5859375 289.16796875 C46.00976914 292.31787396 46.00976914 292.31787396 45.90234375 295.8203125 C45.8360376 297.00488037 45.76973145 298.18944824 45.70141602 299.40991211 C45.66330811 300.3200708 45.6252002 301.23022949 45.5859375 302.16796875 C46.87056885 302.15749512 48.1552002 302.14702148 49.47875977 302.13623047 C54.31515639 302.09960863 59.15154117 302.0769172 63.98803711 302.05810547 C66.06813631 302.04814285 68.14822186 302.03456787 70.22827148 302.01708984 C89.87906921 301.85628909 108.94380913 302.23716644 126.46484375 312.3125 C128.52835175 313.32519942 128.52835175 313.32519942 130.66796875 313.01953125 C133.04952091 311.96214149 134.08401798 310.76207428 135.7109375 308.73046875 C151.5346105 290.00245071 171.98632084 277.69868028 195.5859375 271.16796875 C197.30683594 270.6884375 197.30683594 270.6884375 199.0625 270.19921875 C228.50267478 263.39078433 261.85639926 268.26659169 287.5859375 284.16796875 C317.35127904 302.93152735 336.0463242 329.87552247 344.14038086 363.91479492 C350.52471499 396.20028515 343.3512852 429.00890878 325.34350586 456.24291992 C315.99610577 469.83340949 303.76147486 481.73131676 289.5859375 490.16796875 C288.9563916 490.54501953 288.3268457 490.92207031 287.67822266 491.31054688 C259.15394031 508.13273719 226.00569679 511.91279389 194.0234375 504.04296875 C193.32919678 503.87974121 192.63495605 503.71651367 191.91967773 503.54833984 C188.09360025 502.52393985 184.89142053 501.35440422 181.48456955 499.27521229 C167.92655463 491.12327433 153.24396308 492.0550862 137.95601654 492.19887793 C133.95341739 492.22756257 129.95097888 492.20937668 125.94833374 492.19708252 C119.03104734 492.18197374 112.11430677 492.19545447 105.19709015 492.22862816 C95.19089161 492.27630887 85.18511382 492.27654841 75.17882845 492.26506094 C58.93293354 492.24740204 42.68725801 492.26302434 26.44140625 492.30200195 C10.68294216 492.33969777 -5.07547873 492.36906111 -20.83398438 492.38208008 C-21.80642561 492.38289108 -22.77886684 492.38370208 -23.78077599 492.38453766 C-34.39532587 492.39301038 -45.00987071 492.39751406 -55.62442398 492.39661884 C-57.02300061 492.39650769 -57.02300061 492.39650769 -58.44983132 492.39639429 C-62.17654958 492.39602696 -65.90326769 492.39558946 -69.62998584 492.39461306 C-80.5363317 492.3918154 -91.44249287 492.40149004 -102.34879413 492.43379477 C-109.17985526 492.45366428 -116.01088197 492.46378345 -122.84197149 492.46619751 C-126.78395101 492.46807027 -130.72575858 492.47510116 -134.66769028 492.49529457 C-138.27443534 492.51374613 -141.88092869 492.51853783 -145.48771337 492.512435 C-147.4128811 492.51284977 -149.33802758 492.52822009 -151.26312995 492.54408902 C-152.97616762 492.53730459 -152.97616762 492.53730459 -154.7238121 492.53038311 C-156.20172057 492.53404008 -156.20172057 492.53404008 -157.70948577 492.53777093 C-160.91979011 492.0988196 -162.80634944 491.06136838 -165.4140625 489.16796875 C-166.6084819 486.77912995 -166.54754688 485.2985165 -166.56123352 482.63131714 C-166.56838882 481.6756485 -166.57554413 480.71997986 -166.58291626 479.73535156 C-166.58560516 478.68299316 -166.58829407 477.63063477 -166.59106445 476.54638672 C-166.59763565 475.44038116 -166.60420685 474.33437561 -166.61097717 473.19485474 C-166.63076117 469.51662124 -166.64239023 465.83842888 -166.65234375 462.16015625 C-166.65845704 460.27319723 -166.65845704 460.27319723 -166.66469383 458.34811783 C-166.68342935 452.36587188 -166.69798186 446.38365076 -166.7063058 440.40138328 C-166.71602798 433.52921487 -166.7422057 426.65737289 -166.78280669 419.78531921 C-166.81687333 413.81060928 -166.82847341 407.83605461 -166.83250999 401.86124039 C-166.83735309 399.3345533 -166.84890125 396.80786911 -166.86754799 394.28124619 C-166.98280156 377.61509876 -166.75889739 361.84561956 -158.6640625 346.79296875 C-158.14863892 345.8028479 -158.14863892 345.8028479 -157.62280273 344.79272461 C-154.52570084 339.02665584 -150.85258817 333.98549567 -146.4140625 329.16796875 C-145.70378906 328.389375 -144.99351562 327.61078125 -144.26171875 326.80859375 C-129.44057732 311.28416442 -109.20157828 302.78891225 -87.79959106 302.08155823 C-84.95047505 302.05317409 -82.10312121 302.05533148 -79.25390625 302.0703125 C-78.22342667 302.07172745 -77.19294708 302.0731424 -76.13124084 302.07460022 C-72.87131731 302.08015428 -69.61146493 302.09269805 -66.3515625 302.10546875 C-64.12825621 302.11048969 -61.90494883 302.11505156 -59.68164062 302.11914062 C-54.2590907 302.13010862 -48.83658169 302.14680035 -43.4140625 302.16796875 C-43.47875976 300.39504989 -43.57083875 298.62311509 -43.67456055 296.85205078 C-43.74709297 295.37189987 -43.74709297 295.37189987 -43.8210907 293.86184692 C-44.17455614 291.0771245 -44.17455614 291.0771245 -46.22619629 289.40994263 C-48.49941808 288.07375338 -50.78827401 287.04663043 -53.2265625 286.04296875 C-54.98015774 285.21985594 -56.73018325 284.38909532 -58.4765625 283.55078125 C-59.75466797 282.94991699 -59.75466797 282.94991699 -61.05859375 282.33691406 C-83.80384809 271.04915724 -100.98408503 246.129263 -109.2265625 222.73046875 C-112.05000994 213.67826734 -114.76123908 203.70618837 -114.4140625 194.16796875 C-115.6928125 194.10609375 -116.9715625 194.04421875 -118.2890625 193.98046875 C-126.96897273 192.97054209 -133.58545491 188.99838788 -139.01171875 182.21875 C-143.55664899 175.57226427 -145.20581749 168.17189193 -144.4140625 160.16796875 C-142.56928261 151.85919635 -139.05511926 144.70631991 -131.9765625 139.79296875 C-125.96728927 136.1377414 -121.44755712 135.08522175 -114.4140625 135.16796875 C-114.42738617 134.4415065 -114.44070984 133.71504425 -114.45443726 132.96656799 C-114.57584352 126.04076969 -114.66660029 119.11513507 -114.72493553 112.18853855 C-114.75593795 108.62937223 -114.7978181 105.07110193 -114.86669922 101.51245117 C-115.28060085 79.53960534 -113.44854923 62.64891444 -100.4140625 44.16796875 C-99.69283203 43.14123047 -99.69283203 43.14123047 -98.95703125 42.09375 C-89.91763865 30.50144537 -75.54088171 23.80575657 -61.4140625 21.16796875 C-59.97720674 21.0920871 -58.53964332 21.02775574 -57.1015625 20.98046875 C-52.36488576 19.93679421 -51.107044 17.98174884 -48.17578125 14.29296875 C-41.35742625 6.0686115 -30.85152425 1.44773537 -20.3782196 0.36723328 C-13.59851053 -0.08853053 -6.79219628 0.00304033 0 0 Z M-124.4140625 156.16796875 C-127.24012124 160.40705685 -127.07418496 164.18921378 -126.4140625 169.16796875 C-124.36298662 172.56285297 -122.70921629 173.97119956 -119.4140625 176.16796875 C-117.7640625 176.16796875 -116.1140625 176.16796875 -114.4140625 176.16796875 C-114.4140625 168.24796875 -114.4140625 160.32796875 -114.4140625 152.16796875 C-119.18357745 152.16796875 -120.68606254 153.33144704 -124.4140625 156.16796875 Z M112.5859375 152.16796875 C112.5859375 160.08796875 112.5859375 168.00796875 112.5859375 176.16796875 C117.55819846 175.17351656 119.08637773 174.57294583 122.5859375 171.16796875 C125.06195082 167.00376454 124.74377392 163.79931443 123.5859375 159.16796875 C121.39475016 155.76785046 119.43571317 153.53401818 115.5859375 152.16796875 C114.5959375 152.16796875 113.6059375 152.16796875 112.5859375 152.16796875 Z " fill="#020100" transform="translate(166.4140625,1.83203125)"/>
<path d="M0 0 C36.63 0 73.26 0 111 0 C111.061875 17.139375 111.12375 34.27875 111.1875 51.9375 C111.21481201 57.31667725 111.24212402 62.69585449 111.27026367 68.23803711 C111.28381348 74.88977051 111.28381348 74.88977051 111.28633118 78.01979065 C111.29088881 80.17072928 111.30133587 82.32166104 111.31672668 84.47254944 C111.42944531 101.07892794 111.29379171 117.47402141 104.25 132.875 C103.72067871 134.07129028 103.72067871 134.07129028 103.18066406 135.29174805 C92.94538732 157.88890328 74.77445579 176.56936424 51.5 185.75 C25.64617689 195.01480828 -0.17222898 196.3538789 -25.56005859 184.70874023 C-51.19462645 172.40741321 -68.05380829 152.67155895 -78.3125 126.4375 C-82.24560747 114.50590369 -83.4425304 103.04742086 -83.29296875 90.53515625 C-83.28735188 89.12170367 -83.28309172 87.70824513 -83.28010559 86.29478455 C-83.26882081 82.63037087 -83.23950186 78.96633179 -83.20599365 75.30206299 C-83.17493276 71.54061954 -83.1615245 67.7791137 -83.14648438 64.01757812 C-83.11461051 56.6782173 -83.06362142 49.33916174 -83 42 C-82.0405397 41.9370575 -81.08107941 41.87411499 -80.09254456 41.80926514 C-78.83296432 41.72364319 -77.57338409 41.63802124 -76.27563477 41.54980469 C-75.02742447 41.46623718 -73.77921417 41.38266968 -72.49317932 41.29656982 C-43.91638039 38.8704086 -20.036127 22.2707476 -1 2 C-0.67 1.34 -0.34 0.68 0 0 Z " fill="#FBC65A" transform="translate(151,91)"/>
<path d="M0 0 C4.7906401 -0.25484867 9.55730088 -0.47266365 14.34936523 -0.60424805 C15.97257582 -0.65911125 17.59525436 -0.73384364 19.21655273 -0.82983398 C33.38918869 -1.64706584 33.38918869 -1.64706584 38.46826172 2.35913086 C41.29301416 4.99229671 43.6600028 7.92985432 46 11 C47.15827074 12.31991524 48.32417957 13.63319418 49.5 14.9375 C49.99563446 15.55407471 50.49126892 16.17064941 51.00192261 16.8059082 C52.98265385 19.12098904 52.98265385 19.12098904 55.71028137 21.01922607 C61.27877358 25.66218318 64.14042452 29.56699141 64.96957397 36.90905762 C65.34069525 43.11660521 65.30122958 49.32172405 65.16133118 55.53656006 C65.07819688 59.33391456 65.05013152 63.12712235 65.04064941 66.92529297 C64.98322194 76.03410828 64.82964635 85.14211283 64.6875 94.25 C64.3471875 124.81625 64.3471875 124.81625 64 156 C17.47 156 -29.06 156 -77 156 C-77.0825 139.809375 -77.165 123.61875 -77.25 106.9375 C-77.28641602 101.85335693 -77.32283203 96.76921387 -77.36035156 91.53100586 C-77.37841797 85.25109863 -77.37841797 85.25109863 -77.3817749 82.29737854 C-77.38785756 80.2646686 -77.4017998 78.23197172 -77.42230225 76.19935608 C-77.6279948 54.70458715 -74.85511364 36.43058362 -59.234375 20.20703125 C-58.12835938 19.11455078 -58.12835938 19.11455078 -57 18 C-56.38640625 17.36449219 -55.7728125 16.72898437 -55.140625 16.07421875 C-45.01752067 6.31883402 -30.82742103 1 -17 1 C-17 8.26 -17 15.52 -17 23 C-18.77375 23.639375 -20.5475 24.27875 -22.375 24.9375 C-32.78207696 29.30650873 -40.33663913 36.6964932 -45 47 C-47.45190337 53.619855 -47.30609372 60.04486367 -47.30078125 67.046875 C-47.30506638 68.29502991 -47.3093515 69.54318481 -47.31376648 70.8291626 C-47.32095555 74.12911154 -47.3178994 77.4288766 -47.31219482 80.7288208 C-47.3126021 83.42620747 -47.33150069 86.1233464 -47.3500185 88.82065964 C-47.3682728 92.04189432 -47.36457176 95.26309787 -47.36328125 98.484375 C-47.372491 99.69373718 -47.38170074 100.90309937 -47.39118958 102.14910889 C-47.38184639 103.82665253 -47.38184639 103.82665253 -47.37231445 105.53808594 C-47.37294388 106.52290955 -47.3735733 107.50773315 -47.3742218 108.5223999 C-47.19680812 111.04536398 -47.19680812 111.04536398 -45.60978699 112.81710815 C-43.46938712 114.38990106 -42.07835447 114.3873103 -39.4375 114.3984375 C-38.55835938 114.40230469 -37.67921875 114.40617187 -36.7734375 114.41015625 C-35.40058594 114.39275391 -35.40058594 114.39275391 -34 114.375 C-32.62714844 114.39240234 -32.62714844 114.39240234 -31.2265625 114.41015625 C-30.34742188 114.40628906 -29.46828125 114.40242188 -28.5625 114.3984375 C-27.75941406 114.39505371 -26.95632812 114.39166992 -26.12890625 114.38818359 C-23.50408364 113.90957488 -22.62113495 113.07986269 -21 111 C-20.33666659 108.25822189 -20.39094515 105.75223844 -21 103 C-24.3145733 99.97788905 -27.67722256 99.66458213 -32 99 C-32.12445087 93.20173802 -32.21473829 87.40426903 -32.2746582 81.60498047 C-32.29966047 79.63609253 -32.333674 77.66729607 -32.37719727 75.69873047 C-32.84655338 53.90956309 -32.84655338 53.90956309 -24.9375 44.5625 C-23.9784375 43.7890625 -23.9784375 43.7890625 -23 43 C-22.360625 42.46375 -21.72125 41.9275 -21.0625 41.375 C-15.32854872 37.55236581 -9.71433768 37.14380929 -3 38 C5.02540059 40.50429772 11.11110514 45.59071187 15.07373047 53.01049805 C16.4085702 57.3186458 16.24590595 61.4110382 16.1953125 65.89453125 C16.1924826 66.84188644 16.18965271 67.78924164 16.18673706 68.76530457 C16.17557187 71.78116666 16.15047389 74.79672816 16.125 77.8125 C16.11496547 79.86132383 16.10584045 81.91015232 16.09765625 83.95898438 C16.07564449 88.97277148 16.04113971 93.98633483 16 99 C15.2371167 99.05333496 14.4742334 99.10666992 13.68823242 99.16162109 C12.69154541 99.23977051 11.6948584 99.31791992 10.66796875 99.3984375 C9.1833313 99.50937744 9.1833313 99.50937744 7.66870117 99.62255859 C4.86613027 99.84087076 4.86613027 99.84087076 2.3125 101.625 C0.47587089 104.94842411 0.52478002 107.26612873 1 111 C2.12280316 112.79325477 2.12280316 112.79325477 4 114 C6.55949448 114.46205033 6.55949448 114.46205033 9.4375 114.3984375 C10.49710937 114.40230469 11.55671875 114.40617187 12.6484375 114.41015625 C14.30746094 114.39275391 14.30746094 114.39275391 16 114.375 C17.10601562 114.38660156 18.21203125 114.39820313 19.3515625 114.41015625 C20.41117187 114.40628906 21.47078125 114.40242188 22.5625 114.3984375 C23.53316406 114.39505371 24.50382812 114.39166992 25.50390625 114.38818359 C28.50381592 113.92164835 29.19307334 113.39723632 31 111 C31.46911551 108.44433157 31.46911551 108.44433157 31.41992188 105.52563477 C31.43583374 104.40339005 31.45174561 103.28114532 31.46813965 102.12489319 C31.46844177 100.30156715 31.46844177 100.30156715 31.46875 98.44140625 C31.47636353 97.18674057 31.48397705 95.93207489 31.49182129 94.63938904 C31.50264351 91.97680207 31.50683317 89.31510051 31.50097656 86.65258789 C31.49628516 83.94152202 31.50996714 81.23163102 31.54199219 78.52075195 C31.58513763 74.59811195 31.59387509 70.67675912 31.59375 66.75390625 C31.61014526 65.55657364 31.62654053 64.35924103 31.64343262 63.12562561 C31.54561395 51.0303576 27.732258 41.79709337 19.32421875 33.125 C13.35316796 27.66575356 7.88614175 25.62871392 0 23 C0 15.41 0 7.82 0 0 Z " fill="#EB654B" transform="translate(93,321)"/>
<path d="M0 0 C4.95 0 9.9 0 15 0 C15 14.19 15 28.38 15 43 C11.37 44.98 7.74 46.96 4 49 C-3.35363441 55.41983956 -7.54571716 61.48364783 -8.23828125 71.41796875 C-8.44269634 81.80010338 -7.21762138 90.49561225 0.0859375 98.3984375 C9.21015306 106.03298522 18.4041292 107.85849258 30 107 C38.40058779 105.17832558 45.29344017 100.00858084 50.37890625 93.13671875 C55.55368163 84.52482318 56.51963582 74.93454065 54.3828125 65.18359375 C51.58135239 57.26265123 46.22806225 50.36054568 38.6875 46.5 C36.48306709 45.60328153 34.25771248 44.75257083 32 44 C32 29.48 32 14.96 32 0 C65.70262391 0 65.70262391 0 82 10 C81.70867187 10.65742188 81.41734375 11.31484375 81.1171875 11.9921875 C78.39609961 18.30716505 76.00100539 24.67082834 73.8125 31.1875 C73.56290527 31.92274902 73.31331055 32.65799805 73.05615234 33.41552734 C62.90907462 64.10308202 67.68166587 95.79262801 81.4375 124.4375 C87.01095548 135.07773319 93.61108533 144.05807655 101.875 152.69921875 C104 155 104 155 104 156 C59.12 156 14.24 156 -32 156 C-32.474375 135.849375 -32.94875 115.69875 -33.4375 94.9375 C-33.64689209 88.62101318 -33.85628418 82.30452637 -34.07202148 75.79663086 C-34.95047212 30.24241063 -34.95047212 30.24241063 -24.06007385 18.75404358 C-20.2969967 15.23711685 -16.21458441 12.33066237 -11.78933716 9.69973755 C-7.40124789 7.02576891 -3.62733876 3.62733876 0 0 Z " fill="#EB654B" transform="translate(206,321)"/>
<path d="M0 0 C0.90105469 0.00902344 1.80210937 0.01804687 2.73046875 0.02734375 C3.41753906 0.03894531 4.10460937 0.05054688 4.8125 0.0625 C4.82708252 0.64628418 4.84166504 1.23006836 4.85668945 1.83154297 C4.93219085 4.53411959 5.02850338 7.23559464 5.125 9.9375 C5.14755859 10.8553125 5.17011719 11.773125 5.19335938 12.71875 C5.54265844 21.73701667 6.8704216 29.9456271 13.2734375 36.6640625 C18.94301152 41.81560438 25.49971237 43.15648761 32.9375 43.875 C47.84122124 45.61993365 58.17743057 52.43578776 67.8359375 63.5546875 C70.46744906 66.8934828 72.31106678 70.09659305 73.8125 74.0625 C74.10898437 74.80886719 74.40546875 75.55523437 74.7109375 76.32421875 C80.11566783 91.72026249 75.55005663 105.88583359 68.91275024 119.97201538 C66.88737562 124.16461389 64.79020841 128.31911943 62.66650391 132.46264648 C61.56546797 134.6191868 60.48392524 136.78482345 59.40234375 138.95117188 C51.20257076 155.12935854 41.51845508 167.04972686 23.8125 173.0625 C22.1728125 173.68125 22.1728125 173.68125 20.5 174.3125 C12.09159969 176.02268311 4.11785942 176.42507969 -3.265625 171.6015625 C-8.10056062 167.72968316 -11.098064 163.29836297 -14.125 157.9375 C-18.05972072 151.17758816 -22.67911829 148.11946452 -30.1875 146.0625 C-38.23645914 145.67303424 -45.02826419 146.66554585 -51.1875 152.0625 C-57.82908854 158.88359093 -58.92041624 166.98421756 -60.1875 176.0625 C-62.1875 176.0625 -62.1875 176.0625 -63.73046875 174.84765625 C-66.03339698 172.43532526 -67.95704854 170.41116481 -68.53125 167.05078125 C-67.94034236 159.05875545 -64.9258332 148.95544229 -58.875 143.5 C-52.02343344 138.53336223 -45.51161074 136.0980897 -37.09375 135.6328125 C-35.8975 135.55933594 -34.70125 135.48585938 -33.46875 135.41015625 C-30.97951001 135.2635791 -28.48992072 135.12280027 -26 134.98828125 C-11.86012478 134.0969857 0.03669425 131.92450639 9.8125 121.0625 C10.8334375 119.94875 10.8334375 119.94875 11.875 118.8125 C14.46775894 115.13245505 16.08133254 111.19942131 17.8125 107.0625 C18.1425 106.4025 18.4725 105.7425 18.8125 105.0625 C20.3960889 90.63024659 16.71326497 79.08729978 7.9375 67.5625 C5.22368748 64.40077668 2.3183205 61.731544 -0.875 59.0625 C-6.35684191 54.40435455 -9.91946209 48.18887306 -11.1875 41.0625 C-11.96146996 27.51802565 -10.30921562 14.4210322 -8.1875 1.0625 C-5.17259443 0.05753148 -3.14568308 -0.04085303 0 0 Z " fill="#E9644A" transform="translate(381.1875,286.9375)"/>
<path d="M0 0 C1.90033669 -0.00270043 3.80067202 -0.00658741 5.70100403 -0.01159668 C9.67425761 -0.01747299 13.64714998 -0.00899405 17.62036133 0.00976562 C22.6723721 0.03247585 27.7235289 0.0194705 32.77550793 -0.00452423 C36.69904302 -0.01909982 40.62238165 -0.01432154 44.54592323 -0.00401306 C46.4063458 -0.00137404 48.26678713 -0.00451413 50.12718773 -0.01393127 C71.44732922 -0.09814284 89.29591182 4.43372764 104.9296875 19.84375 C114.17329489 29.4359097 121.75413542 41.85382714 121.51953125 55.53125 C103.27360348 55.60139705 85.02771081 55.65426605 66.78167725 55.68668652 C58.30932095 55.70214143 49.83704854 55.7232046 41.36474609 55.75756836 C33.97845877 55.78751289 26.59223222 55.806835 19.20588589 55.81351548 C15.29651298 55.8174192 11.38731391 55.82656464 7.47799683 55.84844017 C3.79426557 55.86888531 0.11077884 55.8750677 -3.57300377 55.87057304 C-5.56105553 55.87178482 -7.54908099 55.88788479 -9.5370636 55.9045105 C-19.14754596 55.87141062 -27.28701547 54.35625811 -34.48046875 47.53125 C-40.71801679 39.39603523 -42.62133615 31.73963646 -41.48046875 21.53125 C-39.11701932 13.90279493 -34.4048705 7.58182465 -27.60551453 3.36975098 C-18.81324573 -0.73018587 -9.48567275 -0.04771354 0 0 Z " fill="#EB654B" transform="translate(164.48046875,18.46875)"/>
<path d="M0 0 C-0.0721875 0.82757813 -0.144375 1.65515625 -0.21875 2.5078125 C-2.53161859 27.37371374 -2.53161859 27.37371374 4 51 C4.34933594 51.75023437 4.69867188 52.50046875 5.05859375 53.2734375 C7.43934904 57.68611946 10.67879792 60.58931456 14.4375 63.875 C19.61162822 68.40845555 22.94562185 72.87046561 26 79 C26.33773437 79.61617188 26.67546875 80.23234375 27.0234375 80.8671875 C29.35120822 85.50137325 29.98669673 89.95140171 29 95 C26.03161226 102.44345715 21.38811238 107.80483759 14 111 C7.20995257 112.91364713 0.25814234 113.04935858 -6.74755859 113.28051758 C-21.66860592 113.79270893 -34.36319413 116.32482869 -45.83984375 126.65625 C-49.98735027 131.13091352 -52.49282487 136.48643345 -55 142 C-66.14771715 130.85228285 -66.32960797 108.70400434 -66.5 94.1875 C-66.44187714 75.30570608 -62.30281417 60.31556337 -53 44 C-52.44441406 43.00484375 -51.88882812 42.0096875 -51.31640625 40.984375 C-46.8301207 33.45344002 -41.12168147 27.20682308 -35 21 C-34.20722656 20.19433594 -33.41445313 19.38867188 -32.59765625 18.55859375 C-25.01508075 11.30404981 -11.09185753 0 0 0 Z " fill="#FBC55A" transform="translate(356,294)"/>
<path d="M0 0 C20.44112502 -0.45201505 40.7475717 9.96203518 56 23 C57.10794922 23.88945312 57.10794922 23.88945312 58.23828125 24.796875 C76.72140966 40.16118068 88.5296271 63.39962322 92 87 C93.71132431 116.88594536 88.34072255 145.17728231 68.39453125 168.3515625 C67.60433594 169.22554687 66.81414062 170.09953125 66 171 C65.17886719 171.91523438 64.35773438 172.83046875 63.51171875 173.7734375 C47.51295428 190.69657503 23.98729913 202.98750756 0.50585938 204.17700195 C-2.78824002 204.23212322 -6.081494 204.27655956 -9.37597656 204.29516602 C-10.77777261 204.30660596 -12.1795279 204.32692921 -13.58105469 204.35668945 C-32.76412186 204.76218887 -49.51425232 198.7739142 -66 189 C-66.33 188.67 -66.66 188.34 -67 188 C-66.68116586 167.17767806 -66.68116586 167.17767806 -62.3125 162 C-58.94023584 160.54172361 -56.63584463 160.48970602 -53 161 C-49.63035466 163.50764305 -47.88751618 166.06507302 -46.1875 169.8125 C-41.62944381 179.3790132 -33.43562022 183.96015667 -24 188 C-9.56147894 192.81284035 6.45805561 187.64891173 19.51171875 181.2890625 C34.94252773 172.73144949 43.19706626 160.34211731 51 144.8125 C51.60840485 143.61706187 52.21754344 142.4219969 52.82739258 141.22729492 C54.02032941 138.8860645 55.20635603 136.54172046 56.38916016 134.1953125 C57.77422383 131.44785671 59.17064177 128.7067734 60.57421875 125.96875 C69.43624465 108.56315284 74.04689944 90.20473921 67.9375 70.875 C61.41877498 54.35121235 50.6825371 40.49202155 34.10058594 33.16015625 C25.17703663 29.462953 16.71502633 27.30892595 7.07421875 26.71484375 C4 26 4 26 1.59765625 24.1171875 C-0.77040778 19.49685719 -0.42836422 15.29489071 -0.25 10.1875 C-0.23195313 9.20845703 -0.21390625 8.22941406 -0.1953125 7.22070312 C-0.14832887 4.81279229 -0.08265694 2.40690665 0 0 Z " fill="#F9C459" transform="translate(403,288)"/>
<path d="M0 0 C0.01417969 1.01578125 0.02835938 2.0315625 0.04296875 3.078125 C0.30784638 12.31953655 1.56065625 19.71403142 6 28 C6.42152344 28.81082031 6.84304687 29.62164062 7.27734375 30.45703125 C11.41234716 37.4925298 18.20296793 43.40098931 26 46 C20.51469917 59.13507173 3.00751497 66.3181944 -9.30078125 71.51953125 C-14.4644676 73.58609633 -19.3850297 75.20757791 -24.875 76.125 C-25.84179688 76.29257813 -26.80859375 76.46015625 -27.8046875 76.6328125 C-31.57465124 77.06603572 -35.2053247 77.02291529 -39 77 C-39.12536964 72.12948576 -39.21515355 67.25994856 -39.2746582 62.38818359 C-39.29951117 60.73762617 -39.33340662 59.0871753 -39.37719727 57.43701172 C-39.84519663 39.32268349 -35.39029368 24.83429242 -22.8125 11.1875 C-17.03958702 5.65305503 -8.23312084 0 0 0 Z " fill="#E9644A" transform="translate(107,40)"/>
<path d="M0 0 C0.93995381 6.30019943 1.45605771 11.72223388 -2.07568359 17.24707031 C-4.87461208 20.46009478 -8.01499319 23.28920798 -11.1875 26.125 C-12.25639848 27.13209088 -13.32218494 28.14249545 -14.38476562 29.15625 C-18.76948192 33.3027281 -23.2515044 37.2719979 -28 41 C-32.08126878 39.38307728 -34.80606036 36.45726409 -37.8125 33.375 C-38.34294922 32.83810547 -38.87339844 32.30121094 -39.41992188 31.74804688 C-42.91495552 28.18473419 -46.28396676 24.53778947 -49.5 20.71875 C-51.01596681 18.88840279 -51.01596681 18.88840279 -53.171875 17.203125 C-55.69647862 14.16065397 -55.40567133 12.14178331 -55.25 8.25 C-55.21390625 7.07953125 -55.1778125 5.9090625 -55.140625 4.703125 C-55.09421875 3.81109375 -55.0478125 2.9190625 -55 2 C-54.17495972 2.10393066 -54.17495972 2.10393066 -53.33325195 2.20996094 C-45.61763221 3.08942109 -37.94764889 3.21894388 -30.1875 3.25 C-28.27227539 3.2809375 -28.27227539 3.2809375 -26.31835938 3.3125 C-18.69792008 3.34352469 -11.88011273 2.59413463 -4.50512695 0.64746094 C-2 0 -2 0 0 0 Z " fill="#F9C459" transform="translate(195,296)"/>
<path d="M0 0 C4.24976672 0.88536807 5.53433834 2.03217872 8 5.625 C8.4201744 8.42756324 8.56615015 11.19096979 8.72265625 14.01953125 C8.8762027 16.81370324 8.8762027 16.81370324 10.5 19.8125 C14.18583268 22.48472869 17.58847955 22.19370429 22 21.625 C22.99 21.295 23.98 20.965 25 20.625 C25.99527191 17.63918426 26.12913106 15.43350874 26.25 12.3125 C26.57128248 8.64209103 26.92575404 5.94169873 29.125 2.9375 C32 0.625 32 0.625 35.5 -0.125 C39.10246554 0.6469569 40.95206851 1.48688388 43.11328125 4.53125 C45.41720733 9.9713574 44.93313578 15.9688694 43.0078125 21.44921875 C38.42741862 30.96562716 32.9687296 35.9758408 23 39.625 C16.0646645 40.96125189 10.40791507 39.67785218 4.29296875 36.24609375 C-1.39472474 32.22498166 -5.33099799 27.03682989 -8 20.625 C-8.46875 16.93359375 -8.46875 16.93359375 -8.5 13.0625 C-8.5309375 11.78246094 -8.561875 10.50242188 -8.59375 9.18359375 C-7.72229384 3.96059005 -5.23190476 1.08998016 0 0 Z " fill="#060502" transform="translate(192,141.375)"/>
<path d="M0 0 C2.75 1.75 2.75 1.75 5 5 C5.65475092 8.05689442 6.06111321 11.04743524 6.34765625 14.16015625 C7.14133462 17.61527105 8.19465304 18.87473715 11 21 C12.97735077 21.62222293 12.97735077 21.62222293 15 21.5 C15.99 21.51546875 15.99 21.51546875 17 21.53125 C19.95945528 20.74514469 21.14168322 19.40417225 23 17 C23.72389942 14.13844715 23.72389942 14.13844715 23.9375 11.0625 C24.50917858 6.99115432 24.86214351 5.19912604 27.25 1.75 C30.60250269 -0.3834108 32.10394414 -0.8116783 36 0 C38.875 1.6875 38.875 1.6875 41 5 C42.75407418 14.46936284 40.27996764 22.13466889 35 30 C30.69046328 35.22368087 23.93497447 38.37868824 17.328125 39.421875 C9.27916521 39.83114414 2.96654837 37.5034109 -3.07421875 32.16796875 C-9.96731941 24.84133975 -11.66882195 17.92725077 -11.4140625 7.9453125 C-11 5 -11 5 -8.875 1.6875 C-5.44657382 -0.32483711 -3.9001417 -0.81252952 0 0 Z " fill="#050402" transform="translate(105,142)"/>
<path d="M0 0 C4.07166495 2.90833211 7.01178079 6.03534238 8.625 10.875 C9.21713021 16.69761374 8.61849729 20.21544895 5.23828125 25.04296875 C1.56076491 29.21913137 -2.73371612 32.07884325 -8.375 32.5 C-14.04537468 32.11973819 -18.57615046 28.84793176 -22.3125 24.75 C-25.12335687 19.78966434 -25.06303736 14.41022189 -24.375 8.875 C-22.7375704 5.09736158 -20.25495308 2.67731016 -17.25 -0.0625 C-11.59293264 -2.15315533 -5.67789263 -1.89263088 0 0 Z " fill="#E8634A" transform="translate(237.375,381.125)"/>
<path d="M0 0 C2.9375 2.0625 2.9375 2.0625 5 5 C5 8.52133145 4.69441423 10.84264294 2.875 13.875 C-0.19661542 15.71796925 -2.42609272 16.06161909 -6 16 C-8.57810536 13.85157887 -9.69565036 12.91450373 -11 10 C-11.06577694 6.11916068 -10.88674474 4.01811433 -8.3125 1.0625 C-5.2135552 -0.3613395 -3.37817188 -0.55153827 0 0 Z " fill="#090403" transform="translate(406,440)"/>
<path d="M0 0 C2.375 1.5625 2.375 1.5625 4 4 C4.2415051 7.62989487 3.64303994 10.78957187 1.9375 14 C-1.27530159 15.65822018 -4.47209226 15.52292578 -8 15 C-9.9375 13.9375 -9.9375 13.9375 -11 12 C-11.9375 8.625 -11.9375 8.625 -12 5 C-8.84658244 -0.18061456 -5.87077424 -1.861465 0 0 Z " fill="#070302" transform="translate(417,369)"/>
<path d="M0 0 C4.99268902 1.47931526 4.99268902 1.47931526 6.375 4 C7.12971698 10.79245283 7.12971698 10.79245283 4.8125 14.5 C1.46465651 16.56021138 -0.76514247 16.49125459 -4.625 16 C-6.95441903 14.75764319 -7.41359023 13.66898159 -8.1953125 11.1953125 C-9.04389849 7.10667091 -8.97640818 5.53809377 -6.625 1.9375 C-3.625 0 -3.625 0 0 0 Z " fill="#060202" transform="translate(378.625,427)"/>
<path d="M0 0 C3.375 1.0625 3.375 1.0625 5.3125 2.6875 C6.81199866 6.03932053 6.82877473 8.43230218 6.375 12.0625 C4.8125 14.5 4.8125 14.5 2.375 16.0625 C-1.56516013 16.62538002 -3.68282196 16.66646028 -7.0625 14.5 C-9.25521887 11.07935857 -9.25507693 9.05298721 -8.625 5.0625 C-5.94590469 1.1656341 -4.7824172 0.08245547 0 0 Z " fill="#040201" transform="translate(416.625,337.9375)"/>
<path d="M0 0 C2.9375 0.5625 2.9375 0.5625 5.3125 2.0625 C7.28433501 5.09609233 7.58302934 7.08181016 7.3828125 10.65234375 C6.9375 12.5625 6.9375 12.5625 4.875 15.125 C1.02588451 17.00860971 -0.98670151 16.770144 -5.0625 15.5625 C-7.61328958 13.34084456 -7.99582671 11.95420557 -8.5625 8.625 C-7.72746421 3.51040581 -5.079319 0.93293614 0 0 Z " fill="#050201" transform="translate(447.0625,364.4375)"/>
<path d="M0 0 C2.5625 2.0625 2.5625 2.0625 4 5 C3.94021398 8.46758942 3.60965977 10.88826749 1.9375 13.9375 C-1.27905997 15.70141999 -4.49385409 15.73924763 -8 15 C-10.5625 12.9375 -10.5625 12.9375 -12 10 C-11.94021398 6.53241058 -11.60965977 4.11173251 -9.9375 1.0625 C-6.72094003 -0.70141999 -3.50614591 -0.73924763 0 0 Z " fill="#060202" transform="translate(406,410)"/>
<path d="M0 0 C2.4375 1.5625 2.4375 1.5625 4 4 C4.45377473 7.63019782 4.43699866 10.02317947 2.9375 13.375 C-0.02028188 15.85572029 -2.18105459 16.06584389 -6 16 C-8.9375 14 -8.9375 14 -11 11 C-11.63007693 7.00951279 -11.63021887 4.98314143 -9.4375 1.5625 C-6.05782196 -0.60396028 -3.94016013 -0.56288002 0 0 Z " fill="#040101" transform="translate(436,393)"/>
<path d="M0 0 C2.96135546 2.58169451 3.86756104 4.18881135 4.5 8.0625 C3.87395791 11.74049726 3.02706748 12.84918889 0 15 C-2.9375 16 -2.9375 16 -6 16 C-8.875 14.5625 -8.875 14.5625 -11 12 C-11.65897944 9.19790483 -11.60997236 6.80817463 -11 4 C-8.17436748 -0.52101204 -5.09523334 -0.81887679 0 0 Z " fill="#050201" transform="translate(426,413)"/>
</svg>
