<?xml version="1.0" encoding="UTF-8"?>
<svg version="1.1" xmlns="http://www.w3.org/2000/svg" width="512" height="512">
<path d="M0 0 C1.68919052 -0.0076664 1.68919052 -0.0076664 3.4125061 -0.01548767 C7.12491208 -0.02935579 10.83713179 -0.02842877 14.54956055 -0.02612305 C17.13876921 -0.03001183 19.72797724 -0.03434688 22.31718445 -0.03910828 C27.74159077 -0.04656478 33.16592534 -0.04642253 38.59033203 -0.04101562 C44.83934469 -0.034982 51.08813185 -0.04727618 57.33710605 -0.06858569 C63.3721912 -0.08840093 69.40715922 -0.09136642 75.44228172 -0.08785057 C77.99903073 -0.0883626 80.55578342 -0.09357797 83.11251259 -0.10366249 C86.69497447 -0.11605774 90.2769208 -0.10921585 93.859375 -0.09765625 C95.4300045 -0.10912186 95.4300045 -0.10912186 97.03236389 -0.12081909 C110.40169216 -0.02591177 122.01222376 4.87669279 131.6237793 14.2746582 C139.10597484 23.61506935 143.72534037 32.65005725 143.77095032 44.72186279 C143.78168327 46.67685448 143.78168327 46.67685448 143.79263306 48.67134094 C143.7954731 50.1091001 143.79818486 51.54685952 143.80078125 52.98461914 C143.8070507 54.50455377 143.81369792 56.02448688 143.82069397 57.54441833 C143.8416955 62.53261253 143.85209896 67.52080685 143.86206055 72.5090332 C143.86611084 74.23257716 143.87022784 75.95612097 143.87441063 77.67966461 C143.89346091 85.7864295 143.90768716 93.89318534 143.9160226 101.99996829 C143.92576723 111.32107936 143.95201451 120.64195121 143.99252349 129.96297812 C144.02283478 137.18876447 144.03750596 144.41448289 144.04080361 151.64033151 C144.04313881 155.94510038 144.05189593 160.2496137 144.07726479 164.55431366 C144.10081208 168.61575438 144.10467374 172.6767762 144.0945034 176.7382679 C144.09401418 178.21469848 144.10014926 179.69115158 144.11405945 181.16751671 C144.35014286 207.75066942 134.0903088 231.19077962 115.6237793 250.2746582 C100.95601614 264.2746582 100.95601614 264.2746582 94.6237793 264.2746582 C94.6237793 264.9346582 94.6237793 265.5946582 94.6237793 266.2746582 C95.1600293 266.34942383 95.6962793 266.42418945 96.2487793 266.5012207 C110.64530927 268.91642803 123.84664267 275.48403512 136.6237793 282.2746582 C137.78522461 282.87922852 138.94666992 283.48379883 140.14331055 284.10668945 C182.79263959 307.25918236 213.93245472 349.33366291 228.15893555 395.1965332 C230.40906359 402.80610982 232.15384517 410.48036603 233.6237793 418.2746582 C233.9621582 419.95108398 233.9621582 419.95108398 234.30737305 421.66137695 C235.6578859 429.38258495 235.8850069 437.07374286 235.9987793 444.8996582 C236.02488281 445.95620605 236.05098633 447.01275391 236.07788086 448.10131836 C236.08013672 449.09953613 236.08239258 450.09775391 236.0847168 451.1262207 C236.09293457 452.02163574 236.10115234 452.91705078 236.10961914 453.83959961 C235.44982078 457.1465488 234.24804258 458.18743469 231.6237793 460.2746582 C228.7463131 460.77605486 228.7463131 460.77605486 225.33309937 460.77802277 C223.38111854 460.79366925 223.38111854 460.79366925 221.38970375 460.80963182 C219.94217332 460.80098324 218.49464512 460.7919566 217.04711914 460.78259277 C215.51208593 460.78719997 213.97705712 460.79355167 212.44203758 460.80150175 C208.21729246 460.81824327 203.99290746 460.80992698 199.76816082 460.79755688 C195.21457634 460.78852834 190.66105496 460.80246517 186.10748291 460.81347656 C177.18444672 460.83128992 168.26154488 460.82740929 159.33850336 460.815826 C152.08843029 460.80680301 144.83839495 460.80556275 137.58831787 460.80992126 C136.04221158 460.81084066 136.04221158 460.81084066 134.46487081 460.81177863 C132.37113586 460.8130575 130.27740092 460.81435435 128.18366599 460.815669 C108.53741399 460.82708305 88.89123656 460.81394816 69.24499679 460.79246753 C52.37707964 460.77459581 35.50927258 460.77769969 18.64135742 460.79614258 C-0.93320975 460.81753473 -20.50771151 460.82598433 -40.08228874 460.81369352 C-42.16844558 460.81241929 -44.25460242 460.81116181 -46.34075928 460.80992126 C-47.88051861 460.80899561 -47.88051861 460.80899561 -49.45138419 460.80805126 C-56.6951648 460.80459339 -63.93890402 460.8104361 -71.18267822 460.81983948 C-80.00698184 460.83104247 -88.83114308 460.82805529 -97.65543032 460.8067165 C-102.16022614 460.79618313 -106.66478434 460.79212302 -111.16957855 460.80531311 C-115.29007014 460.81719574 -119.41010291 460.81074328 -123.53055263 460.7894029 C-125.02443319 460.78491922 -126.51835219 460.78724253 -128.01220822 460.79690605 C-130.03662606 460.80900138 -132.06115184 460.79424965 -134.08554077 460.77802277 C-135.2119013 460.77737336 -136.33826183 460.77672395 -137.4987545 460.77605486 C-141.02778625 460.16112332 -142.20565387 459.06974891 -144.3762207 456.2746582 C-144.89379883 453.99829102 -144.89379883 453.99829102 -144.9074707 451.4777832 C-144.91568848 450.53128906 -144.92390625 449.58479492 -144.93237305 448.60961914 C-144.91384277 447.59158203 -144.8953125 446.57354492 -144.8762207 445.5246582 C-144.86413574 444.46279297 -144.85205078 443.40092773 -144.83959961 442.30688477 C-144.38592146 423.64833967 -140.27586608 405.90647118 -134.3762207 388.2746582 C-134.0462207 387.2846582 -133.7162207 386.2946582 -133.3762207 385.2746582 C-134.08890232 385.27319164 -134.80158394 385.27172508 -135.53586197 385.27021408 C-152.87037324 385.23317576 -170.20467044 385.17420078 -187.53902054 385.09075546 C-195.92176895 385.050932 -204.30442303 385.01855637 -212.68725586 385.00366211 C-219.99304055 384.99066266 -227.29861798 384.96374194 -234.60428596 384.92004514 C-238.4732743 384.8973916 -242.34200665 384.88174983 -246.2110672 384.88277435 C-249.85227901 384.88351869 -253.49292412 384.86566005 -257.13398933 384.83349037 C-259.10842584 384.82090051 -261.0829573 384.82807302 -263.05741882 384.83580017 C-264.23248489 384.82188736 -265.40755096 384.80797455 -266.6182251 384.79364014 C-268.15024504 384.78810938 -268.15024504 384.78810938 -269.71321487 384.78246689 C-273.07960955 384.14052896 -274.26966504 382.92263589 -276.3762207 380.2746582 C-276.89379883 378.1184082 -276.89379883 378.1184082 -276.9074707 375.7746582 C-276.91568848 374.89769287 -276.92390625 374.02072754 -276.93237305 373.1171875 C-276.91384277 372.17915283 -276.8953125 371.24111816 -276.8762207 370.2746582 C-276.86413574 369.29859619 -276.85205078 368.32253418 -276.83959961 367.31689453 C-276.07906028 338.78284169 -264.82520562 310.92700385 -246.3762207 289.2746582 C-245.26633789 287.95594727 -245.26633789 287.95594727 -244.1340332 286.6105957 C-227.25393577 267.20749438 -206.41005103 254.93574885 -182.3762207 246.2746582 C-182.92149414 245.88536133 -183.46676758 245.49606445 -184.02856445 245.0949707 C-199.09378559 233.9183793 -209.16015391 218.95378629 -212.3762207 200.2746582 C-212.46787306 198.66855689 -212.51496377 197.05945208 -212.52339172 195.45075989 C-212.53054703 194.50753876 -212.53770233 193.56431763 -212.54507446 192.59251404 C-212.54776337 191.56956741 -212.55045227 190.54662079 -212.55322266 189.49267578 C-212.56307945 187.86244476 -212.56307945 187.86244476 -212.57313538 186.19927979 C-212.59283051 182.6059156 -212.60452264 179.01259313 -212.61450195 175.41918945 C-212.61857748 174.18957678 -212.62265301 172.9599641 -212.62685204 171.69309044 C-212.64554983 165.85503359 -212.66011906 160.01699305 -212.668464 154.17891198 C-212.67725519 148.13022539 -212.69653301 142.0817901 -212.73291016 136.03320312 C-212.77139112 129.53053142 -212.79015595 123.02808625 -212.7946682 116.52530479 C-212.79952911 114.05227098 -212.81112885 111.57924056 -212.82970619 109.10627174 C-212.85413776 105.63845361 -212.85312474 102.17149171 -212.84619141 98.70361328 C-212.85900146 97.69078781 -212.87181152 96.67796234 -212.88500977 95.63444519 C-212.80638553 84.79479086 -209.18123934 77.24959149 -201.74731445 69.47387695 C-194.38147258 62.64196761 -187.01646114 59.97224428 -176.95922852 59.98413086 C-176.13560822 59.97741364 -175.31198792 59.97069641 -174.46340942 59.96377563 C-171.75199273 59.94484447 -169.0408243 59.94087366 -166.3293457 59.9387207 C-164.43373515 59.9322885 -162.53812559 59.92555983 -160.64251709 59.91854858 C-156.67156678 59.90658737 -152.70070338 59.90286648 -148.72973633 59.90405273 C-143.66148717 59.90425565 -138.59380045 59.87697647 -133.52568436 59.84250832 C-129.61010215 59.82017963 -125.69465392 59.81621705 -121.77901459 59.81727219 C-119.91164974 59.81492433 -118.04428073 59.80614714 -116.17697906 59.79060745 C-101.98380787 59.68356632 -92.25871777 60.68988079 -81.57543945 70.90356445 C-73.92966896 79.14687296 -72.07469584 87.11801781 -72.1015625 98.13842773 C-72.09645157 99.22218185 -72.09134064 100.30593597 -72.08607483 101.42253113 C-72.07219016 105.00090073 -72.07313543 108.57907737 -72.07543945 112.1574707 C-72.07155066 114.65363638 -72.06721561 117.14980141 -72.06245422 119.64596558 C-72.0549935 124.87963492 -72.05514243 130.11325463 -72.06054688 135.34692383 C-72.06590626 140.70474468 -72.05891272 146.06237613 -72.04003906 151.42016602 C-72.01749364 157.90454947 -72.00979964 164.38877518 -72.01371193 170.87319565 C-72.01320072 173.33618596 -72.00800088 175.79918016 -71.99790001 178.26214981 C-71.98546477 181.71978652 -71.99237101 185.17689228 -72.00390625 188.63452148 C-71.99626251 189.63858536 -71.98861877 190.64264923 -71.98074341 191.67713928 C-72.05437519 201.74016763 -74.29788169 211.29777634 -78.8762207 220.2746582 C-79.38572266 221.2819397 -79.38572266 221.2819397 -79.90551758 222.30957031 C-85.26770498 232.36606125 -93.60626117 240.13807222 -102.3762207 247.2746582 C-101.58602539 247.51958008 -100.79583008 247.76450195 -99.98168945 248.0168457 C-78.58765814 255.10743894 -61.65879432 266.93836642 -45.3762207 282.2746582 C-41.34273215 281.04653263 -37.64063614 279.48705191 -33.86816406 277.60864258 C-23.39009421 272.39886905 -12.53310398 268.74444726 -1.3762207 265.2746582 C-2.24762695 264.75258789 -3.1190332 264.23051758 -4.0168457 263.69262695 C-26.52418982 249.90898566 -43.22819128 229.91143595 -50.23188877 204.12412548 C-52.27393996 195.25193173 -52.81201954 186.79999114 -52.78027344 177.72314453 C-52.78599301 176.22170001 -52.79296332 174.72025982 -52.80107117 173.21882629 C-52.81883555 169.18592344 -52.81786703 165.1532401 -52.81212878 161.12031007 C-52.80901473 157.7380971 -52.81515328 154.35592498 -52.82116753 150.97371787 C-52.83515404 142.99139505 -52.83369865 135.00917941 -52.82226562 127.02685547 C-52.81076963 118.81965724 -52.82489828 110.61278524 -52.8516621 102.40562993 C-52.87387113 95.32750407 -52.88044539 88.24948025 -52.87458569 81.17132205 C-52.87122981 76.95745077 -52.87354034 72.74378889 -52.89083672 68.52994728 C-52.90638904 64.56931735 -52.90225955 60.60916914 -52.88353157 56.64855766 C-52.87986954 55.20347811 -52.88288378 53.75836215 -52.89341736 52.31331635 C-52.99141518 37.74753745 -49.15128603 26.08743145 -39.4152832 15.05200195 C-28.4447496 4.46890356 -14.91210526 -0.03507875 0 0 Z " fill="#404141" transform="translate(276.376220703125,27.725341796875)"/>
<path d="M0 0 C4.20759479 3.98982648 7.69815018 8.313864 11.1875 12.9375 C11.75992432 13.69111816 12.33234863 14.44473633 12.92211914 15.22119141 C16.74183488 20.27257494 20.46759419 25.38278387 24.12426758 30.55297852 C28.81010182 37.17261942 33.62542007 43.69520721 38.46484375 50.203125 C40.79884213 53.34747741 43.07719327 56.52191151 45.31640625 59.734375 C45.84314941 60.47510254 46.36989258 61.21583008 46.91259766 61.97900391 C47.90150436 63.37069298 48.8749364 64.77355969 49.82958984 66.18896484 C52.25583721 69.5601625 53.50247973 70.82518072 57.53515625 72.2421875 C61.07503277 72.31384352 61.07503277 72.31384352 63.55859375 70.046875 C64.36425781 69.04140625 65.16992188 68.0359375 66 67 C66.4655127 66.42701172 66.93102539 65.85402344 67.41064453 65.26367188 C68.99578133 63.28367033 70.53278105 61.27309444 72.0625 59.25 C72.9134021 58.13117432 72.9134021 58.13117432 73.78149414 56.98974609 C78.11547071 51.2548578 82.28847736 45.41794885 86.40405273 39.52514648 C90.79794975 33.24414087 95.3372503 27.07720919 99.89868164 20.91723633 C105.01416743 14.00218932 110.02986716 7.02002634 115 0 C118 1 118 1 119.6484375 4 C120.23867266 5.32688525 120.81313513 6.6608548 121.375 8 C121.83289917 9.07435303 121.83289917 9.07435303 122.30004883 10.17041016 C125.52047016 17.93626479 127.91146075 25.86502187 130 34 C130.28834717 35.11060791 130.28834717 35.11060791 130.58251953 36.24365234 C133.28034613 46.83655559 134.70232906 57.07547637 135 68 C134.28714844 68.36351562 133.57429687 68.72703125 132.83984375 69.1015625 C120.61645923 75.51760552 114.47710697 81.5686791 110 95 C109.04179652 106.05861068 110.82287865 116.22796279 118 125 C124.83527084 132.06882224 131.15425093 136.04823882 141.13891602 136.47094727 C151.34514638 136.6035536 159.64302616 135.00306376 167.8125 128.5 C174.5947674 121.83971583 178.18770101 114.75043902 178.60693359 105.24121094 C178.69115434 94.21056912 176.60855542 85.9228365 168.84765625 77.75 C164.64607553 73.77049014 160.82189108 71.13330894 155.2734375 69.36328125 C154.06953369 68.97523315 154.06953369 68.97523315 152.84130859 68.5793457 C152.23367676 68.38816162 151.62604492 68.19697754 151 68 C150.85304688 66.78570312 150.70609375 65.57140625 150.5546875 64.3203125 C149.21727156 53.88330438 147.4130312 43.63361161 145.0625 33.375 C144.82192871 32.31039551 144.58135742 31.24579102 144.33349609 30.14892578 C142.87934984 23.97242268 141.05883804 18.14575371 138.66967773 12.26416016 C138 10 138 10 139 7 C153.50545741 15.81740368 166.70615172 25.23602356 179 37 C179.93972656 37.886875 180.87945312 38.77375 181.84765625 39.6875 C197.5230144 54.85577905 208.91097183 73.28194222 218 93 C218.53367187 94.14210938 219.06734375 95.28421875 219.6171875 96.4609375 C227.60493091 114.87827333 232 135.98743582 232 156 C117.16 156 2.32 156 -116 156 C-113.33826946 121.39750293 -103.85553867 89.18470102 -83 61 C-82.59378418 60.43587402 -82.18756836 59.87174805 -81.76904297 59.29052734 C-67.25647891 39.23088807 -48.96014683 23.85357343 -27.87109375 11.15234375 C-27.22068115 10.76038818 -26.57026855 10.36843262 -25.90014648 9.96459961 C-23.94576852 8.97246967 -22.13989521 8.44485809 -20 8 C-20.47878987 11.52088468 -20.95810015 15.04169833 -21.4375 18.5625 C-21.57220703 19.55314453 -21.70691406 20.54378906 -21.84570312 21.56445312 C-22.54688936 26.71218618 -23.25720114 31.85810106 -24 37 C-24.66644531 37.20753906 -25.33289063 37.41507812 -26.01953125 37.62890625 C-40.59028193 42.49940893 -50.86321225 50.28724331 -57.875 64.0625 C-62.00574551 72.44887402 -63.31288641 79.83915289 -63.3359375 89.0546875 C-63.3425943 89.99627716 -63.3492511 90.93786682 -63.35610962 91.9079895 C-63.3661838 93.88964907 -63.37092827 95.8713422 -63.37060547 97.85302734 C-63.37497764 100.8596262 -63.41135057 103.86475397 -63.44921875 106.87109375 C-63.45508849 108.80728671 -63.45905683 110.74348656 -63.4609375 112.6796875 C-63.47530853 113.5654245 -63.48967957 114.4511615 -63.50448608 115.36373901 C-63.45146373 122.72551516 -61.72936861 129.53904805 -57.10546875 135.40234375 C-51.49449926 139.89340487 -46.67085361 143.42489499 -39.1875 142.875 C-36.94669769 142.69589828 -36.94669769 142.69589828 -35 142 C-32.68667514 138.53001271 -32.66042437 137.07490752 -33 133 C-35.13331412 129.80002882 -35.45857428 129.60031989 -38.875 128.5625 C-43.1789551 127.07837755 -45.9193726 125.16125479 -48 121 C-48.11129674 118.34533893 -48.16411944 115.71778978 -48.16796875 113.0625 C-48.17296135 111.87043945 -48.17296135 111.87043945 -48.17805481 110.65429688 C-48.18312528 108.96631448 -48.1854631 107.27832203 -48.18530273 105.59033203 C-48.18746784 103.03791085 -48.20556204 100.48593717 -48.22460938 97.93359375 C-48.27837277 83.06194562 -47.22726856 71.50363605 -36.625 60.125 C-29.90445614 53.80679469 -22.16282208 51.49658746 -13.078125 51.59375 C-5.28600125 52.62215212 2.21116087 57.08400096 7.46875 62.8828125 C14.27765704 72.29716866 16.15134838 81.27613178 16.16796875 92.63671875 C16.17129715 93.43858109 16.17462555 94.24044342 16.17805481 95.06660461 C16.1830879 96.74988231 16.18546426 98.43316986 16.18530273 100.11645508 C16.18750251 102.69043192 16.2057323 105.26398866 16.22460938 107.83789062 C16.22754142 109.47916521 16.22952748 111.12044182 16.23046875 112.76171875 C16.23765427 113.52844406 16.24483978 114.29516937 16.25224304 115.08512878 C16.22318735 121.86471099 16.22318735 121.86471099 14 125 C11.23776042 126.97302827 8.37148704 128.28057514 5.25 129.5625 C1.92405125 130.6209936 1.92405125 130.6209936 1 133 C0.61496624 136.54231061 0.58064041 138.36257342 2.5625 141.375 C6.05792799 143.70528532 7.8336282 143.60479591 12 143 C18.68263832 140.60653524 24.34670894 137.22539007 28 131 C30.73187816 124.81565385 31.45601255 119.7739994 31.43359375 113.05078125 C31.4388356 112.11630661 31.44407745 111.18183197 31.44947815 110.21903992 C31.45587104 108.24995918 31.45459699 106.28084012 31.44604492 104.31176758 C31.43757262 101.33799124 31.46627412 98.36616345 31.49804688 95.39257812 C31.56386125 77.72831371 28.36766035 63.29558654 16.03515625 49.87890625 C9.08741929 43.4645848 0.93801553 39.78340522 -8 37 C-7.75018237 29.11825385 -6.91604652 21.66739286 -5.125 14 C-4.88281738 12.94244507 -4.88281738 12.94244507 -4.63574219 11.86352539 C-3.5858894 7.58206264 -2.11310122 3.86395651 0 0 Z " fill="#E0F1F4" transform="translate(264,316)"/>
<path d="M0 0 C6.99230913 -0.15251168 13.98418725 -0.25736682 20.9777832 -0.32958984 C23.3552249 -0.35970659 25.732556 -0.40060932 28.10961914 -0.45263672 C31.53299279 -0.52567251 34.9548939 -0.55950887 38.37890625 -0.5859375 C39.43646622 -0.61690521 40.49402618 -0.64787292 41.58363342 -0.67977905 C46.69525827 -0.68209439 50.03865428 -0.52819911 54.0065918 2.88305664 C55.00613414 3.92036429 56.00400623 4.95928463 57 6 C72.77599795 17.63371223 91.25124526 25.61830291 110 31 C110.75845215 31.22139648 111.5169043 31.44279297 112.29833984 31.67089844 C129.19363515 36.47595006 146.58945243 38.14117218 164 40 C164.10040413 45.26117662 164.17217623 50.52177117 164.21972656 55.78369141 C164.2395907 57.56601703 164.2666916 59.34827975 164.30175781 61.13037109 C164.58628334 75.98427722 163.46503314 89.98228634 156.25 103.3125 C155.73566406 104.29766602 155.73566406 104.29766602 155.2109375 105.30273438 C144.73954507 124.85060748 128.90003935 137.80263546 108 145 C85.83575269 151.57456325 62.81005465 148.73002564 42.43554688 138.14770508 C36.75374159 135.02863674 31.7696128 131.3990809 27 127 C25.62908203 125.76636719 25.62908203 125.76636719 24.23046875 124.5078125 C10.98478612 112.00504777 0.66289367 93.69447239 -0.17398071 75.14334106 C-0.25699849 70.37541673 -0.22517805 65.60814072 -0.1953125 60.83984375 C-0.19157687 59.08150901 -0.1887325 57.32317217 -0.18673706 55.56483459 C-0.17914389 50.96337009 -0.15953303 46.36203421 -0.1373291 41.76062012 C-0.11677712 37.05462381 -0.10771544 32.34860649 -0.09765625 27.64257812 C-0.07628261 18.42832927 -0.04219948 9.21417538 0 0 Z " fill="#FBE6CB" transform="translate(240,140)"/>
<path d="M0 0 C1.04800781 0.495 2.09601563 0.99 3.17578125 1.5 C13.0769343 6.54371328 21.52883103 13.896374 30 21 C28.58229482 25.25311553 25.39852798 26.81777206 21.875 29.3125 C-2.84696958 47.33922638 -21.36592402 70.73184803 -35 98 C-79.88 98 -124.76 98 -171 98 C-169.83071276 82.79926583 -169.83071276 82.79926583 -167.875 76.1875 C-167.65618164 75.43106201 -167.43736328 74.67462402 -167.21191406 73.89526367 C-157.4489056 41.44104657 -136.46764569 16.23623589 -106.78125 -0.078125 C-73.34645931 -17.63664715 -33.48366688 -16.03695703 0 0 Z " fill="#E0F1F5" transform="translate(187,298)"/>
<path d="M0 0 C1.02859131 -0.0065712 2.05718262 -0.0131424 3.11694336 -0.01991272 C6.50463953 -0.03954651 9.89229164 -0.05128454 13.2800293 -0.0612793 C15.02240403 -0.06739259 15.02240403 -0.06739259 16.79997826 -0.07362938 C22.94526361 -0.09444518 29.09052692 -0.10876777 35.23583984 -0.11816406 C41.56735703 -0.12923492 47.89852343 -0.16365603 54.22991657 -0.20333576 C59.11397437 -0.22952585 63.9979487 -0.23785792 68.88207054 -0.24144554 C71.21555139 -0.24630316 73.54902872 -0.25789344 75.88244057 -0.27648354 C79.15367879 -0.30093122 82.42401017 -0.29989961 85.6953125 -0.29296875 C86.64889145 -0.30577881 87.6024704 -0.31858887 88.58494568 -0.33178711 C98.53657871 -0.25534184 106.34260298 3.07420227 113.5612793 9.8840332 C129.74449296 28.62081115 121.54174805 59.38140092 121.54174805 80.17700195 C67.42174805 80.17700195 13.30174805 80.17700195 -42.45825195 80.17700195 C-42.45825195 21.61700195 -42.45825195 21.61700195 -33.33325195 10.30200195 C-23.58126802 1.46020319 -12.58678562 0.03526765 0 0 Z " fill="#E0F1F5" transform="translate(282.458251953125,43.822998046875)"/>
<path d="M0 0 C35.64 0 71.28 0 108 0 C108.103125 8.91 108.20625 17.82 108.3125 27 C108.35802002 29.77792969 108.40354004 32.55585938 108.45043945 35.41796875 C108.63917987 55.13111763 106.70280239 71.62890076 92.75 86.75 C79.45950169 99.0932913 65.35443908 101.9847788 47.74609375 101.4453125 C33.74224703 100.63263992 22.35229696 93.14232283 12.8125 83.16015625 C5.09225187 73.95908466 -0.14079188 62.37080163 -0.11352539 50.29174805 C-0.11340454 49.15539917 -0.11328369 48.01905029 -0.11315918 46.8482666 C-0.10804321 45.66470581 -0.10292725 44.48114502 -0.09765625 43.26171875 C-0.09664917 42.16589478 -0.09564209 41.0700708 -0.09460449 39.94104004 C-0.0893815 35.85651601 -0.07542023 31.77200693 -0.0625 27.6875 C-0.041875 18.550625 -0.02125 9.41375 0 0 Z " fill="#FBE6CB" transform="translate(80,168)"/>
<path d="M0 0 C0.73700638 -0.0065712 1.47401276 -0.0131424 2.23335266 -0.01991272 C4.67363594 -0.03962859 7.11385759 -0.051307 9.55419922 -0.0612793 C10.38972195 -0.06535482 11.22524467 -0.06943035 12.08608627 -0.07362938 C16.51197817 -0.09448692 20.93783913 -0.10878769 25.36376953 -0.11816406 C29.91989498 -0.1292032 34.47552863 -0.16357482 39.03148079 -0.20333576 C42.54726016 -0.22957594 46.06292391 -0.23786263 49.57879257 -0.24144554 C51.25720399 -0.24629562 52.93561079 -0.2578643 54.61392593 -0.27648354 C73.80394768 -0.47607456 73.80394768 -0.47607456 80.89013672 6.2121582 C81.33357422 6.88118164 81.77701172 7.55020508 82.23388672 8.23950195 C82.92998047 9.2469043 82.92998047 9.2469043 83.64013672 10.2746582 C89.94705637 21.24419345 85.73388672 35.52362537 85.73388672 48.17700195 C50.09388672 48.17700195 14.45388672 48.17700195 -22.26611328 48.17700195 C-22.26611328 11.22306721 -22.26611328 11.22306721 -16.23095703 5.1184082 C-15.56193359 4.66336914 -14.89291016 4.20833008 -14.20361328 3.73950195 C-13.53201172 3.26641602 -12.86041016 2.79333008 -12.16845703 2.3059082 C-8.19968618 -0.04927614 -4.46470491 0.01727159 0 0 Z " fill="#E0F1F5" transform="translate(102.26611328125,103.822998046875)"/>
<path d="M0 0 C-3.98983892 6.09798354 -8.15123776 12.0285106 -12.5 17.875 C-13.7318173 19.5390281 -14.96358671 21.20309166 -16.1953125 22.8671875 C-16.82211914 23.71249023 -17.44892578 24.55779297 -18.09472656 25.42871094 C-21.19565311 29.61361078 -24.28545857 33.8066916 -27.375 38 C-27.95717285 38.78979248 -28.5393457 39.57958496 -29.13916016 40.39331055 C-33.45017217 46.24485178 -37.73926189 52.11171286 -42 58 C-46.42609452 53.86238464 -49.89395806 49.27679141 -53.4375 44.375 C-54.67958577 42.67310284 -55.92177633 40.97128214 -57.1640625 39.26953125 C-57.79731445 38.39893066 -58.43056641 37.52833008 -59.08300781 36.63134766 C-62.14371352 32.43008861 -65.22853978 28.24669982 -68.3125 24.0625 C-68.89201416 23.27343262 -69.47152832 22.48436523 -70.06860352 21.67138672 C-72.6417658 18.17212131 -75.2267525 14.68599755 -77.87890625 11.24609375 C-78.30582764 10.68978271 -78.73274902 10.13347168 -79.17260742 9.56030273 C-80.28344425 8.11880869 -81.40305608 6.68408822 -82.5234375 5.25 C-84 3 -84 3 -84 0 C-58.89126994 -7.2568584 -24.82812683 -9.45441916 0 0 Z " fill="#DFF0F4" transform="translate(365,309)"/>
<path d="M0 0 C4.09134968 0.85236452 5.42217583 2.36493761 8 5.625 C8.36771245 8.4637401 8.48630804 10.64320151 8.3125 13.4375 C8.28994141 14.13037109 8.26738281 14.82324219 8.24414062 15.53710938 C8.18562661 17.23401573 8.0959548 18.92979861 8 20.625 C8.95261719 20.59019531 9.90523438 20.55539063 10.88671875 20.51953125 C12.14097656 20.49246094 13.39523437 20.46539062 14.6875 20.4375 C15.92886719 20.40269531 17.17023438 20.36789063 18.44921875 20.33203125 C22.21666932 20.64287701 24.02794917 21.3477143 27 23.625 C28.40457737 26.43415474 28.24895157 28.51310534 28 31.625 C26.22015595 34.7609157 25.47691793 35.46602736 22 36.625 C19.60509014 36.69470052 17.20832309 36.70948003 14.8125 36.6875 C13.54019531 36.67847656 12.26789063 36.66945312 10.95703125 36.66015625 C9.49330078 36.64275391 9.49330078 36.64275391 8 36.625 C8.05220703 38.05392578 8.05220703 38.05392578 8.10546875 39.51171875 C8.13253906 40.76597656 8.15960938 42.02023438 8.1875 43.3125 C8.23970703 45.17455078 8.23970703 45.17455078 8.29296875 47.07421875 C7.98212299 50.84166932 7.2772857 52.65294917 5 55.625 C2.19084526 57.02957737 0.11189466 56.87395157 -3 56.625 C-6.1359157 54.84515595 -6.84102736 54.10191793 -8 50.625 C-8.06970052 48.23009014 -8.08448003 45.83332309 -8.0625 43.4375 C-8.05347656 42.16519531 -8.04445313 40.89289063 -8.03515625 39.58203125 C-8.02355469 38.60621094 -8.01195312 37.63039062 -8 36.625 C-9.02480469 36.68300781 -10.04960937 36.74101563 -11.10546875 36.80078125 C-12.46610011 36.84769957 -13.82678096 36.89319752 -15.1875 36.9375 C-16.19780273 37.0003418 -16.19780273 37.0003418 -17.22851562 37.06445312 C-21.17939652 37.16081607 -22.81458225 36.7716151 -25.94921875 34.29296875 C-28 31.625 -28 31.625 -28.625 28.625 C-27.77263548 24.53365032 -26.26006239 23.20282417 -23 20.625 C-20.1612599 20.25728755 -17.98179849 20.13869196 -15.1875 20.3125 C-14.49462891 20.33505859 -13.80175781 20.35761719 -13.08789062 20.38085938 C-11.39098427 20.43937339 -9.69520139 20.5290452 -8 20.625 C-8.05800781 19.60019531 -8.11601562 18.57539062 -8.17578125 17.51953125 C-8.22269957 16.15889989 -8.26819752 14.79821904 -8.3125 13.4375 C-8.35439453 12.76396484 -8.39628906 12.09042969 -8.43945312 11.39648438 C-8.53581607 7.44560348 -8.1466151 5.81041775 -5.66796875 2.67578125 C-3 0.625 -3 0.625 0 0 Z " fill="#414242" transform="translate(324,55.375)"/>
<path d="M0 0 C28.38 0 56.76 0 86 0 C86 7.92 86 15.84 86 24 C74.72462908 24 74.72462908 24 70.22265625 23.30078125 C68.72496704 23.0689917 68.72496704 23.0689917 67.19702148 22.83251953 C66.16262939 22.66091309 65.1282373 22.48930664 64.0625 22.3125 C62.97074463 22.13315918 61.87898926 21.95381836 60.75415039 21.76904297 C39.02943716 18.06277291 19.48057252 11.20657656 0 1 C0 0.67 0 0.34 0 0 Z " fill="#9F867E" transform="translate(318,140)"/>
<path d="M0 0 C4.66360382 2.66088686 7.57749 6.38105037 9.625 11.3125 C10.30969154 17.69702627 10.56119072 23.97959645 6.625 29.3125 C1.82434682 34.21983436 -2.24593038 37.00472266 -9.1875 37.6875 C-14.53698154 37.52600622 -19.03239714 35.53055941 -22.91796875 31.8515625 C-27.69233915 26.33513453 -28.84565424 22.23129355 -28.68359375 15.0625 C-27.93351527 8.3782563 -24.05154467 4.63550157 -19.05859375 0.4765625 C-13.63562429 -3.27296163 -5.75635124 -2.67837731 0 0 Z " fill="#FCFCFC" transform="translate(417.375,400.6875)"/>
</svg>
