<?xml version="1.0" encoding="UTF-8"?>
<svg version="1.1" xmlns="http://www.w3.org/2000/svg" width="512" height="512">
<path d="M0 0 C11.1506165 8.7966528 22.17460503 21.07605573 23.98669434 35.65837097 C24.06327271 36.35505386 24.13985107 37.05173676 24.21875 37.76953125 C24.34473572 38.87999565 24.34473572 38.87999565 24.4732666 40.01289368 C25.46206441 49.39559408 25.53275676 58.79988497 25.65673828 68.2253418 C25.6905436 70.57100242 25.73553572 72.91626474 25.78125 75.26171875 C25.78916565 76.31645638 25.78916565 76.31645638 25.79724121 77.39250183 C25.8835542 81.67409907 26.63427295 85.12514281 28.125 89.125 C29.72704121 101.50287631 26.35480707 114.02684812 19.3125 124.25 C10.22391541 135.53471097 -1.79040044 140.01607315 -15.97265625 141.85546875 C-19.3143996 142.16580562 -22.52418971 142.28085164 -25.875 142.125 C-25.545 145.425 -25.215 148.725 -24.875 152.125 C-23.98039062 152.09019531 -23.08578125 152.05539063 -22.1640625 152.01953125 C-8.43336641 151.71212761 2.32363097 154.68697251 12.57421875 164.18359375 C16.68933556 168.41010969 19.15392526 173.18523946 21.75 178.4375 C22.25144531 179.42210205 22.75289062 180.4067041 23.26953125 181.42114258 C25.80532217 186.41876385 28.28503313 191.44377294 30.7605896 196.47145081 C31.64121047 198.25876943 32.52445214 200.04479599 33.40771484 201.83081055 C34.53405719 204.11439999 35.6518827 206.40221425 36.76025391 208.69458008 C37.27249512 209.73767334 37.78473633 210.7807666 38.3125 211.85546875 C38.75980469 212.77739014 39.20710937 213.69931152 39.66796875 214.64916992 C41.60508164 217.94076875 43.68136303 220.45933817 47.18359375 222.07421875 C49.21183434 222.34225918 49.21183434 222.34225918 50.66015625 220.83203125 C51.16417969 220.20683594 51.66820312 219.58164063 52.1875 218.9375 C57.18825974 213.57187796 63.94064157 211.03764891 71.25 210.6875 C80.37289932 211.71750476 87.91694646 215.90272923 95.8125 220.375 C96.81861328 220.92285156 97.82472656 221.47070312 98.86132812 222.03515625 C107.5670049 226.93604482 113.01193803 232.02737831 116.4296875 241.51953125 C118.60903945 249.6859793 117.12539998 256.77486751 113.125 264.125 C111.5268271 266.22353544 109.90158572 268.21263804 108.1015625 270.140625 C106.83018401 272.20193959 106.83018401 272.20193959 107.7578125 274.9765625 C109.14644013 278.17437355 110.70575698 281.18972113 112.375 284.25 C115.39992568 290.06391513 117.55472903 295.97764918 119.4375 302.25 C119.67952148 303.04809082 119.92154297 303.84618164 120.17089844 304.66845703 C123.39170638 315.84134438 124.49134149 326.70350592 124.4375 338.3125 C124.43186035 339.58971924 124.4262207 340.86693848 124.42041016 342.18286133 C123.98959945 375.80102589 110.3496544 405.10781289 87.125 429.125 C86.40054688 429.88941406 85.67609375 430.65382813 84.9296875 431.44140625 C81.12020688 435.37786956 77.17981769 438.75391442 72.69140625 441.8984375 C70.97986407 443.05818727 70.97986407 443.05818727 70.125 445.125 C69.9944178 447.49869416 69.89515865 449.8741542 69.8125 452.25 C69.49972458 458.058785 69.12186857 463.60251584 65.125 468.125 C60.51163324 471.76577222 57.49210994 472.62618999 51.64831543 472.63293457 C50.55054189 472.64229451 50.55054189 472.64229451 49.43059111 472.65184355 C46.98920261 472.6677417 44.54881698 472.65518251 42.10742188 472.64257812 C40.35274169 472.64800068 38.59806607 472.65512409 36.84339905 472.66381836 C32.08512501 472.68203879 27.32719826 472.67498947 22.56891823 472.66230202 C17.58691097 472.65216774 12.60493324 472.66156889 7.6229248 472.66784668 C-0.74313693 472.67512183 -9.10905738 472.66553884 -17.47509766 472.64648438 C-27.14434841 472.6247159 -36.81326179 472.63176737 -46.48250437 472.65379 C-54.78756296 472.67194775 -63.09252004 472.67450048 -71.39759207 472.66403532 C-76.35643131 472.65780246 -81.31511201 472.65695908 -86.27394104 472.67018127 C-90.93620645 472.68174458 -95.5980373 472.67370525 -100.26025581 472.65060425 C-101.97026918 472.64531973 -103.68031918 472.64682656 -105.39031792 472.65565491 C-107.72680908 472.66660463 -110.06191243 472.65285544 -112.39831543 472.63293457 C-114.35834126 472.63067242 -114.35834126 472.63067242 -116.35796356 472.62836456 C-121.15837579 471.94132096 -124.16578929 469.8262977 -127.5625 466.4453125 C-141.67872855 441.48983702 -141.5830724 402.61047146 -134.22460938 375.75097656 C-132.1531988 368.37549951 -129.82884838 361.08388789 -127.48046875 353.79296875 C-117.35771208 322.23732267 -119.10022846 292.31700901 -123.875 259.875 C-129.81934776 218.96529175 -129.81934776 218.96529175 -126 205.5 C-125.65195313 204.22898438 -125.30390625 202.95796875 -124.9453125 201.6484375 C-123.97482314 198.45361488 -122.95413336 195.28462469 -121.875 192.125 C-123.1125 192.2075 -124.35 192.29 -125.625 192.375 C-128.50478738 192.56698583 -129.59455579 192.32151565 -131.9884491 190.64404297 C-134.6818328 187.04766544 -134.35167881 183.73521052 -134.20043945 179.4296875 C-134.18434033 178.55134247 -134.16824121 177.67299744 -134.15165424 176.76803589 C-134.08750143 173.88542102 -133.98694529 171.00613856 -133.875 168.125 C-133.82046473 166.68864197 -133.82046473 166.68864197 -133.76482773 165.2232666 C-133.46982078 157.89487022 -133.0754445 150.57286939 -132.66796875 143.25 C-132.54043152 140.90512169 -132.41310124 138.56023212 -132.28596497 136.21533203 C-132.01989171 131.33409161 -131.74951107 126.45311253 -131.47631836 121.57226562 C-131.12998992 115.37395278 -130.79734268 109.17499001 -130.46830273 102.97573853 C-130.20976627 98.14326057 -129.94242897 93.31129746 -129.67272377 88.47943115 C-129.54656842 86.19627169 -129.4233503 83.91294763 -129.30336571 81.62945557 C-127.7030443 51.35904188 -125.05774573 25.04582976 -101.875 3.125 C-72.85149396 -21.84970564 -30.44438142 -23.04221809 0 0 Z " fill="#0C2330" transform="translate(262.875,27.875)"/>
<path d="M0 0 C5.94064562 -0.14930093 11.88017848 -0.25766335 17.82226562 -0.32958984 C19.83971197 -0.35959984 21.85702964 -0.40042213 23.87402344 -0.45263672 C44.76355687 -0.97952406 44.76355687 -0.97952406 50.98300171 4.0620575 C56.8892153 9.7367784 60.44682065 17.50024093 63.96875 24.78515625 C64.87883025 26.63350096 65.78898886 28.4818071 66.69921875 30.33007812 C68.10361072 33.20100112 69.50523474 36.07324695 70.90478516 38.9465332 C72.27331996 41.75037812 73.65186205 44.54913851 75.03125 47.34765625 C75.44080933 48.19683121 75.85036865 49.04600616 76.27233887 49.9209137 C80.87556103 59.60558563 80.87556103 59.60558563 88.73828125 66.34765625 C89.58777344 66.58355469 90.43726563 66.81945312 91.3125 67.0625 C93.9453125 68.2265625 93.9453125 68.2265625 96 70 C96.59390785 73.02968183 96.69222785 75.84036931 96.67895508 78.92041016 C96.76708233 87.69278801 100.42415002 94.88681299 106.18359375 101.51171875 C112.16949843 107.12415277 119.49756107 112.11798142 128.00488281 111.96362305 C128.74577148 111.92664307 129.48666016 111.88966309 130.25 111.8515625 C131.41015625 111.79935547 131.41015625 111.79935547 132.59375 111.74609375 C134.19926339 111.66529681 135.8037667 111.56106401 137.40625 111.43359375 C143.08359786 111.23488657 143.08359786 111.23488657 145.54833984 113.29272461 C148.71503759 117.50117825 150.7106807 122.43663233 152.625 127.3125 C152.92494873 128.06233154 153.22489746 128.81216309 153.53393555 129.5847168 C155.6635808 134.97907966 157.66237972 140.34808331 159 146 C159.20367187 146.8353125 159.40734375 147.670625 159.6171875 148.53125 C165.45938501 177.02196665 157.85796182 206.53632374 143 231 C140.52487924 234.52398382 137.84719136 237.77245865 135 241 C134.32453125 241.80695313 133.6490625 242.61390625 132.953125 243.4453125 C128.26502388 248.90335723 123.20242227 253.57879548 117.60473633 258.07006836 C114.85719847 260.29925063 112.5153413 262.49178673 110.31640625 265.2734375 C108 268 108 268 104.6875 268.875 C103.3571875 268.936875 103.3571875 268.936875 102 269 C102.34786708 270.97536745 102.34786708 270.97536745 103 273 C103.66 273.33 104.32 273.66 105 274 C105 278.29 105 282.58 105 287 C50.22 287 -4.56 287 -61 287 C-66.8943975 268.13792799 -66.8943975 268.13792799 -67.8125 261.875 C-67.92867676 261.09842041 -68.04485352 260.32184082 -68.16455078 259.52172852 C-71.47453828 234.93081254 -66.9605506 213.77243879 -58.91308594 190.65820312 C-49.2974502 162.6648764 -47.7108956 133.60219725 -52.34375 104.45703125 C-52.84875325 101.26722557 -53.16098714 98.23986627 -53 95 C-49.26538217 99.49114813 -46.8836272 104.81217747 -44.22851562 109.9765625 C-43.84244141 110.7190625 -43.45636719 111.4615625 -43.05859375 112.2265625 C-42.71111084 112.90283691 -42.36362793 113.57911133 -42.00561523 114.27587891 C-40.99772055 116.17197571 -40.99772055 116.17197571 -39 118 C-33.44999515 118.37627152 -29.36064304 117.63347285 -24 116 C-23.33355469 117.00417969 -22.66710937 118.00835937 -21.98046875 119.04296875 C2.28120821 155.2174317 35.13549369 181.72836959 77.046875 194.7109375 C82.90244411 196.55276333 88.33495141 199.09099539 93.71484375 202.03515625 C100.02374174 204.69891318 106.10972721 205.36323049 112.875 205.3125 C114.06017212 205.30404053 114.06017212 205.30404053 115.26928711 205.29541016 C121.24877919 205.17125995 126.52874237 204.5729698 132 202 C132.78761719 201.63261719 133.57523438 201.26523437 134.38671875 200.88671875 C141.35804442 196.98047181 144.31011225 191.35843869 147 184 C148.0318466 180.33619685 148.63757683 176.78592816 149 173 C149.09410156 172.15566406 149.18820312 171.31132812 149.28515625 170.44140625 C149.76036478 162.63092766 147.00416129 157.00313541 142.37890625 150.83984375 C136.20273997 143.94644526 126.26703074 138.17072078 117 137 C115.09346674 136.92713886 113.1867189 136.85630682 111.27929688 136.8125 C85.66366705 136.06934483 62.51261432 120.83649358 45 103 C41.43808792 99.20887865 37.86442982 95.34695672 35 91 C36 88 36 88 37.77734375 86.90234375 C38.49019531 86.58394531 39.20304687 86.26554687 39.9375 85.9375 C42.50887099 84.77548298 43.97683978 84.02316022 46 82 C46.59776532 76.41861816 45.5557173 73.52311367 42.4375 68.9375 C41.6911504 67.78784758 40.94906924 66.63541461 40.2109375 65.48046875 C39.83678711 64.8982959 39.46263672 64.31612305 39.07714844 63.71630859 C32.84872347 53.79205031 29.03695023 43.03287531 25.37133789 31.96972656 C23.06953651 25.2245443 20.28130021 19.69638724 16 14 C15.34515625 13.07703125 14.6903125 12.1540625 14.015625 11.203125 C11.53302806 8.48958881 8.853757 6.71421337 5.75 4.75 C3.81948735 3.52149195 1.8984147 2.27754951 0 1 C0 0.67 0 0.34 0 0 Z " fill="#F6859C" transform="translate(210,197)"/>
<path d="M0 0 C13.40515851 13.15565471 13.40515851 13.15565471 13.5 21.625 C5.0499506 35.17533498 -14.37289668 45.09992715 -27.5 53.625 C-30.11263786 51.0860374 -32.42987963 48.4790781 -34.6875 45.625 C-39.30969372 40.38716525 -43.75554915 38.10741391 -50.68359375 37.21484375 C-57.9415753 36.88760528 -63.03024085 37.69680116 -68.5 42.625 C-73.53858147 47.93593723 -75.92403138 53.16163753 -75.875 60.5 C-75.63441481 69.32762595 -74.24692781 73.75889135 -68.3125 80.25 C-64.06821611 85.38864316 -63.44006846 89.32764012 -63.84765625 95.90625 C-68.18125287 120.61034569 -86.39912093 135.6068513 -105.70336914 149.40087891 C-107.5 150.625 -107.5 150.625 -109.5 151.625 C-108.57270067 125.20450823 -107.31197865 98.81409607 -105.63035583 72.43143463 C-105.50068806 70.38585457 -105.37339582 68.34013892 -105.2467041 66.29437256 C-105.00608259 62.41965751 -104.75390671 58.54574338 -104.5 54.671875 C-104.42916199 53.52983612 -104.35832397 52.38779724 -104.28533936 51.21115112 C-102.80554955 29.33591819 -97.78618471 12.80870568 -81.07617188 -2.06054688 C-57.84744925 -21.43220775 -22.40241535 -19.43840347 0 0 Z " fill="#794D4C" transform="translate(255.5,43.375)"/>
<path d="M0 0 C2.36829947 1.7531351 3.71310506 3.78017017 5.35913086 6.22119141 C21.83450465 29.45025703 49.28188697 48.95093544 77.73413086 54.28369141 C80.81621836 54.56605553 83.89067919 54.65528348 86.98413086 54.72119141 C95.69358578 54.91702421 102.93611342 56.86993077 109.53881836 62.94384766 C112.91168606 66.82169272 114.07961432 69.71969661 114.02319336 74.85400391 C113.40095223 80.08419283 111.65140211 85.87770396 108.33959961 90.03369141 C105.21144047 92.4692411 101.58024323 92.7541542 97.73413086 93.28369141 C96.78280273 93.41646484 95.83147461 93.54923828 94.85131836 93.68603516 C86.74660605 94.26494318 81.31870536 92.07930657 74.29663086 88.47265625 C69.49992784 86.02859148 64.94458679 84.34825598 59.73413086 83.03369141 C41.12364707 78.07471598 23.72227133 68.23285181 8.73413086 56.28369141 C8.11505859 55.79400879 7.49598633 55.30432617 6.8581543 54.79980469 C-5.07157529 45.25287333 -15.15218158 34.55471431 -24.07836914 22.15869141 C-24.61284668 21.42368408 -25.14732422 20.68867676 -25.69799805 19.93139648 C-26.18059082 19.24070068 -26.66318359 18.55000488 -27.16040039 17.83837891 C-27.59199463 17.22462402 -28.02358887 16.61086914 -28.46826172 15.97851562 C-29.26586914 14.28369141 -29.26586914 14.28369141 -28.26586914 11.28369141 C-24.76010935 9.16323535 -21.02628914 7.52301491 -17.30175781 5.82055664 C-15.46183942 4.97508364 -13.63663733 4.10242282 -11.81079102 3.22705078 C-10.65514648 2.69273437 -9.49950195 2.15841797 -8.30883789 1.60791016 C-7.24689209 1.11379639 -6.18494629 0.61968262 -5.09082031 0.1105957 C-2.26586914 -0.71630859 -2.26586914 -0.71630859 0 0 Z " fill="#F8C18F" transform="translate(230.265869140625,293.71630859375)"/>
<path d="M0 0 C11.57789218 7.60885173 15.01855596 19.74822633 19.16650391 32.2644043 C21.52123023 39.15370161 24.59570713 45.41435128 28.2434082 51.70776367 C29.22898925 53.43545429 30.12314319 55.21466894 31 57 C30 60 30 60 28.3727417 61.04170227 C27.66804749 61.35447617 26.96335327 61.66725006 26.23730469 61.98950195 C25.43846863 62.3503035 24.63963257 62.71110504 23.81658936 63.08283997 C22.50745575 63.6547834 22.50745575 63.6547834 21.171875 64.23828125 C20.27188782 64.64153122 19.37190063 65.04478119 18.44464111 65.46025085 C15.55075873 66.75431447 12.65064122 68.03366838 9.75 69.3125 C7.84070594 70.16242396 5.93184633 71.0133246 4.0234375 71.86523438 C1.23821997 73.10830551 -1.54762027 74.34977605 -4.33654785 75.58450317 C-10.48050483 78.30575608 -16.5726545 81.11396249 -22.62792969 84.02807617 C-25 85 -25 85 -28 85 C-34.59634245 72.15838095 -40.60560449 59.30605401 -45.25 45.625 C-45.8231897 43.97987427 -45.8231897 43.97987427 -46.40795898 42.30151367 C-49.58880684 32.56281409 -50.58159298 23.86253545 -46.25390625 14.34765625 C-41.80045513 6.00957487 -35.99213882 0.36127468 -27.10546875 -3.140625 C-17.90913668 -5.68552192 -8.36686538 -4.48270413 0 0 Z " fill="#B2DEE7" transform="translate(206,213)"/>
<path d="M0 0 C0.029729 1.36934692 0.029729 1.36934692 0.06005859 2.76635742 C0.13836264 6.16782472 0.22506225 9.56886604 0.31738281 12.9699707 C0.35555952 14.43928862 0.39043182 15.90869639 0.421875 17.37817383 C0.46777289 19.49593114 0.52572372 21.6130759 0.5859375 23.73046875 C0.6173584 25.00301514 0.6487793 26.27556152 0.68115234 27.58666992 C0.9840538 30.82929267 1.67426698 33.0596174 3 36 C3.72618447 44.72934248 -0.12878864 53.39615285 -5.671875 59.98828125 C-14.5792872 68.22150858 -26.27385639 67.89091246 -37.73046875 68.72851562 C-38.98988281 68.83744141 -40.24929687 68.94636719 -41.546875 69.05859375 C-42.68995117 69.14423584 -43.83302734 69.22987793 -45.01074219 69.31811523 C-48.54288676 70.12383884 -49.8378764 71.12792051 -52 74 C-52.81594091 81.3434682 -51.12449416 88.74554084 -50 96 C-50.80107178 96.01981934 -51.60214355 96.03963867 -52.42749023 96.06005859 C-56.09779348 96.15599691 -59.76758045 96.26539563 -63.4375 96.375 C-64.69755859 96.4059375 -65.95761719 96.436875 -67.25585938 96.46875 C-74.10581559 96.68337004 -80.37416711 97.22638206 -87 99 C-86.41702148 98.23357178 -86.41702148 98.23357178 -85.82226562 97.45166016 C-84.20013877 95.31189409 -82.60094374 93.1556567 -81 91 C-80.4121875 90.22914063 -79.824375 89.45828125 -79.21875 88.6640625 C-74.65145882 82.47418104 -71.58825855 76.23385082 -69 69 C-68.67902344 68.15050781 -68.35804688 67.30101562 -68.02734375 66.42578125 C-65.07084634 57.44627982 -63.83858817 45.84301666 -67.171875 36.83203125 C-69.35640447 33.11044883 -71.93211464 30.06589676 -74.875 26.9375 C-77.42585115 23.41132341 -77.68386977 21.32019662 -77.41796875 17.05859375 C-77 15 -77 15 -75.375 12.4375 C-72.23662393 10.53795659 -70.62199908 10.42048015 -67 11 C-60.8587833 13.6132837 -58.73923423 18.47173594 -55.7109375 24.22265625 C-53.979196 27.03377087 -52.9545875 28.54403901 -50 30 C-44.93094245 29.86529777 -40.98393874 27.67541911 -36.6875 25.1875 C-36.00034912 24.7944165 -35.31319824 24.40133301 -34.60522461 23.99633789 C-23.55968923 17.54280874 -12.79836941 10.21682534 -3.56640625 1.328125 C-2 0 -2 0 0 0 Z " fill="#F7C08E" transform="translate(272,85)"/>
<path d="M0 0 C3.78996194 1.56223565 7.23914779 3.58148246 10.75 5.6875 C11.68199219 6.21794922 12.61398437 6.74839844 13.57421875 7.29492188 C22.26580423 12.37644423 22.26580423 12.37644423 25 17 C25.60533739 21.76703197 25.55352186 23.91424559 23.375 28.1875 C19.28587879 33.02988038 14.74322413 37.59856789 8.1953125 38.30078125 C-2.10912295 38.34011116 -2.10912295 38.34011116 -7 35 C-7.86625 34.443125 -8.7325 33.88625 -9.625 33.3125 C-14.71319487 28.35820499 -16.26730005 23.57659882 -16.5625 16.5 C-16.38317647 10.56163243 -15.07706148 6.37566317 -11 2 C-7.21684861 -0.52210092 -4.37129126 -0.7875955 0 0 Z " fill="#F8C18E" transform="translate(338,256)"/>
<path d="M0 0 C6.69319802 0.42496495 12.64857872 1.89169941 19 4 C18.67 5.65 18.34 7.3 18 9 C11.50681668 8.6141346 5.88233114 7.88768983 0 5 C-0.77734375 2.95703125 -0.77734375 2.95703125 -1 1 C-0.67 0.67 -0.34 0.34 0 0 Z " fill="#162735" transform="translate(277,458)"/>
<path d="M0 0 C4.6889493 0.55619669 8.19924267 1.88182673 12.375 4.0625 C13.43460937 4.61035156 14.49421875 5.15820312 15.5859375 5.72265625 C16.38257813 6.14417969 17.17921875 6.56570313 18 7 C17.67 8.32 17.34 9.64 17 11 C10.82250044 11.81282889 6.16523091 9.0656946 1 6 C0.34 5.34 -0.32 4.68 -1 4 C-0.625 1.875 -0.625 1.875 0 0 Z " fill="#162635" transform="translate(244,445)"/>
<path d="M0 0 C3.95641112 0.48068546 6.95448621 2.63259259 10.25 4.75 C11.32765625 5.42546875 12.4053125 6.1009375 13.515625 6.796875 C16 9 16 9 16.359375 11.765625 C16.24078125 12.50296875 16.1221875 13.2403125 16 14 C11.28720797 14.50739914 9.01305215 13.06359623 5.25 10.3125 C4.28578125 9.62800781 3.3215625 8.94351562 2.328125 8.23828125 C-0.24440977 5.76502215 -0.83195948 4.52284942 -1 1 C-0.67 0.67 -0.34 0.34 0 0 Z " fill="#162635" transform="translate(214,426)"/>
<path d="M0 0 C3.59905908 0.55550695 4.99909799 1.74887248 7.25 4.5625 C7.77078125 5.20316406 8.2915625 5.84382813 8.828125 6.50390625 C9.21484375 6.99761719 9.6015625 7.49132812 10 8 C9.34 9.32 8.68 10.64 8 12 C4.40094092 11.44449305 3.00090201 10.25112752 0.75 7.4375 C0.22921875 6.79683594 -0.2915625 6.15617187 -0.828125 5.49609375 C-1.21484375 5.00238281 -1.6015625 4.50867188 -2 4 C-1.34 2.68 -0.68 1.36 0 0 Z " fill="#1B2937" transform="translate(193,406)"/>
</svg>
