<?xml version="1.0" encoding="UTF-8"?>
<svg version="1.1" xmlns="http://www.w3.org/2000/svg" width="512" height="512">
<path d="M0 0 C1.72698705 1.49961746 3.43632986 3.01986266 5.125 4.5625 C5.90359375 5.25988281 6.6821875 5.95726563 7.484375 6.67578125 C23.73886451 22.00544636 35.46934241 45.66171667 36.21168518 68.19360352 C36.24040768 71.33658664 36.23738632 74.47801367 36.22265625 77.62109375 C36.22053383 79.33752831 36.22053383 79.33752831 36.21836853 81.08863831 C36.21279301 84.72578601 36.20024498 88.36287105 36.1875 92 C36.18248184 94.4733064 36.17791948 96.94661377 36.17382812 99.41992188 C36.1628316 105.46746912 36.14611788 111.51498008 36.125 117.5625 C36.74826172 117.85890381 37.37152344 118.15530762 38.01367188 118.46069336 C44.83401033 122.01991947 48.68136099 129.57316693 51.125 136.5625 C53.89213155 145.74937676 52.28105228 155.57484941 47.87109375 163.94140625 C42.63341712 172.37592093 36.36505344 177.80834489 26.890625 180.91796875 C22.84015206 181.8619349 19.26704426 181.83410946 15.125 181.5625 C15.15722656 182.57183594 15.18945312 183.58117187 15.22265625 184.62109375 C14.82771709 200.56083842 6.61016786 215.98848778 -3.875 227.5625 C-4.84953125 228.64144531 -4.84953125 228.64144531 -5.84375 229.7421875 C-9.31115855 233.3884703 -12.31065956 235.81157978 -16.8125 238.0625 C-19.25286009 239.54684273 -20.60897965 240.57328662 -21.36425781 243.38183594 C-22.03513307 248.1041859 -22.01629786 252.80358802 -21.875 257.5625 C-19.9259375 257.871875 -19.9259375 257.871875 -17.9375 258.1875 C8.56850396 263.64461846 30.8145786 278.18236167 50.125 296.5625 C51.09373047 297.45195313 51.09373047 297.45195313 52.08203125 298.359375 C78.63809907 323.48502231 91.0827702 361.26065363 92.28515625 396.984375 C92.54986923 407.91082549 92.34131404 416.44610221 84.91796875 425.0546875 C79.59744932 429.5290241 74.70133707 430.00579639 68.06201172 429.98242188 C67.17023224 429.99089142 66.27845276 429.99936096 65.35964966 430.00808716 C62.4245156 430.03140591 59.489907 430.03248086 56.5546875 430.03125 C54.51018057 430.03835241 52.46567564 430.04605152 50.4211731 430.05432129 C46.14254202 430.06775266 41.86409546 430.06933986 37.58544922 430.06347656 C32.09947681 430.05756825 26.61438566 430.08822531 21.12858391 430.12859344 C16.90954814 430.15441894 12.69072639 430.15735279 8.47162247 430.15370178 C6.44857688 430.15539648 4.42552178 430.16507249 2.40255356 430.18284607 C-0.42250304 430.20494424 -3.2457512 430.19538233 -6.07080078 430.17773438 C-6.90726135 430.19099762 -7.74372192 430.20426086 -8.60552979 430.21792603 C-12.62628465 430.15946696 -14.45216716 429.96264973 -17.42526245 427.14904785 C-18.875 424.5625 -18.875 424.5625 -18.875 422.5625 C-25.145 422.5625 -31.415 422.5625 -37.875 422.5625 C-38.205 424.2125 -38.535 425.8625 -38.875 427.5625 C-42.41615449 429.92326966 -43.905908 429.81948626 -48.10429382 429.83665466 C-49.40946457 429.84662979 -50.71463531 429.85660492 -52.05935669 429.86688232 C-53.50921619 429.86777816 -54.95907584 429.86844171 -56.40893555 429.86889648 C-57.93332832 429.87651673 -59.45771724 429.88494399 -60.98210144 429.89411926 C-65.12696424 429.91608983 -69.27175324 429.92486706 -73.4166677 429.92994571 C-76.00729292 429.93358753 -78.59789877 429.9398268 -81.18851662 429.9469471 C-90.22977167 429.9714545 -99.27096929 429.98449541 -108.31225586 429.98803711 C-116.73347016 429.99166912 -125.15431925 430.02153699 -133.57542199 430.06344169 C-140.80868135 430.09817057 -148.0418199 430.11358603 -155.27516204 430.11428314 C-159.5936911 430.11507535 -163.9118486 430.12378696 -168.23029137 430.15228081 C-172.29586947 430.17850482 -176.36076925 430.18064294 -180.42639351 430.16462517 C-181.91466631 430.16281384 -183.40297848 430.16947289 -184.89116669 430.18544388 C-193.06349371 430.26776572 -199.6135167 430.28221278 -205.875 424.5625 C-210.81297872 419.23468085 -212.12840404 415.47814435 -212.2109375 408.21875 C-212.21931641 407.50146225 -212.22769531 406.7841745 -212.23632812 406.04515076 C-212.25590625 403.71737805 -212.25590376 401.39034156 -212.25 399.0625 C-212.24945618 398.2700589 -212.24891235 397.4776178 -212.24835205 396.66116333 C-212.20896318 384.22420517 -211.40264027 372.55486614 -207.875 360.5625 C-207.66069336 359.80275879 -207.44638672 359.04301758 -207.22558594 358.26025391 C-196.85007879 322.15741572 -172.26576928 290.63038115 -139.48193359 272.21655273 C-127.92633018 265.99288957 -112.24855539 257.5625 -98.875 257.5625 C-98.08972687 247.63270282 -98.08972687 247.63270282 -102.07421875 239.03515625 C-103.97247273 237.74053115 -105.91451605 236.50829229 -107.890625 235.3359375 C-116.50135629 230.21908932 -122.01209837 222.1060941 -126.875 213.5625 C-127.33777344 212.77230469 -127.80054687 211.98210937 -128.27734375 211.16796875 C-133.19188438 202.16046723 -136.23127242 191.8416191 -135.875 181.5625 C-137.15375 181.645 -138.4325 181.7275 -139.75 181.8125 C-148.63906727 181.78459084 -156.47683208 177.54788289 -162.875 171.5625 C-170.1072376 163.51028081 -173.2462279 155.04576069 -173.0859375 144.2421875 C-172.4373527 136.00275832 -169.22003775 128.83913474 -163.875 122.5625 C-162.86244141 121.91740479 -161.84988281 121.27230957 -160.80664062 120.60766602 C-158.73243586 118.88465538 -157.96769443 117.94559718 -157.32746887 115.29960632 C-157.13304761 112.42960274 -157.12332048 109.6105668 -157.17578125 106.734375 C-157.16918991 105.67196594 -157.16259857 104.60955688 -157.1558075 103.51495361 C-157.13833182 100.11350036 -157.16025629 96.71386566 -157.1875 93.3125 C-157.3177222 54.95513645 -157.3177222 54.95513645 -151.9699707 48.13183594 C-149.18386608 46.04477377 -147.26978403 46.25388327 -143.875 46.5625 C-143.77574219 45.87414062 -143.67648438 45.18578125 -143.57421875 44.4765625 C-142.45791585 39.82426104 -140.11141436 35.7738457 -137.95703125 31.5234375 C-137.42142578 30.05777344 -137.42142578 30.05777344 -136.875 28.5625 C-137.535 27.5725 -138.195 26.5825 -138.875 25.5625 C-139.29667351 22.02619262 -139.22877788 20.16279332 -137.40625 17.0703125 C-135.25242902 14.54371481 -133.09929919 12.02757384 -130.875 9.5625 C-130.22789062 8.84449219 -129.58078125 8.12648438 -128.9140625 7.38671875 C-95.75852119 -27.46043181 -37.08287971 -29.63527207 0 0 Z " fill="#010100" transform="translate(211.875,82.4375)"/>
<path d="M0 0 C0.99 0.99 0.99 0.99 2 2 C1.95875 3.175625 1.9175 4.35125 1.875 5.5625 C2.18430092 9.08079795 2.99875467 9.99881768 5.625 12.4921875 C9.50048573 15.51182188 13.30908715 18.43636238 18 20 C19.051875 19.71125 20.10375 19.4225 21.1875 19.125 C25.31982867 18.98951381 25.80337891 19.139734 28.8125 21.625 C43.40674827 35.93804888 53.36687977 54.48908197 59 74 C59.31324219 75.02722168 59.31324219 75.02722168 59.6328125 76.07519531 C68.83191238 107.20949063 63.4182973 142.52127885 48.1003418 170.69726562 C42.59468812 180.46313821 35.67852761 188.86979429 28 197 C27.26394531 197.81210938 26.52789062 198.62421875 25.76953125 199.4609375 C7.62010383 218.73520381 -20.80048237 232.65575717 -47.3046875 234.30859375 C-57.83989793 235.01047782 -62.61934213 237.04390101 -70 245 C-71.72544053 246.46688828 -73.47655555 247.90402528 -75.25 249.3125 C-79.00026125 252.34033132 -82.67173926 255.43670705 -86.30444336 258.60302734 C-103.32256452 273.41429278 -103.32256452 273.41429278 -115.921875 273.27734375 C-121.94342002 272.73479337 -125.55421066 270.41366069 -129.8125 266.25 C-134.55435437 259.20495922 -135.37872301 253.48118257 -135.01953125 245.234375 C-134.98820047 243.35552142 -134.96031416 241.47660782 -134.93554688 239.59765625 C-134.88435239 236.67442642 -134.81286881 233.75819342 -134.68139648 230.83740234 C-133.83898794 218.61247514 -133.83898794 218.61247514 -139.04956055 208.10083008 C-141.94720421 205.4365083 -145.05697916 203.20143157 -148.3682251 201.08172607 C-169.02803932 187.38605046 -181.12293525 157.28101844 -186.09765625 134.1796875 C-192.17457068 102.41459893 -186.19167137 68.27819869 -168.51171875 41.03515625 C-163.60685698 33.84791919 -158.00760886 27.28653356 -152 21 C-151.34 20.26523437 -150.68 19.53046875 -150 18.7734375 C-114.97532189 -18.77195608 -43.02445624 -30.61614911 0 0 Z " fill="#88C7FC" transform="translate(449,16)"/>
<path d="M0 0 C0.3403125 0.7734375 0.680625 1.546875 1.03125 2.34375 C6.73858289 14.60844409 13.47145007 20.82749867 26 26 C36.75106568 29.43207097 47.17703093 26.13583537 56.80078125 21.31640625 C58.894879 20.06292322 60.29438417 18.71561944 62 17 C62.66 17 63.32 17 64 17 C64.2784375 16.42121094 64.556875 15.84242188 64.84375 15.24609375 C65.95400874 13.08934113 67.17946873 11.09563504 68.5 9.0625 C70.3601869 6.1268068 71.86462521 3.30290849 73 0 C101.64607169 3.52622964 128.35438065 22.90407454 146 45 C163.84301872 68.86175105 173.03627428 95.57945182 173.3125 125.375 C173.34150391 126.44105469 173.37050781 127.50710938 173.40039062 128.60546875 C173.40876953 129.63027344 173.41714844 130.65507812 173.42578125 131.7109375 C173.44765503 133.09224854 173.44765503 133.09224854 173.4699707 134.50146484 C173 137 173 137 171.55834961 139.30615234 C167.69037956 141.86708146 164.17874783 141.49755532 159.640625 141.390625 C158.73624695 141.38496521 157.8318689 141.37930542 156.90008545 141.37347412 C154.01618147 141.35111248 151.13352739 141.30091686 148.25 141.25 C146.29298671 141.22993471 144.33595392 141.21168399 142.37890625 141.1953125 C137.58545711 141.15124839 132.79294035 141.08222252 128 141 C127.97812622 139.07752441 127.97812622 139.07752441 127.95581055 137.11621094 C127.8978268 132.35990535 127.82059367 127.60407315 127.73754883 122.84814453 C127.70429989 120.78995447 127.67626786 118.73167324 127.65356445 116.67333984 C127.6200181 113.71412309 127.56770198 110.75574183 127.51171875 107.796875 C127.50213387 106.41698395 127.50213387 106.41698395 127.49235535 105.00921631 C127.39907 100.00449368 127.39907 100.00449368 125.59130859 95.41650391 C123.59228681 93.63707396 122.58540326 93.51611426 119.9375 93.625 C115.99685749 93.57855488 115.99685749 93.57855488 114 96 C113.67022394 98.01833943 113.67022394 98.01833943 113.68115234 100.35791016 C113.66128265 101.25869293 113.64141296 102.15947571 113.62094116 103.08755493 C113.60938995 104.06155243 113.59783875 105.03554993 113.5859375 106.0390625 C113.56657135 107.03505463 113.5472052 108.03104675 113.5272522 109.05722046 C113.46735035 112.2463925 113.42102862 115.43560043 113.375 118.625 C113.33682999 120.78387013 113.29777884 122.94272488 113.2578125 125.1015625 C113.1616403 130.40090534 113.07662411 135.70034043 113 141 C111.66038208 141.02187378 111.66038208 141.02187378 110.29370117 141.04418945 C106.97782722 141.10527077 103.66278101 141.17942478 100.34741211 141.26245117 C98.91295372 141.29569001 97.47836487 141.32372535 96.04370117 141.34643555 C93.98039193 141.38000271 91.91827697 141.43231413 89.85546875 141.48828125 C87.99378052 141.52755737 87.99378052 141.52755737 86.09448242 141.56762695 C83.05553002 141.75732522 83.05553002 141.75732522 81.1340332 143.28198242 C79.7046488 145.2406614 79.7046488 145.2406614 79 149 C72.4 149 65.8 149 59 149 C58.01 147.02 57.02 145.04 56 143 C52.66243113 141.33121557 48.90773803 141.81918235 45.23583984 141.79467773 C44.32846573 141.78477814 43.42109161 141.77487854 42.48622131 141.76467896 C39.4778202 141.73301391 36.46940327 141.70828676 33.4609375 141.68359375 C31.37870872 141.66302854 29.29648416 141.64203219 27.21426392 141.62062073 C21.72667855 141.5653553 16.23905524 141.51596576 10.75140381 141.46777344 C5.15454724 141.41759103 -0.44225404 141.36188797 -6.0390625 141.30664062 C-17.02599446 141.19900438 -28.01297437 141.09757157 -39 141 C-39.01458252 139.71834961 -39.02916504 138.43669922 -39.04418945 137.11621094 C-39.1021732 132.35990535 -39.17940633 127.60407315 -39.26245117 122.84814453 C-39.29570011 120.78995447 -39.32373214 118.73167324 -39.34643555 116.67333984 C-39.3799819 113.71412309 -39.43229802 110.75574183 -39.48828125 107.796875 C-39.49467117 106.87694763 -39.5010611 105.95702026 -39.50764465 105.00921631 C-39.60093 100.00449368 -39.60093 100.00449368 -41.40869141 95.41650391 C-43.40771319 93.63707396 -44.41459674 93.51611426 -47.0625 93.625 C-51.00314251 93.57855488 -51.00314251 93.57855488 -53 96 C-53.32977606 98.01833943 -53.32977606 98.01833943 -53.31884766 100.35791016 C-53.33871735 101.25869293 -53.35858704 102.15947571 -53.37905884 103.08755493 C-53.39638565 104.54855118 -53.39638565 104.54855118 -53.4140625 106.0390625 C-53.43342865 107.03505463 -53.4527948 108.03104675 -53.4727478 109.05722046 C-53.53264965 112.2463925 -53.57897138 115.43560043 -53.625 118.625 C-53.66317001 120.78387013 -53.70222116 122.94272488 -53.7421875 125.1015625 C-53.8383597 130.40090534 -53.92337589 135.70034043 -54 141 C-60.06888051 141.09878601 -66.13729439 141.17142949 -72.20678711 141.21972656 C-74.27197418 141.23985731 -76.33710416 141.26716445 -78.40209961 141.30175781 C-81.36847001 141.35021162 -84.33408772 141.37295385 -87.30078125 141.390625 C-88.2258699 141.41127014 -89.15095856 141.43191528 -90.1040802 141.45318604 C-96.43465641 141.45540829 -96.43465641 141.45540829 -99.07910156 139.32519531 C-100.18102656 136.54292234 -100.40387968 134.40221393 -100.43359375 131.40625 C-100.44511475 130.30345703 -100.45663574 129.20066406 -100.46850586 128.06445312 C-100.45827393 126.88818359 -100.44804199 125.71191406 -100.4375 124.5 C-100.42920166 123.28763672 -100.42090332 122.07527344 -100.41235352 120.82617188 C-99.75977274 85.61932286 -84.09034401 55.1598105 -59.515625 30.5078125 C-45.37981583 17.08297599 -20.3409923 -0.838428 0 0 Z " fill="#7FD160" transform="translate(115,356)"/>
<path d="M0 0 C1.0828125 -0.00515625 2.165625 -0.0103125 3.28125 -0.015625 C6.64106618 0.26164138 9.32053989 1.17568174 12.5 2.25 C16.30475419 2.26998995 19.89309275 1.45230242 23.5 0.25 C25.60163415 0.12934544 27.70744033 0.07463991 29.8125 0.0625 C30.92238281 0.04832031 32.03226562 0.03414062 33.17578125 0.01953125 C36.5 0.25 36.5 0.25 39.4140625 1.2421875 C43.15742899 2.46470466 46.67088226 2.49622586 50.5625 2.5625 C62.26711807 3.03625835 73.23973334 6.56862171 81.5 15.25 C83.45860823 18.00949661 85.2198421 20.8241346 86.9453125 23.734375 C88.78311836 26.70811111 90.90018562 28.92385029 93.5 31.25 C100.24037688 37.48484861 105.88466971 45.59674126 106.75 54.953125 C106.87104349 60.49086449 106.03659949 64.92312176 104.5 70.25 C104.80963483 72.5865962 105.14697599 74.9195645 105.5 77.25 C106.363387 88.69932325 106.04580245 98.61286532 98.8125 108.0625 C93.97318176 113.2292909 87.77432695 115.81308621 81.25 118.25 C76.96987716 119.88303148 74.67151121 121.91156715 71.5 125.25 C65.2638174 129.68728377 60.08041527 129.46584445 52.7109375 129.2434082 C47.96509999 129.13256792 44.74295529 129.57915133 40.51171875 131.56640625 C35.12106197 133.39818282 28.25420425 133.3516817 22.98046875 131.2421875 C22.24441406 130.85289062 21.50835937 130.46359375 20.75 130.0625 C18.16014279 128.69841315 17.01398706 128.17169403 14.08984375 128.6171875 C11.83001285 129.38883708 9.6860234 130.29283106 7.5 131.25 C0.20081732 133.46582331 -6.41861573 132.47792322 -13.4140625 129.8515625 C-16.60870815 128.9302602 -19.28211457 129.60642291 -22.5 130.25 C-30.92641136 130.9295493 -37.03796495 128.49195625 -43.5625 123.125 C-45.28515625 121.6171875 -45.28515625 121.6171875 -46.5 120.25 C-46.5 119.59 -46.5 118.93 -46.5 118.25 C-47.61375 118.20875 -48.7275 118.1675 -49.875 118.125 C-58.10103686 117.06216692 -64.95836495 111.78089025 -70.02734375 105.4296875 C-75.56890452 97.22758959 -76.52687551 89.02919815 -75.5 79.25 C-74.96632813 77.92548828 -74.96632813 77.92548828 -74.421875 76.57421875 C-73.16580298 73.40742699 -74.16467782 71.22616963 -74.95703125 68.01953125 C-77.02863633 57.452855 -75.91660337 48.81724544 -70.69921875 39.3984375 C-67.88185734 35.36505687 -64.64069204 32.47702813 -60.83984375 29.390625 C-58.3959398 27.15479969 -57.0694108 25.14874176 -55.5 22.25 C-50.66104901 13.49899567 -42.97960177 7.34839124 -33.5 4.25 C-28.70060201 2.90943126 -23.82646783 2.90864599 -18.875 2.73242188 C-12.31933042 2.42548682 -6.57923634 -0.0313297 0 0 Z " fill="#030303" transform="translate(371.5,56.75)"/>
<path d="M0 0 C0.99902344 0.82628906 1.99804688 1.65257812 3.02734375 2.50390625 C3.69252518 3.00230515 4.3577066 3.50070404 5.04304504 4.01420593 C8.44050294 6.87498504 10.69417986 9.10778582 11.74433899 13.50846863 C11.98525474 17.12260064 11.9794004 20.65651971 11.87890625 24.27734375 C11.87233002 25.59626617 11.86575378 26.9151886 11.85897827 28.27407837 C11.84376347 31.05700453 11.80288084 33.83784871 11.74072266 36.62011719 C11.66173075 40.15921844 11.62551862 43.69697038 11.6061039 47.23685265 C11.58600027 50.64635969 11.54640858 54.05555266 11.50390625 57.46484375 C11.48913239 58.722435 11.47435852 59.98002625 11.45913696 61.27572632 C11.09692192 78.13300674 6.96085374 92.37100547 -3.97265625 105.50390625 C-4.50503906 106.14972656 -5.03742188 106.79554688 -5.5859375 107.4609375 C-15.69126544 118.56927566 -30.75961725 124.81911817 -45.56640625 125.9453125 C-62.99539734 126.68299866 -77.61333564 121.12253667 -90.78515625 109.69140625 C-99.44394527 101.41883659 -104.24740708 92.84708067 -107.97265625 81.50390625 C-108.31433838 80.5804541 -108.65602051 79.65700195 -109.00805664 78.70556641 C-110.70316839 72.67675579 -110.38695786 66.31611655 -110.44921875 60.1015625 C-110.4573698 59.41188322 -110.46552086 58.72220394 -110.47391891 58.01162529 C-110.51543792 54.3649406 -110.54413383 50.71840212 -110.56298828 47.0715332 C-110.58515074 43.32394285 -110.65403269 39.57871699 -110.73333168 35.83196354 C-110.78581206 32.93126768 -110.80238341 30.03113171 -110.80955124 27.13000298 C-110.81923671 25.74928133 -110.8423344 24.36858083 -110.87962723 22.98832893 C-111.15109157 12.28105088 -111.15109157 12.28105088 -108.26196289 7.92408752 C-106.26447262 5.88969049 -104.27457934 4.18050284 -101.97265625 2.50390625 C-101.3226918 2.00071365 -100.67272736 1.49752106 -100.00306702 0.9790802 C-98.28679222 -0.32339423 -96.53043681 -1.51188861 -94.72265625 -2.68359375 C-93.75332153 -3.31793335 -93.75332153 -3.31793335 -92.7644043 -3.96508789 C-87.10010423 -7.57927812 -81.34861203 -10.34453665 -74.97265625 -12.49609375 C-74.12574219 -12.81320313 -73.27882812 -13.1303125 -72.40625 -13.45703125 C-48.02504635 -21.19371596 -20.33306962 -14.38325864 0 0 Z " fill="#FDD1A3" transform="translate(200.97265625,193.49609375)"/>
<path d="M0 0 C15.02107424 12.59435673 24.45045621 32.89063981 27 52 C27.13181338 55.40433704 27.11653122 58.8044929 27.09765625 62.2109375 C27.09553383 63.66314194 27.09553383 63.66314194 27.09336853 65.14468384 C27.08779365 68.22148799 27.07524577 71.29821803 27.0625 74.375 C27.05748175 76.46744686 27.05291941 78.55989487 27.04882812 80.65234375 C27.03783245 85.7682575 27.02058515 90.88411621 27 96 C23.37 96 19.74 96 16 96 C15.67 95.01 15.34 94.02 15 93 C13.68163705 92.30419733 12.34568123 91.64137684 11 91 C9.72260803 89.84201641 8.47526149 88.65050888 7.25 87.4375 C-13.22140365 68.97638149 -39.43521871 64.95235419 -66 66 C-72.18292753 66.375199 -77.76798732 67.56500663 -83.625 69.5625 C-84.7862439 69.95731567 -84.7862439 69.95731567 -85.97094727 70.36010742 C-99.70933772 75.21714256 -112.52463561 82.3025212 -122.0625 93.5625 C-125.38268738 96.3175491 -126.07274047 96.28237074 -130.18359375 96.15234375 C-131.0852124 96.13034912 -131.98683105 96.10835449 -132.91577148 96.08569336 C-133.60356689 96.05741455 -134.2913623 96.02913574 -135 96 C-135.02534714 89.23731282 -135.04286569 82.47463789 -135.05493164 75.71191406 C-135.05996157 73.41112816 -135.06678624 71.11034545 -135.07543945 68.80957031 C-135.08756359 65.50324718 -135.09324172 62.1969663 -135.09765625 58.890625 C-135.10281754 57.86132874 -135.10797882 56.83203247 -135.11329651 55.77154541 C-135.11337204 54.81085144 -135.11344757 53.85015747 -135.11352539 52.86035156 C-135.115746 52.01651917 -135.11796661 51.17268677 -135.12025452 50.30328369 C-135.00329802 48.06316825 -134.5956871 46.15506309 -134 44 C-133.67849576 40.95888614 -133.55782182 38.03207895 -134 35 C-135.82271927 32.87644433 -135.82271927 32.87644433 -138 32 C-137.43830039 27.37464644 -136.17355197 23.83218149 -134.0625 19.6875 C-133.53785156 18.63949219 -133.01320313 17.59148437 -132.47265625 16.51171875 C-131 14 -131 14 -129 13 C-127.76636719 13.11214844 -126.53273438 13.22429687 -125.26171875 13.33984375 C-122.73240781 13.36663609 -121.42741796 13.29930561 -119.33837891 11.83642578 C-117.72828385 10.14491263 -116.26602007 8.39022814 -114.8125 6.5625 C-84.91646605 -28.07761992 -34.22156402 -28.27751496 0 0 Z " fill="#7FD060" transform="translate(206,98)"/>
<path d="M0 0 C2 2 2 2 2.375 5.9375 C2.28694468 8.79152833 2.23484076 9.69940383 0.4375 12 C-4.40819943 13.98797925 -8.7008616 13.31359008 -13.41796875 11.35546875 C-15.01216751 10.6424712 -16.60189731 9.91941484 -18.1875 9.1875 C-25.36462498 6.01992276 -32.27383275 3.50202452 -40 2 C-40.70261963 1.83588623 -41.40523926 1.67177246 -42.12915039 1.50268555 C-69.13995328 -4.53483265 -96.48508028 2.03440087 -119.875 15.9375 C-144.15423836 31.53488987 -160.36719149 53.26494333 -168 81 C-168.34289062 81.96679688 -168.68578125 82.93359375 -169.0390625 83.9296875 C-171.54683235 91.94231801 -171.21727442 100.25429392 -171.25 108.5625 C-171.270625 109.84447266 -171.29125 111.12644531 -171.3125 112.44726562 C-171.36042215 124.31398818 -169.30887588 135.4194471 -165.25 146.5625 C-164.99395996 147.27229004 -164.73791992 147.98208008 -164.47412109 148.71337891 C-156.87588016 169.09901506 -143.31262727 186.11108583 -125.84765625 198.84375 C-124.90792969 199.5553125 -123.96820313 200.266875 -123 201 C-122.29166016 201.47228027 -121.58332031 201.94456055 -120.85351562 202.43115234 C-117.80923583 206.65031884 -118.45722751 211.19075546 -118.49609375 216.2578125 C-118.48667252 217.35721161 -118.47725128 218.45661072 -118.46754456 219.58932495 C-118.43884797 223.10140628 -118.43581907 226.61281071 -118.4375 230.125 C-118.4339016 233.64423134 -118.42448334 237.16297074 -118.39674377 240.68209839 C-118.37985201 242.87224038 -118.37715954 245.06254515 -118.38975525 247.25271606 C-118.38287186 248.24069183 -118.37598846 249.2286676 -118.36889648 250.24658203 C-118.36985825 251.11832062 -118.37082001 251.9900592 -118.37181091 252.88821411 C-118.24911331 253.58510345 -118.12641571 254.2819928 -118 255 C-115.21679763 257.26283966 -115.21679763 257.26283966 -112.23046875 256.96875 C-107.97107879 255.69144805 -105.54140207 253.47189304 -102.3125 250.5 C-101.06994584 249.39478077 -99.82644702 248.29062273 -98.58203125 247.1875 C-97.6686499 246.36958984 -97.6686499 246.36958984 -96.73681641 245.53515625 C-94.38058967 243.45250883 -91.94828302 241.47313476 -89.5 239.5 C-84.5548958 235.49263408 -79.73106804 231.35574015 -74.9453125 227.16015625 C-73.31696501 225.74715866 -71.66614162 224.36811383 -70 223 C-69.08476562 222.24589844 -68.16953125 221.49179688 -67.2265625 220.71484375 C-62.7618538 218.34195378 -58.67763544 218.16459031 -53.6875 217.875 C-24.79821935 215.9283388 1.13685791 203.06877043 20.55859375 181.66015625 C30.61519388 170.07735122 37.45800504 156.18553767 42.375 141.75 C42.61371826 141.05430908 42.85243652 140.35861816 43.09838867 139.6418457 C51.82775076 112.55083086 47.74337834 83.00916092 35 58 C30.4931532 49.74878803 24.92850937 42.36034524 18.84765625 35.20703125 C16.57415908 32.49133167 15.10223047 30.67180026 14.5625 27.125 C15 24 15 24 17.0625 21.0625 C20 19 20 19 23.34765625 19.046875 C32.88044109 21.534575 39.94852186 34.1504752 44.87109375 42.30078125 C51.34111322 53.38843257 56.55709119 64.59770349 60 77 C60.3196875 78.11246094 60.639375 79.22492188 60.96875 80.37109375 C68.61203615 112.67813197 62.08445736 147.88571957 45 176 C40.03575087 183.62823233 34.23925814 190.39372668 28 197 C27.26394531 197.81210938 26.52789062 198.62421875 25.76953125 199.4609375 C7.62010383 218.73520381 -20.80048237 232.65575717 -47.3046875 234.30859375 C-57.83989793 235.01047782 -62.61934213 237.04390101 -70 245 C-71.72544053 246.46688828 -73.47655555 247.90402528 -75.25 249.3125 C-79.00026125 252.34033132 -82.67173926 255.43670705 -86.30444336 258.60302734 C-103.32256452 273.41429278 -103.32256452 273.41429278 -115.921875 273.27734375 C-121.94342002 272.73479337 -125.55421066 270.41366069 -129.8125 266.25 C-134.55435437 259.20495922 -135.37872301 253.48118257 -135.01953125 245.234375 C-134.98820047 243.35552142 -134.96031416 241.47660782 -134.93554688 239.59765625 C-134.88435239 236.67442642 -134.81286881 233.75819342 -134.68139648 230.83740234 C-133.83898794 218.61247514 -133.83898794 218.61247514 -139.04956055 208.10083008 C-141.94720421 205.4365083 -145.05697916 203.20143157 -148.3682251 201.08172607 C-169.02803932 187.38605046 -181.12293525 157.28101844 -186.09765625 134.1796875 C-192.17457068 102.41459893 -186.19167137 68.27819869 -168.51171875 41.03515625 C-163.60685698 33.84791919 -158.00760886 27.28653356 -152 21 C-151.34 20.26523437 -150.68 19.53046875 -150 18.7734375 C-114.97532189 -18.77195608 -43.02445624 -30.61614911 0 0 Z " fill="#000102" transform="translate(449,16)"/>
<path d="M0 0 C13.12486517 16.57697815 13.62357126 43.29480512 11.7890625 63.30029297 C11.23105569 67.64703917 10.21021426 71.7939346 9 76 C8.80132324 76.70141113 8.60264648 77.40282227 8.39794922 78.12548828 C-0.32242953 108.27121707 -19.10358138 131.73761518 -46.53515625 146.99609375 C-61.32072398 154.74726511 -76.10601645 158.72120922 -92.8125 159.25 C-99.89000738 159.70498262 -102.99454389 161.17789393 -108 166 C-109.61426505 167.39874519 -111.24617448 168.77547496 -112.87768555 170.15405273 C-114.70814735 171.7049944 -116.52550086 173.27008791 -118.33984375 174.83984375 C-122.85213906 178.74014033 -127.38838167 182.61116119 -131.95703125 186.4453125 C-133.92242106 188.09533167 -135.87886574 189.75609196 -137.82421875 191.4296875 C-138.68660156 192.15414062 -139.54898437 192.87859375 -140.4375 193.625 C-141.17871094 194.25664062 -141.91992188 194.88828125 -142.68359375 195.5390625 C-145.55291117 197.34871632 -147.61211643 197.88394602 -151 198 C-153.1521759 196.81152344 -153.1521759 196.81152344 -155 195 C-155.51225281 192.76123047 -155.51225281 192.76123047 -155.5300293 190.1171875 C-155.5547657 188.63049561 -155.5547657 188.63049561 -155.58000183 187.11376953 C-155.57809341 186.04497559 -155.576185 184.97618164 -155.57421875 183.875 C-155.59546562 182.22733643 -155.59546562 182.22733643 -155.61714172 180.54638672 C-155.65914154 177.03082551 -155.67429903 173.51577711 -155.6875 170 C-155.71654015 166.48446217 -155.75108507 162.96905528 -155.78999329 159.45361328 C-155.81250171 157.2645457 -155.82830825 155.07539715 -155.83683777 152.88623047 C-155.84738945 151.39953857 -155.84738945 151.39953857 -155.8581543 149.8828125 C-155.86163376 149.01027832 -155.86511322 148.13774414 -155.86869812 147.23876953 C-155.91266151 144.82844666 -155.91266151 144.82844666 -157 142 C-159.00016466 140.79117904 -159.00016466 140.79117904 -161 140 C-157.56872617 138.28436309 -154.0900918 140.20884257 -150.53125 141.2109375 C-132.73932103 145.18656765 -110.45663331 145.33564916 -93 140 C-92.01314209 139.70198486 -92.01314209 139.70198486 -91.00634766 139.39794922 C-65.71539348 131.59137724 -46.32590521 117.8110027 -28 99 C-28.33 98.34 -28.66 97.68 -29 97 C-28.48050781 96.75765625 -27.96101562 96.5153125 -27.42578125 96.265625 C-18.84384011 92.14121706 -14.32826228 87.5469483 -10 79 C-8.82056104 75.49786224 -8.69447964 71.92113767 -8.4375 68.25 C-8.35371094 67.07953125 -8.26992188 65.9090625 -8.18359375 64.703125 C-8.12300781 63.81109375 -8.06242188 62.9190625 -8 62 C-7.34 62 -6.68 62 -6 62 C-5.731875 60.741875 -5.46375 59.48375 -5.1875 58.1875 C-4.20593263 53.72136847 -2.98860891 49.3503553 -1.68359375 44.96875 C0.51646633 35.41420336 0.11766128 25.67606761 0.0625 15.9375 C0.05747503 14.38867332 0.05291388 12.83984507 0.04882812 11.29101562 C0.03790138 7.52730424 0.02069175 3.76366985 0 0 Z " fill="#5FB5FC" transform="translate(485,76)"/>
<path d="M0 0 C0.72703125 -0.02578125 1.4540625 -0.0515625 2.203125 -0.078125 C4.75 0.25 4.75 0.25 8.0234375 1.7734375 C12.1424865 3.65097815 15.68651281 3.39647932 20.125 3.125 C28.50825618 2.89408612 33.51452676 4.26465313 39.734375 10.1171875 C42.69401479 13.26027603 44.58437822 15.83234508 46.1875 19.875 C48.0739216 23.94967065 50.20373307 25.34861444 53.81640625 27.84765625 C57.86000463 30.78028619 60.41510767 34.4666358 61.75 39.25 C62.24153768 45.34506722 61.21384592 48.60368643 58.75 54.25 C58.29678021 58.48005142 58.5168921 60.74648694 60.3125 64.625 C62.387076 69.85653947 61.88244219 73.97492572 60.0625 79.23828125 C57.99501154 83.5486255 55.34348932 85.5650076 51.03125 87.50390625 C48.55693066 88.31314425 46.20256758 88.65451278 43.625 89 C40.55144364 89.5091167 39.14471667 89.85528333 36.921875 92.078125 C35.36390805 94.20511242 35.36390805 94.20511242 34.1015625 96.375 C32.50379801 98.59155189 31.31243353 99.34247146 28.75 100.25 C22.70833333 99.72916667 22.70833333 99.72916667 19.75 98.25 C15.74094495 97.77273154 13.32213571 98.32964684 9.875 100.25 C5.531796 102.5835379 2.65653352 102.81304483 -2.25 102.25 C-4.95776367 101.05541992 -4.95776367 101.05541992 -7.25 99.25 C-7.81762695 96.7980957 -7.81762695 96.7980957 -7.73828125 93.92578125 C-7.72216797 92.89775391 -7.70605469 91.86972656 -7.68945312 90.81054688 C-7.64755859 89.73869141 -7.60566406 88.66683594 -7.5625 87.5625 C-7.53994141 86.47904297 -7.51738281 85.39558594 -7.49414062 84.27929688 C-7.4351579 81.60148095 -7.35290307 78.92642973 -7.25 76.25 C-6.40695312 76.21261719 -5.56390625 76.17523438 -4.6953125 76.13671875 C-3.59960938 76.07097656 -2.50390625 76.00523437 -1.375 75.9375 C-0.28445313 75.87949219 0.80609375 75.82148438 1.9296875 75.76171875 C3.32574219 75.50841797 3.32574219 75.50841797 4.75 75.25 C7.19897847 71.57653229 7.06537716 69.58643601 6.75 65.25 C3.80066065 61.87003248 3.80066065 61.87003248 -7.25 62.25 C-7.25 54 -7.25 45.75 -7.25 37.25 C-1.805 36.755 -1.805 36.755 3.75 36.25 C7.1096672 33.53294506 7.1096672 33.53294506 7.0625 29.6875 C7.11410488 26.18731528 7.11410488 26.18731528 4.75 24.25 C0.76061087 23.66430021 -3.22186456 23.50711503 -7.25 23.25 C-7.25 15.99 -7.25 8.73 -7.25 1.25 C-4.55394947 0.35131649 -2.7891753 0.05851417 0 0 Z " fill="#FA969D" transform="translate(401.25,71.75)"/>
<path d="M0 0 C0.73734375 0.01546875 1.4746875 0.0309375 2.234375 0.046875 C4.25 0.25 4.25 0.25 7.25 1.25 C7.25 8.51 7.25 15.77 7.25 23.25 C0.815 23.745 0.815 23.745 -5.75 24.25 C-7.15260586 30.0051006 -7.15260586 30.0051006 -4.875 35.1875 C-1.11060932 38.01243388 -1.11060932 38.01243388 7.25 38.25 C7.25 45.84 7.25 53.43 7.25 61.25 C2.795 61.745 2.795 61.745 -1.75 62.25 C-4.95868551 63.64691117 -4.95868551 63.64691117 -6.75 66.25 C-6.81498774 69.95430122 -6.59392555 72.19509306 -4.25 75.125 C-0.82781601 76.81887769 -0.82781601 76.81887769 7.25 77.25 C7.25 84.84 7.25 92.43 7.25 100.25 C2.57063236 102.58968382 -0.61488874 102.97754459 -5.75 102.25 C-7.90243629 101.35152387 -9.86936885 100.28819679 -11.90234375 99.1484375 C-14.62735031 97.82338146 -16.78370508 97.84550524 -19.75 98.25 C-20.389375 98.600625 -21.02875 98.95125 -21.6875 99.3125 C-24.99715285 100.81688766 -27.29939293 100.15805449 -30.75 99.25 C-33.52154264 96.87439202 -35.69139669 94.32162627 -38 91.5 C-40.93629238 89.09757896 -41.49882725 88.98976674 -45.0625 88.8125 C-50.56302534 88.47273466 -53.97318461 86.17753338 -57.75 82.25 C-60.8452464 77.12349815 -61.61648066 72.12651626 -60.75 66.25 C-59.80273046 64.55280873 -58.80771739 62.88064764 -57.75 61.25 C-57.28161207 57.58096125 -57.46921728 55.76476832 -59.25 52.5 C-61.53650364 47.54590879 -61.61773046 42.50713316 -60.2109375 37.2265625 C-57.85268419 31.29205693 -54.46152766 27.10576383 -48.75 24.25 C-48.09 24.25 -47.43 24.25 -46.75 24.25 C-46.523125 23.425 -46.29625 22.6 -46.0625 21.75 C-42.9082623 13.33869946 -38.69335641 8.54893259 -30.75 4.25 C-26.51258932 2.83752977 -22.32071939 3.27541689 -17.90625 3.46484375 C-11.34402226 3.60052891 -6.34943224 -0.22515717 0 0 Z " fill="#FB979E" transform="translate(371.75,71.75)"/>
<path d="M0 0 C1.60393725 0.94532364 3.20574166 1.89426668 4.80664062 2.84472656 C5.69887329 3.37277893 6.59110596 3.9008313 7.51037598 4.44488525 C10.45924567 6.28686248 12.97055488 8.36837959 15.5 10.75 C16.3146875 11.50796875 17.129375 12.2659375 17.96875 13.046875 C21.9912973 16.91470894 21.9912973 16.91470894 22.25396729 19.48901367 C22.25555847 20.53806885 22.25714966 21.58712402 22.25878906 22.66796875 C22.26509338 23.85680664 22.27139771 25.04564453 22.27789307 26.27050781 C22.2738446 27.56311523 22.26979614 28.85572266 22.265625 30.1875 C22.26697291 31.52832103 22.2689145 32.86914158 22.27142334 34.20996094 C22.27437677 37.02787911 22.27007547 39.84567074 22.26074219 42.66357422 C22.24943508 46.24984518 22.25584945 49.83581388 22.26788712 53.42207336 C22.27517526 56.1967387 22.2727847 58.97133457 22.26763153 61.7460022 C22.26567175 63.70331011 22.27168501 65.66062087 22.27789307 67.61791992 C22.1899624 84.55117522 17.96848315 98.82509084 7 112 C6.46761719 112.64582031 5.93523437 113.29164063 5.38671875 113.95703125 C-4.00828749 124.28454431 -16.69631411 129.11753472 -30 132 C-33 132.125 -33 132.125 -35 132 C-32.38226766 129.28772203 -29.70945509 126.93652164 -26.6875 124.6875 C-13.40364815 114.37732087 -3.9441183 100.22752901 -1.45594788 83.29833984 C-0.96547262 79.14837295 -0.8285326 75.01589878 -0.79467773 70.83984375 C-0.78477814 70.06814346 -0.77487854 69.29644318 -0.76467896 68.50135803 C-0.73338463 65.98010198 -0.70843504 63.45882716 -0.68359375 60.9375 C-0.66299643 59.17772972 -0.64199928 57.41796408 -0.62062073 55.65820312 C-0.56568668 51.04860209 -0.51615217 46.43895854 -0.46777344 41.82928467 C-0.41734778 37.1166205 -0.36177217 32.4040173 -0.30664062 27.69140625 C-0.19941022 18.46098971 -0.09788873 9.23052001 0 0 Z " fill="#FDBC85" transform="translate(190,187)"/>
<path d="M0 0 C28.64607169 3.52622964 55.35438065 22.90407454 73 45 C90.84301872 68.86175105 100.03627428 95.57945182 100.3125 125.375 C100.35600586 126.97408203 100.35600586 126.97408203 100.40039062 128.60546875 C100.40876953 129.63027344 100.41714844 130.65507812 100.42578125 131.7109375 C100.44036377 132.63181152 100.45494629 133.55268555 100.4699707 134.50146484 C100 137 100 137 98.48901367 139.31494141 C94.99491446 141.68044143 91.80731099 141.43637824 87.75 141.25 C87.00492187 141.23195313 86.25984375 141.21390625 85.4921875 141.1953125 C83.66090299 141.14835649 81.83028351 141.07661652 80 141 C80.02094727 140.10506836 80.04189453 139.21013672 80.06347656 138.28808594 C80.90992319 96.55505274 71.69640706 60.80886999 42.26586914 29.74633789 C29.86611792 17.0822829 15.99737218 8.42431236 0 1 C0 0.67 0 0.34 0 0 Z " fill="#67C843" transform="translate(188,356)"/>
<path d="M0 0 C5.86072535 2.28711233 9.40243581 5.97453662 13 11 C13.474375 12.19625 13.94875 13.3925 14.4375 14.625 C16.3239216 18.69967065 18.45373307 20.09861444 22.06640625 22.59765625 C26.11000463 25.53028619 28.66510767 29.2166358 30 34 C30.49153768 40.09506722 29.46384592 43.35368643 27 49 C26.54678021 53.23005142 26.7668921 55.49648694 28.5625 59.375 C30.637076 64.60653947 30.13244219 68.72492572 28.3125 73.98828125 C26.24501154 78.2986255 23.59348932 80.3150076 19.28125 82.25390625 C16.80693066 83.06314425 14.45256758 83.40451278 11.875 83.75 C8.80144364 84.2591167 7.39471667 84.60528333 5.171875 86.828125 C3.61390805 88.95511242 3.61390805 88.95511242 2.3515625 91.125 C0.75679059 93.33740034 -0.44669707 94.08567438 -3 95 C-7.36072562 94.68285632 -11.02459037 93.80700438 -15 92 C-14.154375 91.05125 -13.30875 90.1025 -12.4375 89.125 C2.96578005 71.03973707 9.82917856 51.61963113 8 28 C7.08898407 19.43375949 4.88168171 11.75765506 0.98828125 4.07421875 C0 2 0 2 0 0 Z " fill="#FA7E85" transform="translate(433,77)"/>
<path d="M0 0 C0.80179688 0.2165625 1.60359375 0.433125 2.4296875 0.65625 C17.64500484 4.38245016 31.8601902 3.7514573 47 0 C48.10045689 23.26196567 48.10045689 23.26196567 40.35546875 31.81640625 C35.5931253 36.27774379 30.27024968 39.06037876 23.6875 39.5 C17.35821569 39.25158099 11.84979656 36.52051334 7.140625 32.35546875 C0.71900023 25.31393465 -0.44713338 18.8094426 -0.1875 9.5625 C-0.17396484 8.64017578 -0.16042969 7.71785156 -0.14648438 6.76757812 C-0.11140953 4.51109617 -0.06226387 2.25586774 0 0 Z " fill="#F0A569" transform="translate(128,330)"/>
<path d="M0 0 C20.93294388 6.0315262 37.25489217 20.0404879 48.21484375 38.6484375 C57.43637924 55.96151727 58.43352451 72.73460226 58.1875 91.875 C58.17241827 93.93097972 58.15873607 95.98697021 58.14648438 98.04296875 C58.1137729 103.02891657 58.06218526 108.01433625 58 113 C54.37 113 50.74 113 47 113 C46.67 112.01 46.34 111.02 46 110 C45.01 109.67 44.02 109.34 43 109 C43.66 108.67 44.32 108.34 45 108 C44.90556093 102.7893434 44.79928144 97.57910295 44.68261719 92.36889648 C44.64463031 90.60105784 44.60972812 88.83314983 44.578125 87.06518555 C44.40561597 77.53136627 44.17003575 68.33115371 42 59 C41.81179687 57.96488281 41.62359375 56.92976563 41.4296875 55.86328125 C36.54537767 33.40233532 21.34891579 15.15461688 2.52734375 2.75 C1.69332031 2.1725 0.85929688 1.595 0 1 C0 0.67 0 0.34 0 0 Z " fill="#65C442" transform="translate(175,81)"/>
<path d="M0 0 C4.00687964 0.73595749 5.50788398 1.33166209 8.0625 4.5625 C8.48339162 8.2652807 8.3503234 11.85277613 8.0625 15.5625 C8.72636719 15.51609375 9.39023438 15.4696875 10.07421875 15.421875 C14.40306195 15.24492958 17.28446794 15.15792333 21.1875 17.1875 C23.0625 19.5625 23.0625 19.5625 23.6875 22.5 C22.81817412 26.75969681 21.66334288 28.11392684 18.0625 30.5625 C14.68602309 30.9697392 11.4450236 30.85806031 8.0625 30.5625 C8.12050781 31.22636719 8.17851562 31.89023438 8.23828125 32.57421875 C8.60563099 39.76377796 8.60563099 39.76377796 5.9375 43.6875 C3.0625 45.5625 3.0625 45.5625 0 46.1875 C-2.9375 45.5625 -2.9375 45.5625 -5.3125 43.6875 C-7.59653354 39.29512781 -7.27686123 35.41725089 -6.9375 30.5625 C-7.60136719 30.62050781 -8.26523438 30.67851562 -8.94921875 30.73828125 C-16.13877796 31.10563099 -16.13877796 31.10563099 -20.0625 28.4375 C-22.2712936 25.05068314 -22.69606436 23.52389166 -21.9375 19.5625 C-20.625 17.1875 -20.625 17.1875 -17.9375 15.5625 C-14.24676983 15.23325501 -10.63222534 15.33317222 -6.9375 15.5625 C-6.98390625 14.89863281 -7.0303125 14.23476562 -7.078125 13.55078125 C-7.25507042 9.22193805 -7.34207667 6.34053206 -5.3125 2.4375 C-2.9375 0.5625 -2.9375 0.5625 0 0 Z " fill="#010201" transform="translate(150.9375,97.4375)"/>
<path d="M0 0 C0 13.2 0 26.4 0 40 C-11.46099484 38.72655613 -11.46099484 38.72655613 -17 33 C-20.85358289 28.02833531 -21.70312904 22.88447215 -21.4453125 16.6796875 C-20.44214993 10.64311271 -17.19411116 6.65381214 -12.375 3.0625 C-7.52682182 0.09972444 -5.95662226 0 0 0 Z " fill="#F2A66A" transform="translate(76,209)"/>
<path d="M0 0 C6.78306299 0 10.86737015 1.02298675 15.80859375 5.71875 C20.4961418 11.02455979 21.3610476 15.10410744 21.27734375 22.14453125 C20.72475528 27.83385761 18.33757887 32.06150755 14.125 35.875 C9.21258704 39.21544082 5.9506137 40 0 40 C0 26.8 0 13.6 0 0 Z " fill="#F1A569" transform="translate(227,209)"/>
</svg>
