<?xml version="1.0" encoding="UTF-8"?>
<svg version="1.1" xmlns="http://www.w3.org/2000/svg" width="512" height="512">
<path d="M0 0 C1.45479066 -0.00457248 2.90957917 -0.00988119 4.36436462 -0.0158844 C7.40795682 -0.02478867 10.45128635 -0.02242735 13.49487305 -0.01245117 C17.35200554 -0.00102697 21.20821348 -0.02108452 25.06522465 -0.05036831 C28.07087258 -0.06893196 31.0763078 -0.06839733 34.08199883 -0.06273079 C35.50144169 -0.06257969 36.92090101 -0.06844492 38.34028816 -0.08102226 C51.46502501 -0.18086901 63.77800168 2.0133198 75.46484375 8.24609375 C76.13273926 8.5930127 76.80063477 8.93993164 77.48876953 9.29736328 C82.83629137 12.14738039 87.60128678 15.34307862 92.08984375 19.43359375 C92.89679688 20.14902344 93.70375 20.86445313 94.53515625 21.6015625 C108.40090353 34.5980504 117.68257697 52.46136894 119.36132812 71.51489258 C119.45615415 74.61867946 119.45347064 77.70381891 119.40234375 80.80859375 C119.39396484 81.93821533 119.38558594 83.06783691 119.37695312 84.23168945 C119.18520352 98.32432689 118.15688797 112.38465116 117.08984375 126.43359375 C118.04826172 126.61970215 119.00667969 126.80581055 119.99414062 126.99755859 C121.25291016 127.25230957 122.51167969 127.50706055 123.80859375 127.76953125 C125.05576172 128.01751465 126.30292969 128.26549805 127.58789062 128.52099609 C135.519926 130.58805885 139.65201593 135.59282575 143.9609375 142.28515625 C148.09601593 150.15468268 147.02760273 161.50806096 144.52734375 169.74609375 C139.99064861 181.56370873 131.7447127 191.04727563 120.21484375 196.37109375 C117.52355547 197.50204822 114.85986441 198.51025353 112.08984375 199.43359375 C111.22849597 201.7984956 110.54189298 204.07083051 109.90234375 206.49609375 C106.27533827 219.05144045 100.73894629 230.55476099 92.08984375 240.43359375 C91.33574219 241.36558594 91.33574219 241.36558594 90.56640625 242.31640625 C88.06341742 245.37561483 85.6633794 247.7602779 82.44140625 250.0546875 C80.32937468 251.84780119 79.2467858 252.88822638 78.47558594 255.56811523 C78.29163993 258.01619001 78.32997108 260.35776468 78.46484375 262.80859375 C78.47128906 263.62070312 78.47773438 264.4328125 78.484375 265.26953125 C78.70010443 273.18807031 80.80995203 279.9990925 86.296875 285.87890625 C89.55816676 288.70678015 92.81860644 290.63273675 97.08984375 291.43359375 C99.61834657 290.98786409 101.70418916 290.27166246 104.046875 289.23046875 C106.08984375 288.43359375 106.08984375 288.43359375 110.08984375 288.43359375 C109.75984375 287.44359375 109.42984375 286.45359375 109.08984375 285.43359375 C106.99774196 255.08543843 106.99774196 255.08543843 113.82421875 246.16796875 C116.08984375 244.43359375 116.08984375 244.43359375 119.10546875 244.078125 C122.35473128 243.72238269 122.35473128 243.72238269 124.13671875 240.6328125 C124.69875 239.47394531 125.26078125 238.31507813 125.83984375 237.12109375 C126.4121875 235.96996094 126.98453125 234.81882813 127.57421875 233.6328125 C128.074375 232.57707031 128.57453125 231.52132812 129.08984375 230.43359375 C129.49847656 229.7065625 129.90710938 228.97953125 130.328125 228.23046875 C131.36895142 226.2201064 131.36895142 226.2201064 130.52734375 222.99609375 C129.99984276 218.70072856 130.58702737 217.85877311 133.08984375 214.43359375 C149.92796436 198.75498444 171.01674755 192.33095584 193.73828125 193.046875 C201.20329034 193.46779422 208.02297061 195.05974907 215.08984375 197.43359375 C216.14300781 197.78421875 217.19617188 198.13484375 218.28125 198.49609375 C238.50939817 206.09153922 252.73481321 221.96482909 261.96484375 241.05859375 C268.42627835 256.18726304 269.27823655 272.29419687 267.08984375 288.43359375 C268.36859375 288.57796875 269.64734375 288.72234375 270.96484375 288.87109375 C277.40182816 290.29700802 281.92996147 294.4702685 286.08984375 299.43359375 C290.39578668 307.5394597 290.30554833 316.80151605 288.3984375 325.63671875 C286.36178695 331.73814885 283.32517592 336.62674687 279.08984375 341.43359375 C278.56519531 342.05105469 278.04054688 342.66851562 277.5 343.3046875 C271.68769407 349.66403399 264.92328356 352.93811865 256.52734375 354.55859375 C250.40099389 356.06436794 247.99768802 359.62524737 244.36328125 364.55859375 C240.91146115 368.92378205 236.72923218 372.3728252 232.08984375 375.43359375 C231.42984375 375.43359375 230.76984375 375.43359375 230.08984375 375.43359375 C230.12311693 377.33016518 230.19276698 379.22611696 230.27734375 381.12109375 C230.32955078 382.70470703 230.32955078 382.70470703 230.3828125 384.3203125 C231.31027059 388.40420253 232.92853522 389.72918887 236.08984375 392.43359375 C239.1359286 393.79691936 239.1359286 393.79691936 242.5 394.64453125 C243.73814453 395.00289063 244.97628906 395.36125 246.25195312 395.73046875 C247.55155023 396.09176685 248.8516851 396.45113603 250.15234375 396.80859375 C271.27816448 402.64385881 288.1593824 413.4340549 299.29418945 432.70068359 C307.97388892 448.12270389 308.74217356 463.44115048 308.61132812 480.78320312 C308.58961723 484.21944612 308.61136665 487.65365866 308.63671875 491.08984375 C308.63407987 493.28255668 308.62896403 495.47526836 308.62109375 497.66796875 C308.62919067 498.6908197 308.6372876 499.71367065 308.64562988 500.76751709 C308.63302124 501.7166095 308.6204126 502.6657019 308.60742188 503.64355469 C308.6042395 504.47465759 308.60105713 505.3057605 308.59777832 506.16204834 C307.87604927 509.38970876 306.71260233 510.42210412 304.08984375 512.43359375 C301.31372159 512.82650818 298.93432005 512.97318159 296.1593399 512.93975163 C295.35056867 512.94586498 294.54179743 512.95197834 293.70851797 512.95827696 C290.98104643 512.97395696 288.25445397 512.96097878 285.52697754 512.94825745 C283.55884101 512.95357919 281.59070853 512.96064272 279.62258387 512.9693045 C274.20070634 512.98800789 268.77910051 512.98160042 263.35721135 512.97115147 C257.51527191 512.96418128 251.67338953 512.98014073 245.83146667 512.9931488 C234.38178088 513.01483032 222.93219431 513.01465134 211.48249471 513.00652326 C202.18007923 513.00023265 192.87768786 513.00135165 183.57527161 513.00779533 C182.23976609 513.00870666 180.90426058 513.00961742 179.56875506 513.01052762 C177.55639394 513.01191072 175.54403282 513.0133018 173.53167171 513.01471376 C154.81755664 513.02769858 136.10345239 513.03280373 117.38933563 513.02118015 C116.33069652 513.0205232 116.33069652 513.0205232 115.25067076 513.01985297 C109.51901791 513.01624596 103.7873652 513.01241128 98.0557125 513.00856204 C75.69318364 512.99371171 53.33077689 513.00249642 30.96826172 513.03051758 C5.85623572 513.06192365 -19.25571798 513.07692259 -44.367764 513.06671757 C-47.04370402 513.06568075 -49.71964406 513.06469352 -52.39558411 513.06373405 C-53.7123219 513.06325766 -55.0290597 513.06278127 -56.38569865 513.06229045 C-65.68083838 513.06012239 -74.97591661 513.06995115 -84.27104187 513.08450508 C-95.59315012 513.10198489 -106.91509234 513.10197368 -118.23719394 513.07915343 C-124.01792966 513.0679719 -129.7983724 513.06493703 -135.57909584 513.08345413 C-140.86538254 513.10017007 -146.15111872 513.09402908 -151.43736917 513.06923734 C-153.35520603 513.06432431 -155.27308655 513.06794981 -157.19088715 513.08072478 C-159.78781614 513.09678247 -162.38281263 513.08237806 -164.9796524 513.06000614 C-165.73327374 513.07199782 -166.48689507 513.0839895 -167.26335341 513.09634456 C-171.05712252 513.02909502 -172.58922952 512.74861159 -175.34241152 510.04612106 C-176.8762715 507.4900601 -177.84209793 505.29565961 -178.65844727 502.43603516 C-179.08577904 500.97170799 -179.08577904 500.97170799 -179.52174377 499.47779846 C-179.96344154 497.89744057 -179.96344154 497.89744057 -180.4140625 496.28515625 C-180.89425087 494.6213517 -180.89425087 494.6213517 -181.38414001 492.92393494 C-182.42531062 489.30538082 -183.44944375 485.68226295 -184.47265625 482.05859375 C-185.18405107 479.56738557 -185.89629567 477.0764199 -186.609375 474.58569336 C-188.04046281 469.57993322 -189.46443634 464.57222608 -190.88330078 459.56298828 C-192.43008768 454.10886609 -193.99863802 448.66156843 -195.58470154 443.21875 C-196.62784675 439.63771295 -197.66244728 436.05424675 -198.69503784 432.47015381 C-199.16772087 430.83483554 -199.64351822 429.20041391 -200.12258911 427.56695557 C-200.78067333 425.3182458 -201.42521389 423.0660749 -202.06640625 420.8125 C-202.42541016 419.57056885 -202.78441406 418.3286377 -203.15429688 417.04907227 C-204.04121975 412.8066818 -204.39044753 409.75813421 -203.91015625 405.43359375 C-201.8371582 402.46411133 -201.8371582 402.46411133 -198.91015625 400.43359375 C-195.68041992 399.8659668 -195.68041992 399.8659668 -192.078125 399.9453125 C-190.78583984 399.96142578 -189.49355469 399.97753906 -188.16210938 399.99414062 C-186.80727468 400.03591101 -185.45245697 400.07823566 -184.09765625 400.12109375 C-182.72334759 400.14619306 -181.34899509 400.16900339 -179.97460938 400.18945312 C-176.61867649 400.24832914 -173.26497535 400.33052955 -169.91015625 400.43359375 C-170.19632813 398.78810547 -170.19632813 398.78810547 -170.48828125 397.109375 C-170.91015625 393.43359375 -170.91015625 393.43359375 -169.66015625 390.62109375 C-167.91015625 388.43359375 -167.91015625 388.43359375 -164.91015625 386.43359375 C-162.6484375 386.23828125 -162.6484375 386.23828125 -160.22265625 386.30859375 C-159.41441406 386.32664062 -158.60617188 386.3446875 -157.7734375 386.36328125 C-156.85111328 386.39808594 -156.85111328 386.39808594 -155.91015625 386.43359375 C-155.82378906 385.39203125 -155.73742187 384.35046875 -155.6484375 383.27734375 C-153.6432642 361.81643357 -146.53734272 343.51829346 -131.91015625 327.43359375 C-131.30945313 326.74007813 -130.70875 326.0465625 -130.08984375 325.33203125 C-126.1094678 321.00703401 -121.61259392 317.61761441 -116.78515625 314.30859375 C-116.21845215 313.912771 -115.65174805 313.51694824 -115.06787109 313.10913086 C-100.33424928 303.37176176 -82.98897897 300.15071454 -66.10693359 296.03540039 C-62.78051928 295.22014019 -59.45863663 294.38804832 -56.13671875 293.5546875 C-55.12823883 293.31495712 -54.11975891 293.07522675 -53.08071899 292.82823181 C-44.88103969 290.76359452 -37.63898337 287.78954705 -32.91015625 280.43359375 C-29.76942309 274.44264524 -29.38303444 269.19990211 -29.22265625 262.49609375 C-29.18849609 261.52607422 -29.15433594 260.55605469 -29.11914062 259.55664062 C-29.03727051 257.18240738 -28.96792547 254.80851498 -28.91015625 252.43359375 C-29.51448486 252.15161133 -30.11881348 251.86962891 -30.74145508 251.57910156 C-44.39896087 244.36520792 -54.22103873 226.3927359 -58.91015625 212.43359375 C-59.1628125 211.29148438 -59.41546875 210.149375 -59.67578125 208.97265625 C-61.00305028 202.35651599 -61.00305028 202.35651599 -65.51171875 197.75 C-67.58706989 196.94875684 -69.68683656 196.20835794 -71.8046875 195.52734375 C-81.1304933 192.24278322 -88.16719149 184.03795117 -92.66015625 175.49609375 C-97.00424946 166.1793408 -98.85209315 155.93653179 -96.22265625 145.77734375 C-93.07340052 138.1141548 -88.36867074 132.63732534 -80.83984375 129.16015625 C-77.37258173 127.85466893 -74.36628041 127.30932501 -70.66015625 127.37109375 C-68.80390625 127.40203125 -68.80390625 127.40203125 -66.91015625 127.43359375 C-67.01714844 126.84191406 -67.12414062 126.25023438 -67.234375 125.640625 C-67.82777517 121.72928838 -68.20265818 119.17254598 -66.72265625 115.43359375 C-64.91015625 113.43359375 -64.91015625 113.43359375 -60.91015625 112.43359375 C-61.24015625 106.16359375 -61.57015625 99.89359375 -61.91015625 93.43359375 C-64.88015625 92.44359375 -64.88015625 92.44359375 -67.91015625 91.43359375 C-70.87873675 86.98072301 -70.64727356 82.69736107 -70.91015625 77.43359375 C-70.97589844 76.14839844 -71.04164063 74.86320312 -71.109375 73.5390625 C-71.50323659 62.39478214 -70.13589307 53.87692717 -62.78515625 45.12109375 C-57.89817929 40.05757575 -52.33205718 35.97859528 -45.640625 33.640625 C-43.3004237 32.78530096 -41.76657707 32.113007 -39.91015625 30.43359375 C-38.53212685 27.18785784 -37.63608908 23.9659403 -36.75 20.5546875 C-34.7455744 13.1056826 -29.09777441 7.77789452 -22.91015625 3.43359375 C-15.44789712 -0.23241372 -8.18088881 -0.02266043 0 0 Z " fill="#010101" transform="translate(203.91015625,-0.43359375)"/>
<path d="M0 0 C0.91265625 0.38091797 0.91265625 0.38091797 1.84375 0.76953125 C26.13992883 10.30935441 50.79878758 8.73193928 75 0 C75.09796875 0.88300781 75.1959375 1.76601563 75.296875 2.67578125 C76.65678684 13.59024613 78.64459188 22.8127815 85.73046875 31.44140625 C87 33 87 33 88 35 C81.84990818 44.13830586 75.68221307 53.2399732 69 62 C64.05881579 68.47938498 59.44510671 75.14085052 54.8840332 81.8918457 C49.51785612 89.79464302 43.80536889 97.41641 38 105 C33.23613051 100.6732646 29.90767419 95.66393682 26.375 90.3125 C25.2422394 88.59677589 24.10442988 86.8843716 22.9609375 85.17578125 C22.46384277 84.42208252 21.96674805 83.66838379 21.45458984 82.8918457 C19.96465073 80.74423289 19.96465073 80.74423289 17 79 C13.5896024 78.78685015 11.25468201 78.915106 8 80 C7.22557453 88.05562159 9.10715572 91.71397613 14.0625 97.9375 C15.25393389 99.51169783 16.44534033 101.08591644 17.63671875 102.66015625 C18.75713506 104.10729558 19.87816947 105.55395671 21 107 C22.4816478 108.94353134 23.93435846 110.90035283 25.375 112.875 C25.91898438 113.59429687 26.46296875 114.31359375 27.0234375 115.0546875 C28 117 28 117 27.85546875 118.9921875 C26.83691716 121.38276063 25.53914045 123.20535262 23.9375 125.25 C23.38964844 125.95640625 22.84179688 126.6628125 22.27734375 127.390625 C21.85582031 127.92171875 21.43429688 128.4528125 21 129 C17.21687276 125.52842441 14.461622 121.57451974 11.5625 117.375 C10.49180028 115.84050708 9.42015406 114.30667423 8.34765625 112.7734375 C7.79609863 111.98420898 7.24454102 111.19498047 6.67626953 110.38183594 C3.98749439 106.56131595 1.24407892 102.78089599 -1.5 99 C-5.79692156 93.0738317 -10.04406982 87.11606001 -14.25 81.125 C-22.0187158 69.56240274 -22.0187158 69.56240274 -31 59 C-34.07108055 58.6732893 -36.15050101 58.51861724 -38.875 60.0625 C-40.70408925 63.21259816 -40.39394878 65.38999664 -40 69 C-38.41560811 72.22099583 -36.36293577 75.04349022 -34.25 77.9375 C-33.66089844 78.77087891 -33.07179688 79.60425781 -32.46484375 80.46289062 C-28.26223551 86.3708399 -23.91626997 92.17251613 -19.52246094 97.93920898 C-15.67547483 103.01372881 -12.06516714 108.22456989 -8.5 113.5 C-3.04009514 121.57489901 2.67023138 129.41913464 8.60107422 137.15380859 C9.60588365 138.47987646 10.59535411 139.81761965 11.57470703 141.16259766 C12.09790527 141.87851074 12.62110352 142.59442383 13.16015625 143.33203125 C13.63203369 143.98534424 14.10391113 144.63865723 14.59008789 145.31176758 C16.08017332 147.25788559 16.08017332 147.25788559 19 149 C21.78326222 149.18404638 24.46391682 149.25605615 27.24609375 149.23046875 C28.05361588 149.23001053 28.861138 149.22955231 29.69313049 149.2290802 C31.40033437 149.22606046 33.10753555 149.21818245 34.81469727 149.20581055 C37.42409056 149.18759362 40.03312796 149.18530068 42.64257812 149.18554688 C44.30208639 149.18062983 45.96159226 149.1748007 47.62109375 149.16796875 C48.40036728 149.16685593 49.17964081 149.1657431 49.98252869 149.16459656 C53.46611152 149.13418431 56.67997517 149.09914096 60 148 C61.1640507 146.15147345 61.1640507 146.15147345 62 144 C62.76293129 142.82465099 63.55197827 141.66593342 64.36328125 140.5234375 C65.06517578 139.53150391 65.06517578 139.53150391 65.78125 138.51953125 C66.53921875 137.45798828 66.53921875 137.45798828 67.3125 136.375 C67.84230469 135.62863281 68.37210938 134.88226563 68.91796875 134.11328125 C73.29016726 127.96551856 77.70954759 121.85197417 82.13525391 115.74267578 C86.3564401 109.90969516 90.52105001 104.03863243 94.66503906 98.15063477 C99.40985429 91.40971937 104.1996186 84.7014174 109 78 C112.13070406 79.4179422 114.50609017 81.16197287 117.125 83.375 C122.68401954 87.77284276 128.51256769 90.27080961 135.4375 91.71875 C139.93633339 93.33675148 141.88644155 95.58480589 144.875 99.1875 C148.41404595 103.30648777 151.62122399 106.62753477 156.25 109.5625 C159.08677717 111.61299654 159.87581462 112.44929698 160.65625 115.91015625 C160.8161485 121.39334238 160.56532016 125.62743754 157 130 C154.05859375 131.37109375 154.05859375 131.37109375 150.4375 132.4375 C149.08585771 132.85521064 147.73429883 133.27319128 146.3828125 133.69140625 C144.92193894 134.12781827 143.46099957 134.56401001 142 135 C126.39140658 139.74971176 113.77606268 145.24511729 102 157 C101.17242187 157.81017578 101.17242187 157.81017578 100.328125 158.63671875 C91.02980173 168.55992933 86.47533918 181.1345617 83 194 C82.34926514 194.0093457 81.69853027 194.01869141 81.02807617 194.02832031 C78.08044494 194.08199493 75.13440607 194.1656455 72.1875 194.25 C71.16333984 194.26417969 70.13917969 194.27835938 69.08398438 194.29296875 C68.10107422 194.32519531 67.11816406 194.35742188 66.10546875 194.390625 C65.19949951 194.41157227 64.29353027 194.43251953 63.36010742 194.45410156 C60.87693092 194.810772 60.87693092 194.810772 59.20581055 196.77636719 C57.91586287 199.15515711 57.61438025 200.5067596 57.6015625 203.1875 C57.59769531 203.96867188 57.59382812 204.74984375 57.58984375 205.5546875 C57.60144531 206.36164063 57.61304688 207.16859375 57.625 208 C57.60759766 209.21042969 57.60759766 209.21042969 57.58984375 210.4453125 C57.60723146 213.95762963 57.68039755 216.37897607 59.3046875 219.53515625 C61.07429007 221.33803549 61.07429007 221.33803549 64.5 221.4375 C67.8708832 221.30562425 67.8708832 221.30562425 69.67578125 219.765625 C71.3339718 217.55470427 71.48912851 216.05002655 71.6875 213.3125 C71.8421875 211.1778125 71.8421875 211.1778125 72 209 C75.3 209 78.6 209 82 209 C82 217.58 82 226.16 82 235 C50.98 235 19.96 235 -12 235 C-15.37463594 226.00097082 -15.37463594 226.00097082 -16.25170898 222.8691864 C-16.45343719 222.15573563 -16.65516541 221.44228485 -16.86300659 220.70721436 C-17.07192535 219.95522766 -17.28084412 219.20324097 -17.49609375 218.4284668 C-17.72579865 217.61281754 -17.95550354 216.79716827 -18.19216919 215.95680237 C-18.68626176 214.20139902 -19.17889571 212.44558456 -19.67019653 210.68939781 C-20.44844203 207.9101428 -21.23207361 205.13245947 -22.01733398 202.35517883 C-24.24796503 194.46426792 -26.47296731 186.5718039 -28.68457031 178.67553711 C-30.04117693 173.8334087 -31.40737893 168.99407628 -32.77981567 164.15641212 C-33.30017162 162.31502298 -33.81685671 160.47259241 -34.32980347 158.6291256 C-35.0454598 156.05828394 -35.77324331 153.49117068 -36.50390625 150.92456055 C-36.71282501 150.1624527 -36.92174377 149.40034485 -37.13699341 148.61514282 C-38.54184895 143.64356558 -38.54184895 143.64356558 -42 140 C-45.41668005 138.29165998 -49.3321194 138.82026453 -53.09375 138.7890625 C-54.94662358 138.76100432 -56.79948805 138.73233994 -58.65234375 138.703125 C-61.58219245 138.66176938 -64.51186935 138.62489362 -67.44189453 138.59863281 C-70.26370537 138.57113071 -73.08473649 138.52527117 -75.90625 138.4765625 C-77.22659241 138.4716832 -77.22659241 138.4716832 -78.5736084 138.46670532 C-81.04101562 138.41650391 -81.04101562 138.41650391 -85 138 C-87 135 -87 135 -88 131.4375 C-88.70977006 127.96926675 -88.70977006 127.96926675 -91 126 C-93.72000357 125.75443629 -96.34574257 125.62643514 -99.0703125 125.5859375 C-99.86654022 125.56657135 -100.66276794 125.5472052 -101.48312378 125.5272522 C-104.03030634 125.46739526 -106.57753395 125.42104721 -109.125 125.375 C-110.8502803 125.33682579 -112.57554143 125.29777439 -114.30078125 125.2578125 C-118.53369876 125.16168891 -122.76670549 125.07768092 -127 125 C-126.87490496 122.62697346 -126.74077714 120.25501884 -126.6015625 117.8828125 C-126.56748291 117.21870361 -126.53340332 116.55459473 -126.49829102 115.87036133 C-125.42721317 98.22462435 -114.82582587 82.31638128 -102.375 70.375 C-87.18712958 57.27083132 -68.30212843 53.16365692 -49.35009766 48.29541016 C-46.70860117 47.61432571 -44.07120777 46.91860559 -41.43359375 46.22265625 C-39.74241763 45.78556696 -38.05101946 45.34933568 -36.359375 44.9140625 C-35.57713562 44.70584869 -34.79489624 44.49763489 -33.98895264 44.28311157 C-30.28776634 43.34802174 -27.63001764 42.73472298 -24 44 C-22.47607422 45.64233398 -22.47607422 45.64233398 -21.0546875 47.74609375 C-20.53519531 48.50083984 -20.01570313 49.25558594 -19.48046875 50.03320312 C-18.95066406 50.82662109 -18.42085938 51.62003906 -17.875 52.4375 C-16.81140891 53.99972912 -15.74636862 55.56097286 -14.6796875 57.12109375 C-14.21288574 57.8164624 -13.74608398 58.51183105 -13.26513672 59.22827148 C-11.98262575 61.12706787 -11.98262575 61.12706787 -10 63 C-5.33771115 63.4640446 -5.33771115 63.4640446 -1.0625 61.875 C0.56124201 59.00957292 0.39385771 57.28340999 0 54 C-1.54328937 51.11229304 -3.46989172 48.54878682 -5.4375 45.9375 C-12.02845034 37.0755106 -12.02845034 37.0755106 -12 33 C-10.92578125 31.078125 -10.92578125 31.078125 -9.3125 29.25 C-2.112821 20.22952051 -1.04212189 11.17538607 0 0 Z " fill="#01BEF8" transform="translate(191,262)"/>
<path d="M0 0 C1.9633112 1.67159279 3.2663811 3.40303414 4.71875 5.53515625 C12.95594628 16.43064093 26.46741182 23.44300793 39.65625 26.41015625 C43.26503843 26.68510472 46.85105435 26.68974885 50.46875 26.66015625 C51.40267578 26.66789062 52.33660156 26.675625 53.29882812 26.68359375 C62.70950121 26.65747113 71.11043798 25.26357742 79.53125 20.97265625 C80.20961914 20.63065186 80.88798828 20.28864746 81.58691406 19.9362793 C89.54194945 15.70724485 96.35963809 9.80766623 101.7734375 2.5859375 C102.39476562 1.86792969 103.01609375 1.14992188 103.65625 0.41015625 C115.22889433 -0.01846021 126.87917561 6.39163702 135.65625 13.41015625 C136.49027344 14.03535156 137.32429687 14.66054688 138.18359375 15.3046875 C148.79042361 24.3364115 154.55133875 37.94552801 156.65625 51.41015625 C157.09837881 57.50509875 156.94340112 63.61761498 156.84375 69.72265625 C156.82866019 71.34959684 156.81497947 72.97655114 156.80273438 74.60351562 C156.77268724 78.53969034 156.71391613 82.47390861 156.65625 86.41015625 C147.41625 86.41015625 138.17625 86.41015625 128.65625 86.41015625 C128.34375 75.09765625 128.34375 75.09765625 128.26831055 71.54174805 C128.23519775 70.61531494 128.20208496 69.68888184 128.16796875 68.734375 C128.12869263 67.31257935 128.12869263 67.31257935 128.08862305 65.86206055 C127.58932345 63.03062867 126.93103027 62.11432196 124.65625 60.41015625 C121.80957193 59.83518365 119.60786603 60.12904996 116.65625 60.41015625 C111.81695218 67.66910298 114.03520365 77.69422226 113.65625 86.41015625 C73.06625 86.41015625 32.47625 86.41015625 -9.34375 86.41015625 C-9.67375 78.82015625 -10.00375 71.23015625 -10.34375 63.41015625 C-14.69168401 59.05730199 -14.69168401 59.05730199 -18.53125 59.47265625 C-21.63975708 60.18906454 -21.63975708 60.18906454 -23.34375 63.41015625 C-23.71071181 65.92517802 -23.71071181 65.92517802 -23.7578125 68.734375 C-23.81122803 70.12402466 -23.81122803 70.12402466 -23.86572266 71.54174805 C-23.89972168 72.71519775 -23.9337207 73.88864746 -23.96875 75.09765625 C-24.154375 80.69734375 -24.154375 80.69734375 -24.34375 86.41015625 C-33.58375 86.41015625 -42.82375 86.41015625 -52.34375 86.41015625 C-52.4597304 81.12918188 -52.55888649 75.85277579 -52.6184082 70.5715332 C-52.64326511 68.78231689 -52.67716357 66.99319893 -52.72094727 65.2043457 C-53.18331578 45.80118697 -49.21868745 30.73872663 -35.53125 16.09765625 C-28.20160314 9.2764242 -20.30202214 5.09996657 -10.90625 1.84765625 C-9.73376709 1.43362549 -9.73376709 1.43362549 -8.53759766 1.01123047 C-3.04935632 -0.76742134 -3.04935632 -0.76742134 0 0 Z " fill="#FDD301" transform="translate(340.34375,410.58984375)"/>
<path d="M0 0 C1.16301636 -0.01929062 2.32603271 -0.03858124 3.52429199 -0.05845642 C8.91054656 -0.11650866 14.29663609 -0.16591179 19.68310547 -0.19628906 C22.5055241 -0.21390756 25.32690635 -0.24839217 28.14892578 -0.29882812 C52.43408849 -0.72286012 72.59395701 1.42109695 91.07617188 18.80249023 C102.64909921 30.48924965 110.52907909 45.2468052 110.63439941 61.98696899 C110.63065308 62.70339569 110.62690674 63.41982239 110.62304688 64.15795898 C110.61960266 65.31671036 110.61960266 65.31671036 110.61608887 66.49887085 C110.51680351 76.80074478 109.71417301 87.0635127 108.95898438 97.33374023 C108.81387357 99.37145946 108.66933913 101.40921982 108.52539062 103.44702148 C108.17653869 108.36809202 107.81998208 113.28854639 107.45898438 118.20874023 C104.75514817 114.90508512 102.67177293 111.93866541 100.95898438 108.02124023 C100.53617188 107.06475586 100.11335937 106.10827148 99.67773438 105.12280273 C98.53934965 102.40089566 97.49387048 99.65871846 96.45898438 96.89624023 C94.20711598 91.24414027 91.91108043 87.4168461 86.25585938 84.63061523 C82.58240783 83.12965052 78.94588362 82.49653856 75.02148438 81.89624023 C67.00350669 80.43413842 62.29951204 78.09431526 57.46289062 71.47827148 C55.0520382 67.80620853 52.85162434 64.38666012 51.45898438 60.20874023 C49.81268244 59.0893895 49.81268244 59.0893895 47.45898438 58.20874023 C46.33218262 57.7027832 45.20538086 57.19682617 44.04443359 56.67553711 C38.64516765 54.66924583 33.35754624 54.74106908 27.65429688 54.73999023 C26.53513885 54.73237671 25.41598083 54.72476318 24.26290894 54.71691895 C21.90462465 54.70615381 19.54629282 54.70325017 17.18798828 54.70776367 C13.60172117 54.70873543 10.01759917 54.6670799 6.43164062 54.62280273 C4.1308638 54.6175945 1.8300796 54.61490756 -0.47070312 54.61499023 C-1.53143036 54.59859497 -2.59215759 54.58219971 -3.68502808 54.56530762 C-12.36559712 54.64492926 -19.07716251 56.89548943 -25.41601562 62.95874023 C-29.59156941 69.34488132 -31.64855333 73.96421111 -31.66601562 81.70874023 C-32.08014446 93.28068311 -37.23983894 105.019019 -42.54101562 115.20874023 C-43.53101563 115.70374023 -43.53101563 115.70374023 -44.54101562 116.20874023 C-45.8741383 113.54249489 -45.68918087 111.30876996 -45.79101562 108.33374023 C-46.09134811 103.4383001 -46.09134811 103.4383001 -48.91601562 99.52124023 C-51.54838132 98.12771758 -51.54838132 98.12771758 -54.54101562 97.20874023 C-54.87101563 90.60874023 -55.20101562 84.00874023 -55.54101562 77.20874023 C-53.06601563 76.21874023 -53.06601563 76.21874023 -50.54101562 75.20874023 C-49.18937888 72.50546675 -49.39651475 70.34173469 -49.36523438 67.31811523 C-49.34138672 66.1334668 -49.31753906 64.94881836 -49.29296875 63.72827148 C-49.25027006 61.23104516 -49.2188739 58.73359799 -49.19921875 56.23608398 C-49.00192673 47.76629169 -48.0716568 43.59163452 -41.83398438 37.61499023 C-37.5053694 34.20761774 -32.49511686 31.97904295 -27.5546875 29.60327148 C-23.23487897 27.43002271 -20.46104058 25.87887613 -18.54101562 21.20874023 C-17.91312958 18.75745298 -17.91312958 18.75745298 -17.60351562 16.27124023 C-16.34948933 9.35353782 -13.25863788 5.27126131 -7.54101562 1.20874023 C-4.92140912 -0.10106302 -2.93392255 0.04544795 0 0 Z " fill="#0680AD" transform="translate(197.541015625,14.791259765625)"/>
<path d="M0 0 C7.26 0 14.52 0 22 0 C26 10 26 10 26 12 C29.20137661 13.06712554 31.52686816 13.1396139 34.89257812 13.16113281 C36.70961243 13.17554413 36.70961243 13.17554413 38.56335449 13.19024658 C39.87276001 13.19449646 41.18216553 13.19874634 42.53125 13.203125 C43.8874105 13.20887809 45.24357098 13.2146358 46.59973145 13.22039795 C49.4410032 13.2308953 52.28224675 13.23674679 55.12353516 13.24023438 C58.76545488 13.24572823 62.40700245 13.26978003 66.04880524 13.29820633 C68.84890846 13.31681845 71.64892156 13.32203744 74.44908142 13.32357025 C76.44498007 13.32807139 78.44083051 13.34672038 80.43664551 13.36553955 C81.64800171 13.36253845 82.85935791 13.35953735 84.10742188 13.35644531 C85.17536987 13.36009094 86.24331787 13.36373657 87.34362793 13.36749268 C90.38439768 13.21913709 90.38439768 13.21913709 93 10 C93 6.7 93 3.4 93 0 C102.9 0 112.8 0 123 0 C127.95446903 16.11992814 132.73153316 32.28081343 137.36401367 48.49609375 C138.09009209 51.03513895 138.81780454 53.5736395 139.54858398 56.11132812 C140.61837291 59.82830725 141.68293946 63.54674351 142.74609375 67.265625 C143.07411484 68.40292053 143.40213593 69.54021606 143.74009705 70.7119751 C144.18670433 72.28202301 144.18670433 72.28202301 144.64233398 73.88378906 C145.03702126 75.26198822 145.03702126 75.26198822 145.43968201 76.66802979 C146 79 146 79 146 82 C105.74 82 65.48 82 24 82 C22.07010795 76.85362121 20.33366825 71.97706896 18.83935547 66.72949219 C18.64545227 66.05199921 18.45154907 65.37450623 18.25177002 64.67648315 C17.62040505 62.46750423 16.99373035 60.25722599 16.3671875 58.046875 C15.92573661 56.49839692 15.48401041 54.9499973 15.04202271 53.40167236 C13.88539128 49.34678984 12.73283999 45.29075834 11.58105469 41.23449707 C10.63930574 37.92062839 9.69458666 34.60760998 8.74972343 31.29462814 C7.62118189 27.33733688 6.49401406 23.37965489 5.3671875 19.421875 C5.04581629 18.29339268 5.04581629 18.29339268 4.71795273 17.14211273 C4.11184819 15.0125942 3.50668213 12.88281146 2.90185547 10.75292969 C2.55782684 9.54239929 2.21379822 8.3318689 1.85934448 7.08465576 C1.20411825 4.73269166 0.5921574 2.3686296 0 0 Z " fill="#FB682F" transform="translate(17,415)"/>
<path d="M0 0 C3.41920742 3.06388075 5.24070191 6.06740347 7.20703125 10.19921875 C7.80004824 11.42126374 8.39314998 12.6432676 8.98632812 13.86523438 C9.89755642 15.76791418 10.80524095 17.67221394 11.71020508 19.57788086 C17.29729092 31.29411744 23.94955832 42.63303888 35 50 C37.40809113 64.28328562 31.3731239 80.44349199 23.88671875 92.41796875 C14.7645036 104.90199403 1.48670244 114.14072611 -13.6953125 117.6171875 C-26.08660341 119.05258527 -39.62145686 119.64737708 -51 114 C-51.98871094 113.51402344 -52.97742188 113.02804687 -53.99609375 112.52734375 C-71.43638223 103.1295832 -81.64127205 88.80905906 -87.3125 70.0625 C-88.57675905 64.49739708 -88.15549701 58.6670023 -88 53 C-83.20970133 50.97042609 -78.37876021 49.10861085 -73.4453125 47.45703125 C-62.45572077 43.7715697 -52.15027676 39.60689402 -42 34 C-41.36223633 33.65211426 -40.72447266 33.30422852 -40.06738281 32.94580078 C-31.03786131 27.96611767 -23.15168874 22.2302522 -15.49023438 15.33886719 C-14.04207744 14.03780352 -12.57594326 12.75683696 -11.109375 11.4765625 C-7.00074123 7.86048424 -3.34358242 4.35196442 0 0 Z " fill="#FCF0DB" transform="translate(419,254)"/>
<path d="M0 0 C4.29 0 8.58 0 13 0 C13 0.99 13 1.98 13 3 C10.5625 4.625 10.5625 4.625 8 6 C6.35676701 7.64323299 6.83303421 9.57731763 6.7890625 11.83984375 C6.76070313 12.82017578 6.73234375 13.80050781 6.703125 14.81054688 C6.65114372 16.8910977 6.60684205 18.97185491 6.5703125 21.05273438 C6.539375 22.03435547 6.5084375 23.01597656 6.4765625 24.02734375 C6.45674316 24.93218506 6.43692383 25.83702637 6.41650391 26.76928711 C6.27905762 27.50542236 6.14161133 28.24155762 6 29 C3 31 3 31 -0.5 31.4375 C-3.87021152 31.75135872 -3.87021152 31.75135872 -5.9375 33.1875 C-7.56034621 35.95588471 -7.44922076 37.85545467 -7 41 C-5.69138543 43.55985074 -5.69138543 43.55985074 -3 45 C2.63437748 46.08481138 7.35034507 45.00515996 12.28125 42.1875 C16.46952888 39.29378004 18.08586879 36.0362556 19.60546875 31.32421875 C19.8686792 30.51428467 20.13188965 29.70435059 20.40307617 28.86987305 C20.60006104 28.25281494 20.7970459 27.63575684 21 27 C21.6403569 27.00666183 22.28071381 27.01332367 22.94047546 27.02018738 C29.60764544 27.08657792 36.27472144 27.1318162 42.94213867 27.16479492 C45.4301332 27.17987761 47.91810117 27.20034654 50.40600586 27.22631836 C53.98297688 27.26272337 57.55959622 27.27973184 61.13671875 27.29296875 C62.24834885 27.30845261 63.35997894 27.32393646 64.5052948 27.33988953 C66.06634697 27.34022942 66.06634697 27.34022942 67.65893555 27.34057617 C68.5716069 27.34723801 69.48427826 27.35389984 70.42460632 27.36076355 C73.52331804 26.92669312 75.39417516 25.68178135 78 24 C78.66 24 79.32 24 80 24 C78.72496836 46.98412305 73.42431751 65.24499154 57 82 C56.33484375 82.70125 55.6696875 83.4025 54.984375 84.125 C41.10335281 97.68813619 22.316687 102.3125 3.54858398 102.3125 C-16.89545189 102.01559841 -32.98692561 93.33155336 -47 79 C-47.66515625 78.36707031 -48.3303125 77.73414063 -49.015625 77.08203125 C-60.27013626 65.599388 -66.35494376 47.32092962 -66.25 31.5625 C-66.18715983 29.37431541 -66.1116377 27.18623826 -66 25 C-64.86389282 25.48460693 -64.86389282 25.48460693 -63.70483398 25.97900391 C-58.67476799 27.36521385 -53.91789112 27.3248276 -48.72265625 27.3359375 C-47.6379454 27.3425943 -46.55323456 27.3492511 -45.43565369 27.35610962 C-43.14697968 27.36621196 -40.85827636 27.37092739 -38.56958008 27.37060547 C-35.07779261 27.37498084 -31.58726742 27.41133381 -28.09570312 27.44921875 C-25.8671918 27.45508702 -23.6386745 27.45905634 -21.41015625 27.4609375 C-20.37141861 27.47530853 -19.33268097 27.48967957 -18.26246643 27.50448608 C-11.96294212 27.46497847 -8.12304249 26.75492513 -3 23 C-0.2723647 18.77140338 -0.5607384 13.59021995 -0.375 8.6875 C-0.33632812 7.85154297 -0.29765625 7.01558594 -0.2578125 6.15429688 C-0.16404841 4.10320741 -0.08095755 2.05163485 0 0 Z " fill="#FCCCBD" transform="translate(222,153)"/>
<path d="M0 0 C0.6084375 0.25394531 1.216875 0.50789063 1.84375 0.76953125 C26.13992883 10.30935441 50.79878758 8.73193928 75 0 C75.09796875 0.88300781 75.1959375 1.76601563 75.296875 2.67578125 C76.65678684 13.59024613 78.64459188 22.8127815 85.73046875 31.44140625 C87 33 87 33 88 35 C81.84990818 44.13830586 75.68221307 53.2399732 69 62 C64.05881579 68.47938498 59.44510671 75.14085052 54.8840332 81.8918457 C49.51785612 89.79464302 43.80536889 97.41641 38 105 C33.23613051 100.6732646 29.90767419 95.66393682 26.375 90.3125 C25.2422394 88.59677589 24.10442988 86.8843716 22.9609375 85.17578125 C22.46384277 84.42208252 21.96674805 83.66838379 21.45458984 82.8918457 C19.96465073 80.74423289 19.96465073 80.74423289 17 79 C15.741875 79.1134375 14.48375 79.226875 13.1875 79.34375 C10.50463911 79.4125413 9.40728424 79.33908781 7.3203125 77.6015625 C5.74435972 75.63366291 4.35839574 73.62368911 3 71.5 C2.51144531 70.78457031 2.02289063 70.06914062 1.51953125 69.33203125 C0.32202274 67.57098933 -0.84237366 65.78751127 -2 64 C-1.6795874 63.39663818 -1.3591748 62.79327637 -1.02905273 62.17163086 C0.42030861 59.11301421 0.48183922 57.37287455 0 54 C-1.55298136 51.11716252 -3.46960591 48.54916614 -5.4375 45.9375 C-12.02845034 37.0755106 -12.02845034 37.0755106 -12 33 C-10.92578125 31.078125 -10.92578125 31.078125 -9.3125 29.25 C-2.112821 20.22952051 -1.04212189 11.17538607 0 0 Z " fill="#FDA68E" transform="translate(191,262)"/>
<path d="M0 0 C13.46659112 10.37526461 23.70486697 24.98278051 26.1875 42.125 C26.4082849 46.31750207 26.3782714 50.49077882 26.3125 54.6875 C26.30347656 55.79158203 26.29445313 56.89566406 26.28515625 58.03320312 C26.26180128 60.7307017 26.22905054 63.42773077 26.1875 66.125 C15.81830409 56.97570949 10.71603775 42.31453602 4.7746582 30.10742188 C3.59240087 27.68271611 2.40037389 25.26301467 1.20703125 22.84375 C0.84760941 22.09798706 0.48818756 21.35222412 0.11787415 20.5838623 C-1.57942349 17.1556105 -2.56860683 15.28759545 -5.8125 13.125 C-9.71965572 13.22700293 -11.99134995 13.36217462 -14.90234375 16.06640625 C-15.51207031 16.93136719 -16.12179687 17.79632813 -16.75 18.6875 C-26.54243213 31.47761544 -38.17333089 42.54013859 -51.8125 51.125 C-52.90691406 51.81851563 -54.00132812 52.51203125 -55.12890625 53.2265625 C-66.88236337 60.28136063 -86.76427038 72.125 -100.8125 72.125 C-102.19476092 60.6966642 -103.27368908 48.20270699 -100.2734375 36.984375 C-99.51397248 33.92077035 -99.43813925 31.24467294 -99.8125 28.125 C-101.67374923 26.14260473 -101.67374923 26.14260473 -103.8125 25.125 C-102.23691611 19.13778121 -99.12937106 11.32339128 -93.796875 7.7890625 C-91.8125 7.125 -91.8125 7.125 -88.9375 7.75 C-85.42952424 8.17095709 -84.25931851 7.56624321 -81.484375 5.4921875 C-80.27898165 4.50646864 -79.08205828 3.51036002 -77.890625 2.5078125 C-55.3538326 -15.99867761 -23.7582976 -16.7801091 0 0 Z " fill="#835050" transform="translate(429.8125,219.875)"/>
<path d="M0 0 C11.96279809 0.46912934 22.78130504 5.62834231 32 13 C32.83402344 13.62519531 33.66804687 14.25039063 34.52734375 14.89453125 C45.13417361 23.92625525 50.89508875 37.53537176 53 51 C53.44212881 57.0949425 53.28715112 63.20745873 53.1875 69.3125 C53.17241019 70.93944059 53.15872947 72.56639489 53.14648438 74.19335938 C53.11643724 78.12953409 53.05766613 82.06375236 53 86 C43.76 86 34.52 86 25 86 C24.6875 74.6875 24.6875 74.6875 24.61206055 71.1315918 C24.57894775 70.20515869 24.54583496 69.27872559 24.51171875 68.32421875 C24.47244263 66.9024231 24.47244263 66.9024231 24.43237305 65.4519043 C23.93307345 62.62047242 23.27478027 61.70416571 21 60 C18.15332193 59.4250274 15.95161603 59.71889371 13 60 C8.16070218 67.25894673 10.37895365 77.28406601 10 86 C-30.59 86 -71.18 86 -113 86 C-113 82.04 -113 78.08 -113 74 C-111.74434235 73.99413376 -110.48868469 73.98826752 -109.19497681 73.98222351 C-97.33675415 73.92490391 -85.47871325 73.85209393 -73.62067604 73.76428509 C-67.52496295 73.71963961 -61.42931581 73.68037051 -55.33349609 73.65356445 C-49.44597223 73.62747363 -43.55870291 73.58702999 -37.67133713 73.53681374 C-35.43001863 73.52018414 -33.18865615 73.50864562 -30.9472847 73.50238609 C-27.79743281 73.4927026 -24.64822644 73.46459202 -21.49853516 73.43237305 C-20.1218013 73.43452568 -20.1218013 73.43452568 -18.71725464 73.4367218 C-11.06797348 73.32673456 -4.15680616 71.9876187 2.375 67.875 C9.46963791 60.10468229 9.59925439 51.83628326 9.4375 41.6875 C9.44458984 40.44548828 9.45167969 39.20347656 9.45898438 37.92382812 C9.3908852 27.93420287 8.24706285 18.23646723 3.3125 9.375 C1 5.15929204 1 5.15929204 1 3 C-0.32 3.66 -1.64 4.32 -3 5 C-1.125 1.125 -1.125 1.125 0 0 Z " fill="#F8C400" transform="translate(444,411)"/>
<path d="M0 0 C-1.27503164 22.98412305 -6.57568249 41.24499154 -23 58 C-23.66515625 58.70125 -24.3303125 59.4025 -25.015625 60.125 C-38.90059583 73.6919944 -57.67683989 78.30070243 -76.44702148 78.31469727 C-90.22065128 78.12240124 -101.29373943 74.02770449 -113 67 C-113 66.67 -113 66.34 -113 66 C-111.99582031 65.90203125 -110.99164063 65.8040625 -109.95703125 65.703125 C-101.7588749 64.83115209 -94.30638902 63.46643994 -86.4765625 60.8046875 C-84 60 -84 60 -82 60 C-82 59.34 -82 58.68 -82 58 C-82.87398437 57.90525391 -82.87398437 57.90525391 -83.765625 57.80859375 C-93.48581325 56.35667884 -103.03347381 51.6610819 -109.0703125 43.6953125 C-110.59361939 40.91751758 -110.68046946 39.06211258 -110 36 C-108.375 33.625 -108.375 33.625 -106 32 C-101.19964022 31.48708485 -98.98177808 32.26958664 -95.25 35.25 C-86.26160236 41.85399409 -78.22438103 44.35300042 -67 43 C-63.38112317 42.09145264 -60.27273589 40.78000782 -57 39 C-56.30261719 38.63390625 -55.60523438 38.2678125 -54.88671875 37.890625 C-45.61303058 32.05630467 -40.19667748 19.09572153 -37 9 C-36.65700802 7.3352942 -36.32251954 5.66879299 -36 4 C-35.14768799 3.98541748 -34.29537598 3.97083496 -33.41723633 3.95581055 C-30.23928825 3.89456715 -27.06197454 3.82037971 -23.88452148 3.73754883 C-22.51224042 3.70440194 -21.13982638 3.67633829 -19.76733398 3.65356445 C-17.78862234 3.61983234 -15.81028624 3.5659851 -13.83203125 3.51171875 C-12.64327393 3.48553467 -11.4545166 3.45935059 -10.22973633 3.43237305 C-6.36741786 2.91531461 -3.66571636 0 0 0 Z " fill="#FCAE9C" transform="translate(302,177)"/>
<path d="M0 0 C9.9 0 19.8 0 30 0 C34.95446903 16.11992814 39.73153316 32.28081343 44.36401367 48.49609375 C45.09009209 51.03513895 45.81780454 53.5736395 46.54858398 56.11132812 C47.61837291 59.82830725 48.68293946 63.54674351 49.74609375 67.265625 C50.07411484 68.40292053 50.40213593 69.54021606 50.74009705 70.7119751 C51.03783524 71.75867371 51.33557343 72.80537231 51.64233398 73.88378906 C51.90545883 74.8025885 52.16858368 75.72138794 52.43968201 76.66802979 C53 79 53 79 53 82 C12.74 82 -27.52 82 -69 82 C-72 74 -72 74 -72 70 C-71.26608032 69.99191315 -70.53216064 69.98382629 -69.77600098 69.97549438 C-62.83233341 69.89729388 -55.88883392 69.80992795 -48.94541168 69.71247292 C-45.37640712 69.6626976 -41.8074295 69.61636734 -38.23828125 69.578125 C-34.78868687 69.54103329 -31.33932872 69.49461164 -27.88993835 69.44193649 C-25.94481177 69.41460435 -23.99955957 69.39673582 -22.05432129 69.37905884 C-11.24185054 69.2001207 -2.45095342 67.97040836 5.73046875 60.3984375 C11.56168138 54.09208903 13.40996282 47.82941388 13.32080078 39.33496094 C12.6657512 32.52523697 10.47467883 26.0233611 8.5 19.5 C7.85395643 17.32339683 7.21212535 15.14564052 6.57409668 12.9666748 C5.99922791 11.00998799 5.41301352 9.05664499 4.82617188 7.10351562 C4 4 4 4 4 1 C3.01 1 2.02 1 1 1 C0.67 1.66 0.34 2.32 0 3 C0 2.01 0 1.02 0 0 Z " fill="#FA5325" transform="translate(110,415)"/>
<path d="M0 0 C1.38680214 -0.01913956 1.38680214 -0.01913956 2.80162048 -0.03866577 C4.2892263 -0.04200424 4.2892263 -0.04200424 5.80688477 -0.04541016 C6.83258072 -0.05206696 7.85827667 -0.05872375 8.91505432 -0.06558228 C11.08283699 -0.07570079 13.25065077 -0.08039954 15.41845703 -0.08007812 C18.73269988 -0.08445208 22.04561179 -0.12078328 25.35961914 -0.15869141 C27.46703647 -0.16455956 29.57446011 -0.16852896 31.68188477 -0.17041016 C32.67159775 -0.18478119 33.66131073 -0.19915222 34.68101501 -0.21395874 C39.05401581 -0.18495304 41.58952725 -0.15197245 45.38012695 2.17358398 C47.39302555 4.38069624 48.74429399 6.45751946 50.12329102 9.10302734 C54.43509972 16.59079745 60.95240214 22.6456301 69.31079102 25.29052734 C71.31538882 25.57661065 73.32030866 25.86115563 75.32836914 26.12182617 C84.45534494 27.35717179 84.45534494 27.35717179 87.45532227 30.63037109 C89.04534492 33.824163 90.31079102 36.68885606 90.31079102 40.29052734 C89.16078613 40.29987305 88.01078125 40.30921875 86.82592773 40.31884766 C82.5428247 40.35884119 78.26043289 40.4246257 73.9777832 40.49804688 C72.12729049 40.52620233 70.27667873 40.5474438 68.42602539 40.56152344 C65.75939222 40.58302854 63.09418217 40.62971594 60.42797852 40.68115234 C59.194814 40.6829953 59.194814 40.6829953 57.93673706 40.68487549 C52.62672899 40.81905278 49.51573235 41.7536608 45.31079102 45.29052734 C43.99031015 47.58500075 43.99031015 47.58500075 43.43579102 50.04052734 C43.06454102 51.44302734 42.69329102 52.84552734 42.31079102 54.29052734 C38.02079102 54.29052734 33.73079102 54.29052734 29.31079102 54.29052734 C28.89829102 52.86740234 28.48579102 51.44427734 28.06079102 49.97802734 C27.07879068 47.02739427 26.53388293 45.51361926 24.31079102 43.29052734 C19.76974091 41.02000229 15.4505254 41.07316679 10.48657227 40.97412109 C9.1944709 40.94294945 9.1944709 40.94294945 7.87626648 40.91114807 C5.12535558 40.84577826 2.37434946 40.78682603 -0.37670898 40.72802734 C-2.24195319 40.68483017 -4.10718779 40.64121549 -5.97241211 40.59716797 C-10.54458022 40.49010972 -15.11684409 40.3888068 -19.68920898 40.29052734 C-19.26333496 39.23559082 -18.83746094 38.1806543 -18.39868164 37.09375 C-14.26503932 26.70141625 -14.26503932 26.70141625 -13.06420898 15.66552734 C-13.09950701 9.86488503 -12.45907626 6.80114047 -8.68920898 2.29052734 C-5.72846166 0.44881207 -3.46070392 0.032532 0 0 Z " fill="#FDCCBD" transform="translate(192.689208984375,83.70947265625)"/>
<path d="M0 0 C3.41920742 3.06388075 5.24070191 6.06740347 7.20703125 10.19921875 C7.80004824 11.42126374 8.39314998 12.6432676 8.98632812 13.86523438 C9.89755642 15.76791418 10.80524095 17.67221394 11.71020508 19.57788086 C17.29729092 31.29411744 23.94955832 42.63303888 35 50 C37.40809113 64.28328562 31.3731239 80.44349199 23.88671875 92.41796875 C14.7645036 104.90199403 1.48670244 114.14072611 -13.6953125 117.6171875 C-32.3043207 119.77284093 -47.27041294 117.62583807 -63 107 C-63 106.67 -63 106.34 -63 106 C-61.78441406 105.80664062 -60.56882812 105.61328125 -59.31640625 105.4140625 C-57.73169374 105.15150658 -56.14706239 104.88846041 -54.5625 104.625 C-53.76005859 104.49867188 -52.95761719 104.37234375 -52.13085938 104.2421875 C-50.07479277 103.89517204 -48.03509869 103.45409572 -46 103 C-45.67 102.34 -45.34 101.68 -45 101 C-39 103 -39 103 -33 105 C-26.38494926 105.45952695 -20.28732969 105.11196017 -14 103 C-12.81277344 102.63261719 -12.81277344 102.63261719 -11.6015625 102.2578125 C-4.95414816 99.94655767 0.57080502 96.55983258 5 91 C6.08724618 87.28085912 6.08724618 87.28085912 5 84 C3.55851025 81.81452316 3.55851025 81.81452316 1 81 C-5.01461014 81 -7.63043233 83.09527995 -12 87 C-17.27586207 90 -17.27586207 90 -21 90 C-19.58163016 86.76926869 -17.84698778 84.68410917 -15.375 82.1875 C-4.16651639 69.83571023 1.47585221 53.78537682 1.26953125 37.2421875 C0.45253111 27.41450461 -6.24235685 19.75764315 -13 13 C-12.39671875 12.48050781 -11.7934375 11.96101563 -11.171875 11.42578125 C-7.07408883 7.85013235 -3.19314256 4.44263312 0 0 Z " fill="#FBE2BF" transform="translate(419,254)"/>
<path d="M0 0 C0.63679688 0.2165625 1.27359375 0.433125 1.9296875 0.65625 C17.4200105 5.09379611 36.68264192 5.20914202 52 0 C52.20753906 0.845625 52.41507812 1.69125 52.62890625 2.5625 C54.52446417 9.54196014 56.35102816 14.35796216 61.70703125 19.31640625 C63 21 63 21 62.94140625 22.96875 C59.66051254 30.04785675 51.59811044 34.06147209 44.7734375 36.9921875 C32.15803499 41.57637602 18.22044528 42.13462746 5.8046875 36.55859375 C1.45294387 34.14028496 -2.32010006 31.34327707 -6 28 C-6.54785156 27.50886719 -7.09570312 27.01773437 -7.66015625 26.51171875 C-9.0625 25.1875 -9.0625 25.1875 -11 23 C-11 22.34 -11 21.68 -11 21 C-10.278125 20.505 -9.55625 20.01 -8.8125 19.5 C-3.14714653 14.46413025 -0.48701092 7.46750078 0 0 Z " fill="#FBCFA2" transform="translate(366,383)"/>
<path d="M0 0 C3.3 0 6.6 0 10 0 C10 8.58 10 17.16 10 26 C-21.02 26 -52.04 26 -84 26 C-87.375 17 -87.375 17 -88 13 C-87.02582626 13.00444122 -86.05165253 13.00888245 -85.04795837 13.01345825 C-75.85256342 13.05405946 -66.65718674 13.08401085 -57.46172237 13.10362434 C-52.73461601 13.11404691 -48.00758219 13.1281782 -43.28051758 13.15087891 C-38.71584424 13.17266177 -34.15124056 13.18458011 -29.58651924 13.18975449 C-27.84786445 13.19344048 -26.10921332 13.20063826 -24.3705883 13.21146011 C-21.92918634 13.22604744 -19.48806962 13.22797493 -17.04663086 13.22705078 C-16.33308945 13.23424133 -15.61954803 13.24143188 -14.88438416 13.24884033 C-10.18741121 13.22969049 -6.37969677 12.59008725 -2 11 C-0.85185003 8.70370006 -0.69230191 6.92301914 -0.4375 4.375 C-0.293125 2.93125 -0.14875 1.4875 0 0 Z " fill="#07A8EF" transform="translate(263,471)"/>
<path d="M0 0 C0.66 0 1.32 0 2 0 C3.78980647 14.51731914 1.61267798 22.93517921 -7.359375 34.484375 C-7.97103516 35.24298828 -8.58269531 36.00160156 -9.21289062 36.78320312 C-11.39396002 39.48868265 -13.47103445 42.26261215 -15.54589844 45.04980469 C-16.51685424 46.35202009 -17.49411047 47.64956096 -18.47753906 48.94238281 C-22.91097448 54.78104596 -27.01632558 60.82207839 -31.11816406 66.89624023 C-35.33353 73.10658222 -39.75247208 79.13600169 -44.30664062 85.1015625 C-46.87658877 88.40648216 -46.87658877 88.40648216 -49 92 C-54.28 92 -59.56 92 -65 92 C-59.34178862 82.78895821 -53.09486157 74.0949837 -46.72607422 65.3671875 C-43.95326861 61.56448266 -41.19429263 57.75182315 -38.4375 53.9375 C-37.89915527 53.19298584 -37.36081055 52.44847168 -36.80615234 51.68139648 C-32.67169996 45.95375533 -28.5931888 40.18818647 -24.53027344 34.40966797 C-20.24789343 28.32812303 -15.89916246 22.29587314 -11.52807617 16.27783203 C-8.01250291 11.43109852 -4.58530128 6.54093408 -1.26953125 1.5546875 C-0.85058594 1.04164063 -0.43164062 0.52859375 0 0 Z " fill="#00BAF2" transform="translate(291,305)"/>
<path d="M0 0 C2.421875 1.390625 2.421875 1.390625 4.75 3.25 C13.73839764 9.85399409 21.77561897 12.35300042 33 11 C40.26270607 9.17664079 46.70085316 5.29914684 52 0 C55.82011276 -0.360388 58.15684085 -0.54048663 61.4375 1.5625 C63.74371212 5.16019091 63.91190477 6.79120877 63 11 C57.98555875 17.17704004 51.26486117 21.02185816 44 24 C43.23171875 24.3196875 42.4634375 24.639375 41.671875 24.96875 C29.96128016 29.15664484 17.26970386 27.87686423 6 23 C-0.30860003 19.69358907 -6.20733174 16.14673822 -10 10 C-10.6746862 6.25174332 -10.5268901 4.77007015 -8.375 1.625 C-5.30101064 -0.47825588 -3.67629195 -0.35577019 0 0 Z " fill="#040303" transform="translate(202,209)"/>
<path d="M0 0 C13.2 0 26.4 0 40 0 C40 8.91 40 17.82 40 27 C26.8 27 13.6 27 0 27 C0 18.09 0 9.18 0 0 Z " fill="#95DDF2" transform="translate(250,139)"/>
<path d="M0 0 C13.2 0 26.4 0 40 0 C40 8.91 40 17.82 40 27 C26.8 27 13.6 27 0 27 C0 18.09 0 9.18 0 0 Z " fill="#C3E9F8" transform="translate(167,139)"/>
<path d="M0 0 C4.02936932 1.29759351 6.49631724 3.01361746 9.6953125 5.71484375 C16.42449174 10.6891586 25.67578376 10.19878281 33.6875 9.1875 C38.40617827 7.61251563 41.65780128 5.11913218 45.3125 1.8125 C47.6875 0.1875 47.6875 0.1875 51.3125 0.25 C56.23035714 1.61607143 56.23035714 1.61607143 57.6875 4.1875 C58.35800059 7.67410305 58.4829408 9.98923982 56.46875 13.0234375 C49.12576084 20.95525126 37.87857878 25.64487333 27.2109375 26.3515625 C14.6983751 26.7392757 3.30446635 22.23539699 -5.984375 13.79296875 C-8.33059753 10.95679975 -8.57397303 8.78275417 -8.3125 5.1875 C-5.82020612 1.44905917 -4.52920894 0.25637032 0 0 Z " fill="#070605" transform="translate(367.3125,333.8125)"/>
<path d="M0 0 C3.5 0.5625 3.5 0.5625 5.6875 1.92578125 C8.57340328 6.12402417 8.078492 10.34134023 8 15.3125 C8.01546875 16.27671875 8.0309375 17.2409375 8.046875 18.234375 C8.01276765 24.51012706 7.10602328 29.34031608 3.5 34.5625 C-1.07458816 39.01979103 -5.25696895 40.65791107 -11.5625 41 C-15.25902897 40.91724189 -16.19004574 40.80758011 -19.1875 38.4375 C-20.83394742 34.83099613 -20.84600276 33.28380174 -19.5 29.5625 C-16.06059194 25.92655433 -13.34204618 25.23891309 -8.5 24.5625 C-8.47421875 23.24894531 -8.4484375 21.93539063 -8.421875 20.58203125 C-8.36558171 18.8463215 -8.30823465 17.1106457 -8.25 15.375 C-8.22873047 14.07852539 -8.22873047 14.07852539 -8.20703125 12.75585938 C-8.04804959 8.60643797 -7.82742928 6.11381255 -5.671875 2.484375 C-3.5 0.5625 -3.5 0.5625 0 0 Z " fill="#040403" transform="translate(398.5,290.4375)"/>
<path d="M0 0 C7.9529703 -0.62376238 7.9529703 -0.62376238 11.9375 1.75 C15.47112202 5.60486039 16.47837801 8.29697099 16.30859375 13.66015625 C15.16855221 22.30426866 11.38877455 29.15556051 5 35 C0.78125 38 0.78125 38 -2 38 C-2.13419827 29.96301473 -1.92712521 21.96548173 -1.5625 13.9375 C-1.52326416 13.02137939 -1.48402832 12.10525879 -1.44360352 11.16137695 C-1.40162842 10.292146 -1.35965332 9.42291504 -1.31640625 8.52734375 C-1.27974854 7.75124756 -1.24309082 6.97515137 -1.20532227 6.17553711 C-1.00274878 4.02912531 -0.57989057 2.07339623 0 0 Z " fill="#F8A28B" transform="translate(319,143)"/>
<path d="M0 0 C1.23556641 0.01740234 1.23556641 0.01740234 2.49609375 0.03515625 C3.32238281 0.04417969 4.14867187 0.05320313 5 0.0625 C5.63808594 0.07410156 6.27617187 0.08570313 6.93359375 0.09765625 C8.17740031 12.78878359 9.29644686 25.33732197 8.93359375 38.09765625 C0.47443633 34.9111831 -3.30580522 30.09829748 -7.06640625 22.09765625 C-8.79519987 16.91127538 -8.69592434 11.49932758 -8.06640625 6.09765625 C-6.6494933 3.5707429 -5.50994694 2.76641575 -3.06640625 1.09765625 C-2.06640625 0.09765625 -2.06640625 0.09765625 0 0 Z " fill="#FBAD9B" transform="translate(131.06640625,142.90234375)"/>
<path d="M0 0 C13.2 0 26.4 0 40 0 C40.99 3.96 41.98 7.92 43 12 C29.8 12 16.6 12 3 12 C2.01 8.04 1.02 4.08 0 0 Z " fill="#B3D1E0" transform="translate(51,402)"/>
<path d="M0 0 C5.28 0 10.56 0 16 0 C18.04790569 8.61826976 19.35857095 16.15524986 19 25 C12.73 25 6.46 25 0 25 C0 16.75 0 8.5 0 0 Z " fill="#C7EEFD" transform="translate(250,140)"/>
<path d="M0 0 C0.33 0 0.66 0 1 0 C1 6.93 1 13.86 1 21 C-8.24 21 -17.48 21 -27 21 C-27 17.04 -27 13.08 -27 9 C-18.09 9 -9.18 9 0 9 C0 6.03 0 3.06 0 0 Z " fill="#F6C300" transform="translate(315,476)"/>
<path d="M0 0 C0.804375 0.48919922 0.804375 0.48919922 1.625 0.98828125 C6.49099445 3.70139329 10.68976045 5.22367614 16.17578125 5.91699219 C25.13176714 7.05081673 25.13176714 7.05081673 28.13671875 10.3359375 C29.73392522 13.53035044 31 16.39457326 31 20 C23.08 20 15.16 20 7 20 C5.845 17.256875 4.69 14.51375 3.5 11.6875 C3.13455078 10.82729248 2.76910156 9.96708496 2.39257812 9.08081055 C2.10833984 8.39801025 1.82410156 7.71520996 1.53125 7.01171875 C1.23798828 6.31522217 0.94472656 5.61872559 0.64257812 4.90112305 C0 3 0 3 0 0 Z " fill="#FAAD9B" transform="translate(252,104)"/>
<path d="M0 0 C3.31971774 0.52300694 4.7428851 0.7706813 7.3125 3.0625 C9.98448469 7.71373261 9.64724766 11.45550766 8.375 16.45703125 C6.06686755 23.16504119 2.303925 27.39124964 -3 32 C-3.66 31.67 -4.32 31.34 -5 31 C-4.68756348 30.13487793 -4.37512695 29.26975586 -4.05322266 28.37841797 C-3.0538313 25.17267444 -2.52592498 22.27406578 -2.1484375 18.9453125 C-2.01953125 17.83671875 -1.890625 16.728125 -1.7578125 15.5859375 C-1.63148438 14.44382812 -1.50515625 13.30171875 -1.375 12.125 C-1.17390625 10.37703125 -1.17390625 10.37703125 -0.96875 8.59375 C-0.64009645 5.7297691 -0.31737168 2.86524931 0 0 Z " fill="#F1C79B" transform="translate(469,304)"/>
<path d="M0 0 C0.11593506 0.79172607 0.23187012 1.58345215 0.35131836 2.39916992 C0.87870656 5.99547779 1.40808238 9.59149035 1.9375 13.1875 C2.11990234 14.43337891 2.30230469 15.67925781 2.49023438 16.96289062 C2.75610352 18.7659668 2.75610352 18.7659668 3.02734375 20.60546875 C3.18968506 21.71043701 3.35202637 22.81540527 3.51928711 23.95385742 C3.94546338 26.65441673 4.4404803 29.3243202 5 32 C-1.5998417 28.16288273 -5.53832996 23.2765665 -8 16 C-8.74735187 10.52466416 -8.99649105 6.37354171 -5.6875 1.8125 C-3 0 -3 0 0 0 Z " fill="#F5DCBA" transform="translate(315,304)"/>
<path d="M0 0 C2.97 0 5.94 0 9 0 C9 4.62 9 9.24 9 14 C5.04 14 1.08 14 -3 14 C-2.34 12.35 -1.68 10.7 -1 9 C-0.55747943 6.5679241 -0.55747943 6.5679241 -0.375 4.1875 C-0.25125 2.805625 -0.1275 1.42375 0 0 Z " fill="#01BCF5" transform="translate(263,471)"/>
<path d="M0 0 C0.66 0 1.32 0 2 0 C1.67 3.63 1.34 7.26 1 11 C0.67 11 0.34 11 0 11 C-0.33 9.02 -0.66 7.04 -1 5 C-1.99 5.495 -1.99 5.495 -3 6 C-1.125 1.125 -1.125 1.125 0 0 Z " fill="#019ECE" transform="translate(291,305)"/>
</svg>
